<?xml version="1.0" encoding="UTF-8"?>
<svg xmlns="http://www.w3.org/2000/svg" xmlns:xlink="http://www.w3.org/1999/xlink" width="16px" height="16px" viewBox="0 0 16 16" version="1.1">
<defs>
<linearGradient id="linear0" gradientUnits="userSpaceOnUse" x1="3.0503" y1="3.0503" x2="12.9497" y2="12.9497" >
<stop offset="0" style="stop-color:rgb(13.72549%,65.882353%,97.254902%);stop-opacity:1;"/>
<stop offset="1" style="stop-color:rgb(6.666667%,18.431373%,67.843137%);stop-opacity:1;"/>
</linearGradient>
<filter id="alpha" filterUnits="objectBoundingBox" x="0%" y="0%" width="100%" height="100%">
  <feColorMatrix type="matrix" in="SourceGraphic" values="0 0 0 0 1 0 0 0 0 1 0 0 0 0 1 0 0 0 1 0"/>
</filter>
<mask id="mask0">
  <g filter="url(#alpha)">
<rect x="0" y="0" width="16" height="16" style="fill:rgb(0%,0%,0%);fill-opacity:0.501961;stroke:none;"/>
  </g>
</mask>
<clipPath id="clip1">
  <rect x="0" y="0" width="16" height="16"/>
</clipPath>
<g id="surface5" clip-path="url(#clip1)">
<path style=" stroke:none;fill-rule:nonzero;fill:rgb(100%,100%,100%);fill-opacity:1;" d="M 4.386719 12.375 C 4.085938 12.375 3.816406 12.203125 3.691406 11.929688 C 3.570312 11.660156 3.617188 11.339844 3.8125 11.117188 L 8.757812 5.410156 C 9.035156 5.101562 9.507812 5.070312 9.820312 5.34375 C 10.132812 5.613281 10.171875 6.085938 9.90625 6.40625 L 4.960938 12.113281 C 4.816406 12.28125 4.605469 12.375 4.386719 12.375 Z M 4.386719 12.375 "/>
</g>
</defs>
<g id="surface1">
<path style=" stroke:none;fill-rule:nonzero;fill:url(#linear0);" d="M 15 8 C 15 11.867188 11.867188 15 8 15 C 4.132812 15 1 11.867188 1 8 C 1 4.132812 4.132812 1 8 1 C 11.867188 1 15 4.132812 15 8 Z M 15 8 "/>
<path style=" stroke:none;fill-rule:nonzero;fill:rgb(100%,100%,100%);fill-opacity:1;" d="M 11.625 6.542969 C 11.464844 6.539062 11.316406 6.472656 11.203125 6.363281 C 10.933594 6.070312 11.117188 5.554688 10.933594 5.375 L 10.1875 4.636719 C 9.835938 4.285156 8.863281 3.171875 6.289062 3.828125 L 6.300781 4.003906 C 7.121094 4.117188 7.886719 4.472656 8.5 5.027344 C 8.589844 5.105469 8.644531 5.222656 8.644531 5.34375 C 8.648438 5.464844 8.601562 5.585938 8.511719 5.667969 L 8.253906 5.992188 L 9.335938 7.0625 C 9.335938 7.0625 9.5625 6.792969 9.632812 6.738281 C 9.929688 6.472656 10.378906 6.476562 10.671875 6.746094 C 10.914062 6.96875 10.957031 7.21875 10.828125 7.300781 Z M 11.625 6.542969 "/>
<path style=" stroke:none;fill-rule:nonzero;fill:rgb(100%,100%,100%);fill-opacity:1;" d="M 10.730469 7.121094 L 11.5 6.351562 C 11.640625 6.210938 11.871094 6.210938 12.011719 6.351562 L 12.269531 6.609375 C 12.410156 6.75 12.410156 6.980469 12.269531 7.121094 L 11.5 7.890625 C 11.359375 8.03125 11.128906 8.03125 10.988281 7.890625 L 10.730469 7.632812 C 10.589844 7.492188 10.589844 7.261719 10.730469 7.121094 Z M 10.730469 7.121094 "/>
<use xlink:href="#surface5" mask="url(#mask0)"/>
</g>
</svg>
