<svg id="Camada_1" data-name="Camada 1" xmlns="http://www.w3.org/2000/svg" xmlns:xlink="http://www.w3.org/1999/xlink" viewBox="0 0 32 32"><defs><style>.cls-1{isolation:isolate;opacity:0.1;}.cls-2{fill:url(#Gradiente_sem_nome_353);}.cls-3{fill:url(#Gradiente_sem_nome_330);}.cls-4{fill:url(#Gradiente_sem_nome_384);}.cls-5{fill:#fff;}.cls-6{fill:url(#Gradiente_sem_nome_289);}</style><linearGradient id="Gradiente_sem_nome_353" x1="2.3198" y1="10.2818" x2="19.1225" y2="27.0845" gradientUnits="userSpaceOnUse"><stop offset="0" stop-color="#5fa1f1"/><stop offset="1" stop-color="#4793ef"/></linearGradient><linearGradient id="Gradiente_sem_nome_330" x1="13.7856" y1="11.23" x2="27.1763" y2="24.6206" gradientUnits="userSpaceOnUse"><stop offset="0" stop-color="#9fc9f6"/><stop offset="1" stop-color="#86bbf3"/></linearGradient><linearGradient id="Gradiente_sem_nome_384" x1="8.6539" y1="3.5652" x2="21.1996" y2="16.111" gradientUnits="userSpaceOnUse"><stop offset="0" stop-color="#487bd9"/><stop offset="1" stop-color="#2360d1"/></linearGradient><linearGradient id="Gradiente_sem_nome_289" x1="12.4645" y1="12.4645" x2="19.5355" y2="19.5355" gradientUnits="userSpaceOnUse"><stop offset="0" stop-color="#5ca2f3"/><stop offset="1" stop-color="#2e7ef0"/></linearGradient></defs><path class="cls-1" d="M15.994,29.985A13.9624,13.9624,0,0,1,2.001,15.992c0-.1173-.003-.2332,0-.35a13.9975,13.9975,0,0,0,27.986,0c.003.1166,0,.2325,0,.35A13.9624,13.9624,0,0,1,15.994,29.985Z"/><path class="cls-2" d="M4.35,8.252c-.2409.3659-.4637.7581-.6894,1.1464A13.991,13.991,0,0,0,16,30q.1074-.0031.2148-.0078l6.629-11.0234c-.5311.8649-2.7435,1.9724-3.6876,2.5175a6.3148,6.3148,0,0,1-8.6015-2.4043Z"/><path class="cls-3" d="M16.0156,9c-.0154,0,2.222.9979,3.166,1.543,2.4125,1.3928,2.6643,6.3673,2.67,8.3808l.4043.2344-.4121.7129v.0332l-.1563.2363L16,29.9922c.0371.0009.0743.0041.1113.0039q.29-.0048.58-.0215c.1121-.0052.2241-.0058.3359-.0137q.6616-.0487,1.3165-.16c.0287-.0048.0572-.0107.0859-.0156A13.9654,13.9654,0,0,0,28.1035,9Z"/><path class="cls-4" d="M15.9941,2q-.1211.0029-.2421.0078-.3714.0039-.7422.0274l-.041.0058q-.636.0474-1.2657.1524c-.0428.007-.0861.0122-.1289.0195l-.0078.0019q-.6619.116-1.31.295A14.0031,14.0031,0,0,0,9.65,3.5234q-.1565.087-.3106.1778A13.9993,13.9993,0,0,0,3.8828,9.01l5.69,9.8554.1191.2383.0293.0176.2676.4648,2.4551,1.9727.6816-.291.7812.4922a4.4081,4.4081,0,0,1-.2753-.709l4.5918-1.9629-4.752-8.2324A2.91,2.91,0,0,1,16,9H28.1035a13.9934,13.9934,0,0,0-.76-1.1758q-.4014-.5557-.8555-1.07l-.0371-.043q-.4323-.4866-.9082-.9316-.0477-.0441-.0957-.0879-.4614-.4225-.959-.8027-.067-.0513-.1348-.1016-.48-.3579-.99-.6738-.0952-.0594-.1914-.1172-.4869-.2916-.9961-.543-.1408-.069-.2832-.1347-.471-.218-.9571-.4-.1836-.071-.3691-.1368-.456-.1565-.9219-.2812-.23-.0635-.4629-.1191-.4278-.0995-.8613-.1719-.2736-.0465-.5488-.082-.3913-.05-.7852-.0782Q16.4942,2.0071,16,2Z"/><path class="cls-5" d="M23,16h0a7,7,0,0,0-7-7h0a7,7,0,0,0-7,7H9a7,7,0,0,0,7,7h0A7,7,0,0,0,23,16Z"/><path class="cls-6" d="M21,16h0a5,5,0,0,0-5-5h0a5,5,0,0,0-5,5h0a5,5,0,0,0,5,5h0A5,5,0,0,0,21,16Z"/></svg>