<svg height="32px" width="32px" id="Camada_1" data-name="Camada 1" xmlns="http://www.w3.org/2000/svg" xmlns:xlink="http://www.w3.org/1999/xlink" viewBox="0 0 32 32"><defs><style>.cls-1{fill:url(#Gradiente_sem_nome_2);}.cls-2{fill:url(#Gradiente_sem_nome_47);}</style><linearGradient id="Gradiente_sem_nome_2" x1="6.247" y1="5.247" x2="26.753" y2="25.753" gradientUnits="userSpaceOnUse"><stop offset="0" stop-color="#2d2d30"/><stop offset="1" stop-color="#171617"/></linearGradient><linearGradient id="Gradiente_sem_nome_47" x1="9.0024" y1="8.1354" x2="23.728" y2="22.861" gradientUnits="userSpaceOnUse"><stop offset="0" stop-color="#fff"/><stop offset="1" stop-color="#d2d2d2"/></linearGradient></defs><circle class="cls-1" cx="16.5" cy="15.5" r="14.5"/><path class="cls-2" d="M16.0391,5.01c-.3087.0135-.6158.0416-.9219.082a10.5,10.5,0,1,0,7.18,19.1582,1.5014,1.5014,0,0,0-1.66-2.502,7.4993,7.4993,0,1,1,.0117-12.49A1.5008,1.5008,0,0,0,22.3125,6.76,10.4525,10.4525,0,0,0,16.0391,5.01ZM23,10.25V14H17.5a1.5,1.5,0,0,0,0,3H23v3.75l6.5-5.25Z"/></svg>