<?xml version="1.0" encoding="UTF-8" standalone="no"?>
<svg
   width="24"
   height="24"
   viewBox="0 0 6.34992 6.34992"
   version="1.1"
   id="svg1886"
   inkscape:version="1.1.2 (0a00cf5339, 2022-02-04, custom)"
   sodipodi:docname="accessories-screenshot.svg"
   xmlns:inkscape="http://www.inkscape.org/namespaces/inkscape"
   xmlns:sodipodi="http://sodipodi.sourceforge.net/DTD/sodipodi-0.dtd"
   xmlns:xlink="http://www.w3.org/1999/xlink"
   xmlns="http://www.w3.org/2000/svg"
   xmlns:svg="http://www.w3.org/2000/svg"
   xmlns:rdf="http://www.w3.org/1999/02/22-rdf-syntax-ns#"
   xmlns:cc="http://creativecommons.org/ns#"
   xmlns:dc="http://purl.org/dc/elements/1.1/">
  <defs
     id="defs1880">
    <linearGradient
       inkscape:collect="always"
       id="linearGradient1430">
      <stop
         style="stop-color:#f1f3f4;stop-opacity:1;"
         offset="0"
         id="stop1426" />
      <stop
         style="stop-color:#e1e5e7;stop-opacity:1"
         offset="1"
         id="stop1428" />
    </linearGradient>
    <linearGradient
       inkscape:collect="always"
       xlink:href="#linearGradient1430"
       id="linearGradient5396"
       x1="0.26458001"
       y1="0.26458001"
       x2="3.9686999"
       y2="3.9687002"
       gradientUnits="userSpaceOnUse"
       gradientTransform="translate(0.26457999,0.26457999)" />
    <linearGradient
       inkscape:collect="always"
       id="linearGradient1587">
      <stop
         style="stop-color:#a0a7ac;stop-opacity:1;"
         offset="0"
         id="stop1583" />
      <stop
         style="stop-color:#81888e;stop-opacity:1"
         offset="1"
         id="stop1585" />
    </linearGradient>
    <linearGradient
       inkscape:collect="always"
       xlink:href="#linearGradient1587"
       id="linearGradient6148"
       x1="5"
       y1="12"
       x2="15"
       y2="12"
       gradientUnits="userSpaceOnUse"
       gradientTransform="matrix(0.26458,0,0,0.26458,0.26457999,0.26457999)" />
    <linearGradient
       inkscape:collect="always"
       xlink:href="#linearGradient1587"
       id="linearGradient6150"
       x1="11"
       y1="5"
       x2="11"
       y2="15"
       gradientUnits="userSpaceOnUse"
       gradientTransform="matrix(0.26458,0,0,0.26458,0.26457999,0.26457999)" />
    <linearGradient
       inkscape:collect="always"
       xlink:href="#linearGradient1740"
       id="linearGradient1742"
       x1="10.583333"
       y1="12.170834"
       x2="10.583334"
       y2="8.9958334"
       gradientUnits="userSpaceOnUse"
       gradientTransform="matrix(0.33332909,0,0,0.33332909,0.17638699,-0.08819303)" />
    <linearGradient
       inkscape:collect="always"
       id="linearGradient1740">
      <stop
         style="stop-color:#000000;stop-opacity:0"
         offset="0"
         id="stop1736" />
      <stop
         style="stop-color:#000000;stop-opacity:1"
         offset="0.5"
         id="stop1744" />
      <stop
         style="stop-color:#000000;stop-opacity:0;"
         offset="1"
         id="stop1738" />
    </linearGradient>
    <linearGradient
       inkscape:collect="always"
       id="linearGradient1452">
      <stop
         style="stop-color:#50baec;stop-opacity:1"
         offset="0"
         id="stop1448" />
      <stop
         style="stop-color:#1ea1e4;stop-opacity:1"
         offset="1"
         id="stop1450" />
    </linearGradient>
    <linearGradient
       inkscape:collect="always"
       xlink:href="#linearGradient1452"
       id="linearGradient7609"
       x1="15"
       y1="10.499983"
       x2="21"
       y2="10.499983"
       gradientUnits="userSpaceOnUse"
       gradientTransform="matrix(0.26458,0,0,0.26458,0.26457999,0.26457999)" />
    <linearGradient
       inkscape:collect="always"
       xlink:href="#linearGradient1452"
       id="linearGradient7655"
       x1="13"
       y1="15"
       x2="13.012762"
       y2="21.053324"
       gradientUnits="userSpaceOnUse"
       gradientTransform="matrix(0.26458,0,0,0.26458,0.26457999,0.26457999)" />
  </defs>
  <sodipodi:namedview
     id="base"
     pagecolor="#ffffff"
     bordercolor="#666666"
     borderopacity="1.0"
     inkscape:pageopacity="0.0"
     inkscape:pageshadow="2"
     inkscape:zoom="51.361666"
     inkscape:cx="9.5012495"
     inkscape:cy="7.9923421"
     inkscape:document-units="px"
     inkscape:current-layer="svg1886"
     inkscape:document-rotation="0"
     showgrid="false"
     units="px"
     inkscape:window-width="1920"
     inkscape:window-height="1028"
     inkscape:window-x="0"
     inkscape:window-y="0"
     inkscape:window-maximized="1"
     inkscape:pagecheckerboard="0"
     showguides="false" />
  <metadata
     id="metadata1883">
    <rdf:RDF>
      <cc:Work
         rdf:about="">
        <dc:format>image/svg+xml</dc:format>
        <dc:type
           rdf:resource="http://purl.org/dc/dcmitype/StillImage" />
      </cc:Work>
    </rdf:RDF>
  </metadata>
  <rect
     style="fill:url(#linearGradient5396);fill-opacity:1;stroke-width:0.52916;stroke-linejoin:round"
     id="rect859"
     width="3.7041199"
     height="3.7041199"
     x="0.52916002"
     y="0.52916002"
     ry="0.52916002" />
  <path
     id="rect1065"
     style="fill:url(#linearGradient6150);fill-opacity:1;stroke-width:0.432056;stroke-linejoin:round"
     d="M 3.17496,1.58748 V 2.11664 4.23328 H 3.70412 V 2.11664 A 0.52916003,0.52916003 0 0 0 3.17496,1.58748 Z" />
  <rect
     style="opacity:0.4;fill:url(#linearGradient1742);fill-opacity:1;stroke-width:0.0881933"
     id="rect1734"
     width="0.52916002"
     height="1.0583199"
     x="3.1749599"
     y="2.9103801" />
  <path
     id="rect1169"
     style="fill:url(#linearGradient6148);fill-opacity:1;stroke-width:0.400008;stroke-linejoin:round"
     d="M 1.58748,3.17496 A 0.52916003,0.52916003 0 0 0 2.11664,3.70412 H 4.23328 V 3.17496 H 2.11664 Z" />
  <path
     id="rect1599"
     style="fill:#b8c2cc;fill-opacity:1;stroke-width:0.108014"
     d="m 3.1749599,3.17496 c 0,0.1465773 -0.1180027,0.26458 -0.26458,0.26458 H 1.85206 c -0.1465773,0 -0.26458,-0.1180027 -0.26458,-0.26458 3e-7,10e-8 1.5874799,0 1.5874799,0 z"
     sodipodi:nodetypes="csscc" />
  <path
     id="path6714"
     style="fill:url(#linearGradient7655);fill-opacity:1;stroke-width:0.440968;stroke-linejoin:round"
     d="m 3.17496,4.23328 v 0.2780156 c -0.043534,-0.00891 -0.087854,-0.013412 -0.13229,-0.013436 -0.3653088,0 -0.66145,0.2961412 -0.66145,0.66145 0,0.3653088 0.2961412,0.66145 0.66145,0.66145 0.3653088,0 0.66145,-0.2961412 0.66145,-0.66145 7.33e-5,-0.00568 7.33e-5,-0.01137 0,-0.017053 V 4.23328 Z M 3.04267,4.76244 A 0.39687,0.39687 0 0 1 3.43954,5.15931 0.39687,0.39687 0 0 1 3.04267,5.55618 0.39687,0.39687 0 0 1 2.6458,5.15931 0.39687,0.39687 0 0 1 3.04267,4.76244 Z" />
  <path
     id="path7431"
     style="fill:url(#linearGradient7609);fill-opacity:1;stroke-width:0.440968;stroke-linejoin:round"
     d="M 5.142257,2.38122 C 4.7848383,2.3902754 4.49786,2.6830692 4.49786,3.04267 4.4978841,3.087106 4.50239,3.131427 4.511296,3.17496 H 4.23328 v 0.52916 h 0.908977 c 0.00568,7.33e-5 0.011373,7.33e-5 0.017053,0 0.3653088,0 0.66145,-0.2961412 0.66145,-0.66145 0,-0.3653087 -0.2961412,-0.6614499 -0.66145,-0.66145 -0.00571,0 -0.01138,-1.437e-4 -0.017053,0 z M 5.15931,2.6458 A 0.39687,0.39687 0 0 1 5.55618,3.04267 0.39687,0.39687 0 0 1 5.15931,3.43954 0.39687,0.39687 0 0 1 4.76244,3.04267 0.39687,0.39687 0 0 1 5.15931,2.6458 Z" />
  <path
     id="rect1816"
     style="fill:#d83b01;fill-opacity:1;stroke-width:0.52916;stroke-linejoin:round"
     d="M 1.3161822,1.05832 C 1.1727955,1.061928 1.05832,1.178613 1.05832,1.3229 V 1.58748 H 1.58748 V 1.05832 H 1.3229 c -0.00229,0 -0.00444,-5.73e-5 -0.00672,0 z m 0.5358778,0 V 1.58748 H 2.38122 V 1.05832 Z m 0.79374,0 V 1.58748 H 3.17496 V 1.3229 c 0,-0.1465774 -0.1180027,-0.26458 -0.26458,-0.26458 z M 1.05832,1.85206 V 2.38122 H 1.58748 V 1.85206 Z m 0,0.79374 v 0.26458 c 0,0.1465773 0.1180027,0.26458 0.26458,0.26458 H 1.58748 V 2.6458 Z" />
</svg>
