<?xml version="1.0" encoding="UTF-8"?>
<svg xmlns="http://www.w3.org/2000/svg" xmlns:xlink="http://www.w3.org/1999/xlink" width="16px" height="16px" viewBox="0 0 16 16" version="1.1">
<defs>
<linearGradient id="linear0" gradientUnits="userSpaceOnUse" x1="12.1807" y1="12.5372" x2="3.8915" y2="3.5468" >
<stop offset="0" style="stop-color:rgb(56.078431%,38.431373%,73.72549%);stop-opacity:1;"/>
<stop offset="1" style="stop-color:rgb(96.862745%,56.470588%,30.588235%);stop-opacity:1;"/>
</linearGradient>
<linearGradient id="linear1" gradientUnits="userSpaceOnUse" x1="-63.4564" y1="-29.0942" x2="-65.4668" y2="-31.2747" gradientTransform="matrix(3.4523,0,0,3.4523,230.9932,111.8533)">
<stop offset="0" style="stop-color:rgb(13.72549%,13.333333%,13.72549%);stop-opacity:1;"/>
<stop offset="1" style="stop-color:rgb(28.627451%,28.235294%,30.196078%);stop-opacity:1;"/>
</linearGradient>
<linearGradient id="linear2" gradientUnits="userSpaceOnUse" x1="-74.502" y1="-39.905" x2="-76.5124" y2="-42.0854" gradientTransform="matrix(1.4087,0,0,1.4087,114.3799,65.7633)">
<stop offset="0" style="stop-color:rgb(82.352941%,82.352941%,82.352941%);stop-opacity:1;"/>
<stop offset="1" style="stop-color:rgb(100%,100%,100%);stop-opacity:1;"/>
</linearGradient>
<linearGradient id="linear3" gradientUnits="userSpaceOnUse" x1="-104.4763" y1="-69.895" x2="-106.1235" y2="-71.6814" gradientTransform="matrix(0.5389,0,0,0.5389,64.7516,46.1531)">
<stop offset="0" style="stop-color:rgb(13.72549%,13.333333%,13.72549%);stop-opacity:1;"/>
<stop offset="1" style="stop-color:rgb(28.627451%,28.235294%,30.196078%);stop-opacity:1;"/>
</linearGradient>
</defs>
<g id="surface1">
<path style=" stroke:none;fill-rule:nonzero;fill:url(#linear0);" d="M 13.933594 4.28125 C 13.75 3.992188 13.546875 3.714844 13.324219 3.457031 L 12.863281 3.777344 L 11.925781 2.820312 L 12.355469 2.519531 C 9.667969 0.382812 5.828125 0.511719 3.289062 2.824219 C 0.75 5.132812 0.261719 8.945312 2.136719 11.824219 C 2.261719 12.015625 2.394531 12.199219 2.539062 12.378906 C 3 12.957031 3.550781 13.457031 4.171875 13.859375 C 4.398438 14.007812 4.632812 14.144531 4.871094 14.265625 C 7.8125 15.730469 11.378906 14.957031 13.441406 12.402344 C 13.585938 12.222656 13.71875 12.042969 13.847656 11.851562 C 15.351562 9.5625 15.386719 6.601562 13.933594 4.28125 Z M 13.933594 4.28125 "/>
<path style=" stroke:none;fill-rule:nonzero;fill:url(#linear1);" d="M 8 2.140625 C 5.847656 2.136719 3.867188 3.316406 2.84375 5.207031 C 1.820312 7.097656 1.914062 9.402344 3.089844 11.203125 C 3.195312 11.363281 3.308594 11.519531 3.429688 11.667969 C 5.3125 14.023438 8.679688 14.558594 11.207031 12.90625 C 11.71875 12.574219 12.171875 12.160156 12.558594 11.6875 C 12.679688 11.539062 12.792969 11.382812 12.894531 11.222656 C 14.15625 9.34375 14.199219 6.898438 13.007812 4.972656 L 11.609375 5.9375 L 11.003906 5.058594 L 12.359375 4.125 L 13.328125 3.457031 C 13.214844 3.316406 13.09375 3.1875 12.964844 3.066406 C 12.773438 2.871094 12.570312 2.6875 12.355469 2.519531 L 11.367188 3.207031 C 10.382812 2.511719 9.207031 2.136719 8 2.140625 Z M 8 2.140625 "/>
<path style=" stroke:none;fill-rule:nonzero;fill:url(#linear2);" d="M 10.390625 8 C 10.394531 8.46875 10.257812 8.925781 10 9.316406 C 9.957031 9.382812 9.910156 9.445312 9.859375 9.503906 C 9.703125 9.699219 9.515625 9.867188 9.308594 10.003906 C 8.515625 10.523438 7.488281 10.523438 6.695312 10.003906 C 6.480469 9.867188 6.292969 9.695312 6.132812 9.496094 C 6.085938 9.4375 6.039062 9.375 5.996094 9.304688 C 5.4375 8.449219 5.484375 7.335938 6.113281 6.527344 C 6.742188 5.722656 7.8125 5.402344 8.777344 5.738281 C 9.746094 6.070312 10.394531 6.980469 10.390625 8 Z M 10.390625 8 "/>
<path style=" stroke:none;fill-rule:nonzero;fill:url(#linear3);" d="M 8.75 8 C 8.75 8.148438 8.707031 8.289062 8.625 8.414062 C 8.613281 8.433594 8.597656 8.453125 8.582031 8.472656 C 8.535156 8.53125 8.476562 8.585938 8.410156 8.628906 C 8.160156 8.789062 7.839844 8.789062 7.589844 8.628906 C 7.523438 8.582031 7.464844 8.53125 7.414062 8.46875 C 7.398438 8.449219 7.386719 8.429688 7.371094 8.410156 C 7.199219 8.140625 7.210938 7.792969 7.410156 7.539062 C 7.605469 7.285156 7.941406 7.1875 8.246094 7.289062 C 8.546875 7.394531 8.75 7.679688 8.75 8 Z M 8.75 8 "/>
</g>
</svg>
