<?xml version="1.0" encoding="UTF-8"?>
<svg xmlns="http://www.w3.org/2000/svg" xmlns:xlink="http://www.w3.org/1999/xlink" width="32px" height="32px" viewBox="0 0 32 32" version="1.1">
<defs>
<linearGradient id="linear0" gradientUnits="userSpaceOnUse" x1="4.0249" y1="26.7438" x2="27.9751" y2="2.7936" gradientTransform="matrix(1,0,0,-1,0,31.8898)">
<stop offset="0" style="stop-color:rgb(2.352941%,41.176471%,73.72549%);stop-opacity:1;"/>
<stop offset="1" style="stop-color:rgb(14.117647%,22.745098%,37.254902%);stop-opacity:1;"/>
</linearGradient>
<linearGradient id="linear1" gradientUnits="userSpaceOnUse" x1="-452.0606" y1="513.6893" x2="-452.0606" y2="515.5417" gradientTransform="matrix(3.7796,0,0,3.7796,1717.608,-1939.5415)">
<stop offset="0" style="stop-color:rgb(18.823529%,85.490196%,100%);stop-opacity:1;"/>
<stop offset="1" style="stop-color:rgb(2.352941%,49.411765%,74.509804%);stop-opacity:1;"/>
</linearGradient>
<linearGradient id="linear2" gradientUnits="userSpaceOnUse" x1="16" y1="29.8898" x2="16" y2="27.8898" gradientTransform="matrix(1,0,0,-1,0,31.8898)">
<stop offset="0" style="stop-color:rgb(13.333333%,73.72549%,100%);stop-opacity:1;"/>
<stop offset="1" style="stop-color:rgb(2.352941%,49.411765%,74.509804%);stop-opacity:1;"/>
</linearGradient>
<linearGradient id="linear3" gradientUnits="userSpaceOnUse" x1="-749.4615" y1="513.6893" x2="-749.4615" y2="515.5417" gradientTransform="matrix(-3.7796,0,0,3.7796,-2809.6647,-1939.5415)">
<stop offset="0" style="stop-color:rgb(18.823529%,85.490196%,100%);stop-opacity:1;"/>
<stop offset="1" style="stop-color:rgb(2.352941%,49.411765%,74.509804%);stop-opacity:1;"/>
</linearGradient>
</defs>
<g id="surface1">
<path style=" stroke:none;fill-rule:nonzero;fill:url(#linear0);" d="M 4 6 L 28 6 C 28.53125 6 29.039062 6.210938 29.414062 6.585938 C 29.789062 6.960938 30 7.46875 30 8 L 30 25 C 30 27.761719 27.761719 30 25 30 L 7 30 C 4.238281 30 2 27.761719 2 25 L 2 8 C 2 7.46875 2.210938 6.960938 2.585938 6.585938 C 2.960938 6.210938 3.46875 6 4 6 Z M 4 6 "/>
<path style=" stroke:none;fill-rule:nonzero;fill:url(#linear1);" d="M 9.976562 2 C 9.464844 1.980469 8.96875 2.167969 8.59375 2.519531 C 8.222656 2.867188 8.007812 3.355469 8 3.867188 L 8 8.292969 C 7.972656 8.65625 8.242188 8.972656 8.605469 9 L 9.394531 9 C 9.570312 8.988281 9.730469 8.90625 9.84375 8.773438 C 9.957031 8.640625 10.015625 8.46875 10 8.292969 L 10 2 Z M 9.976562 2 "/>
<path style=" stroke:none;fill-rule:nonzero;fill:url(#linear2);" d="M 10 2 L 22 2 L 22 4 L 10 4 Z M 10 2 "/>
<path style=" stroke:none;fill-rule:nonzero;fill:url(#linear3);" d="M 22.023438 2 C 22.535156 1.980469 23.03125 2.167969 23.40625 2.519531 C 23.777344 2.867188 23.992188 3.355469 24 3.867188 L 24 8.292969 C 24.015625 8.46875 23.957031 8.640625 23.84375 8.773438 C 23.730469 8.90625 23.570312 8.988281 23.394531 9 L 22.605469 9 C 22.429688 8.988281 22.269531 8.90625 22.15625 8.773438 C 22.042969 8.640625 21.984375 8.46875 22 8.292969 L 22 2 Z M 22.023438 2 "/>
<path style=" stroke:none;fill-rule:nonzero;fill:rgb(94.509804%,31.764706%,10.588235%);fill-opacity:1;" d="M 15 14.5 C 15 15.878906 13.878906 17 12.5 17 C 11.121094 17 10 15.878906 10 14.5 C 10 13.121094 11.121094 12 12.5 12 C 13.878906 12 15 13.121094 15 14.5 Z M 15 14.5 "/>
<path style=" stroke:none;fill-rule:nonzero;fill:rgb(50.196078%,80%,15.686275%);fill-opacity:1;" d="M 22 14.5 C 22 15.878906 20.878906 17 19.5 17 C 18.121094 17 17 15.878906 17 14.5 C 17 13.121094 18.121094 12 19.5 12 C 20.878906 12 22 13.121094 22 14.5 Z M 22 14.5 "/>
<path style=" stroke:none;fill-rule:nonzero;fill:rgb(0%,67.843137%,93.72549%);fill-opacity:1;" d="M 15 21.5 C 15 22.878906 13.878906 24 12.5 24 C 11.121094 24 10 22.878906 10 21.5 C 10 20.121094 11.121094 19 12.5 19 C 13.878906 19 15 20.121094 15 21.5 Z M 15 21.5 "/>
<path style=" stroke:none;fill-rule:nonzero;fill:rgb(98.431373%,73.72549%,3.529412%);fill-opacity:1;" d="M 22 21.5 C 22 22.878906 20.878906 24 19.5 24 C 18.121094 24 17 22.878906 17 21.5 C 17 20.121094 18.121094 19 19.5 19 C 20.878906 19 22 20.121094 22 21.5 Z M 22 21.5 "/>
</g>
</svg>
