<svg xmlns="http://www.w3.org/2000/svg" width="32" height="32">
  <defs>
    <linearGradient id="a" x1="22.27" x2="9.65" y1="11.73" y2="24.35" gradientTransform="matrix(1 0 0 -1 0 34)" gradientUnits="userSpaceOnUse">
      <stop offset="0" stop-color="#fff"/>
      <stop offset=".24" stop-color="#f2f2f2"/>
      <stop offset="1" stop-color="#ccc"/>
    </linearGradient>
    <linearGradient id="b" x1="10.39" x2="20.23" y1="23.61" y2="13.77" gradientTransform="matrix(1 0 0 -1 0 34)" gradientUnits="userSpaceOnUse">
      <stop offset=".23" stop-color="#0669bc"/>
      <stop offset=".8" stop-color="#104e91"/>
    </linearGradient>
    <linearGradient id="c" x1="1.18" x2="27.17" y1="32.74" y2="6.75" gradientTransform="matrix(1 0 0 -1 0 34)" gradientUnits="userSpaceOnUse">
      <stop offset=".15" stop-color="#8a9198"/>
      <stop offset=".89" stop-color="#63707b"/>
    </linearGradient>
  </defs>
  <path fill="url(#a)" d="M25 16a9 9 0 1 1-18 0 9 9 0 0 1 18 0Zm0 0"/>
  <path fill="url(#b)" d="M22 16a6 6 0 1 1-12 0 6 6 0 0 1 12 0Zm0 0"/>
  <path fill="url(#c)" d="M31.52 12.32a5.63 5.63 0 0 1-4.78-2.75c-.95-1.62-1-3.6-.13-5.27A16.06 16.06 0 0 0 20.66 1 5.62 5.62 0 0 1 16 3.46 5.62 5.62 0 0 1 11.34 1a16 16 0 0 0-5.95 3.3 5.44 5.44 0 0 1-.13 5.27 5.63 5.63 0 0 1-4.78 2.75 15.02 15.02 0 0 0-.2 6.7c2.04-.05 3.95 1 4.98 2.75a5.43 5.43 0 0 1-.17 5.78A16.02 16.02 0 0 0 10.96 31a5.63 5.63 0 0 1 10.08 0c2.19-.71 4.19-1.9 5.87-3.45a5.43 5.43 0 0 1-.17-5.78 5.63 5.63 0 0 1 4.97-2.75c.44-2.22.38-4.51-.19-6.7ZM16 24a8 8 0 1 1 0-16 8 8 0 0 1 0 16Zm0 0"/>
</svg>
