<?xml version="1.0" encoding="UTF-8"?>
<svg xmlns="http://www.w3.org/2000/svg" xmlns:xlink="http://www.w3.org/1999/xlink" width="32px" height="32px" viewBox="0 0 32 32" version="1.1">
<defs>
<linearGradient id="linear0" gradientUnits="userSpaceOnUse" x1="0.3496" y1="-0.3262" x2="31.6513" y2="30.9766" >
<stop offset="0" style="stop-color:rgb(15.686275%,68.627451%,91.764706%);stop-opacity:1;"/>
<stop offset="1" style="stop-color:rgb(51.372549%,54.509804%,89.411765%);stop-opacity:1;"/>
</linearGradient>
</defs>
<g id="surface1">
<path style=" stroke:none;fill-rule:nonzero;fill:url(#linear0);" d="M 30.402344 0 L 1.601562 0 C 0.71875 0 0 0.714844 0 1.597656 L 0 29.714844 L 2.285156 29.714844 L 2.285156 32 L 29.714844 32 L 29.714844 29.714844 L 32 29.714844 L 32 1.597656 C 32 1.175781 31.832031 0.765625 31.53125 0.46875 C 31.234375 0.167969 30.824219 0 30.402344 0 Z M 30.402344 0 "/>
<path style=" stroke:none;fill-rule:nonzero;fill:rgb(25.098039%,42.352941%,80.392157%);fill-opacity:1;" d="M 24.308594 15.726562 C 23.113281 14.566406 21.214844 14.566406 20.023438 15.726562 L 3.429688 32 L 30.394531 32 C 31.105469 32.011719 31.738281 31.539062 31.929688 30.851562 L 32 30.851562 L 32 23.273438 Z M 24.308594 15.726562 "/>
<path style=" stroke:none;fill-rule:nonzero;fill:rgb(7.45098%,25.882353%,49.411765%);fill-opacity:1;" d="M 11.757812 11.429688 C 11.195312 11.429688 10.652344 11.65625 10.253906 12.058594 L 0 22.34375 L 0 30.394531 C 0 31.277344 0.71875 31.996094 1.601562 32 L 30.46875 32 C 31.175781 32 31.800781 31.53125 32 30.851562 L 13.269531 12.058594 C 12.867188 11.65625 12.324219 11.429688 11.757812 11.429688 Z M 11.757812 11.429688 "/>
<path style=" stroke:none;fill-rule:nonzero;fill:rgb(100%,100%,100%);fill-opacity:1;" d="M 24 8.570312 C 24 10.148438 22.722656 11.429688 21.144531 11.429688 C 19.566406 11.429688 18.285156 10.148438 18.285156 8.570312 C 18.285156 6.992188 19.566406 5.714844 21.144531 5.714844 C 22.71875 5.714844 24 6.992188 24 8.570312 Z M 24 8.570312 "/>
</g>
</svg>
