<svg width="22px" height="22px" id="Camada_1" data-name="Camada 1" xmlns="http://www.w3.org/2000/svg" xmlns:xlink="http://www.w3.org/1999/xlink" viewBox="0 0 22 22"><defs><style>.cls-1{fill:url(#Gradiente_sem_nome_201);}.cls-2{fill:url(#Gradiente_sem_nome_106);}.cls-3{fill:url(#Gradiente_sem_nome_228);}.cls-4{fill:url(#Gradiente_sem_nome_2);}</style><linearGradient id="Gradiente_sem_nome_201" x1="2.7833" y1="3.8642" x2="19.2167" y2="20.2977" gradientUnits="userSpaceOnUse"><stop offset="0" stop-color="#96643e"/><stop offset="1" stop-color="#874e23"/></linearGradient><linearGradient id="Gradiente_sem_nome_106" x1="3.6619" y1="3.0337" x2="18.3381" y2="17.71" gradientUnits="userSpaceOnUse"><stop offset="0" stop-color="#db9b69"/><stop offset="1" stop-color="#ab6d33"/></linearGradient><linearGradient id="Gradiente_sem_nome_228" x1="9.1129" y1="2.3387" x2="12.8871" y2="6.1129" gradientUnits="userSpaceOnUse"><stop offset="0" stop-color="#946744"/><stop offset="1" stop-color="#754622"/></linearGradient><linearGradient id="Gradiente_sem_nome_2" x1="10.3749" y1="13.8749" x2="11.6251" y2="15.1251" gradientUnits="userSpaceOnUse"><stop offset="0" stop-color="#fff"/><stop offset="1" stop-color="#dedede"/></linearGradient></defs><path class="cls-1" d="M19.8946,5H2.1054A1.1054,1.1054,0,0,0,1,6.1054V18.171A.8291.8291,0,0,0,1.829,19H20.171A.8291.8291,0,0,0,21,18.171V6.1054A1.1054,1.1054,0,0,0,19.8946,5Z"/><path class="cls-2" d="M19.375,16H2.625A1.625,1.625,0,0,1,1,14.375V6.1875A1.1875,1.1875,0,0,1,2.1875,5h17.625A1.1875,1.1875,0,0,1,21,6.1875V14.375A1.625,1.625,0,0,1,19.375,16Z"/><path class="cls-3" d="M8.7708,3A.7708.7708,0,0,0,8,3.7708V5H9V4h4V5h1V3.7708A.7708.7708,0,0,0,13.2292,3Z"/><rect class="cls-4" x="10" y="14" width="2" height="1" rx="0.4264"/></svg>