<?xml version="1.0" encoding="UTF-8"?>
<svg xmlns="http://www.w3.org/2000/svg" xmlns:xlink="http://www.w3.org/1999/xlink" width="22px" height="22px" viewBox="0 0 22 22" version="1.1">
<defs>
<linearGradient id="linear0" gradientUnits="userSpaceOnUse" x1="0" y1="12.5" x2="21.9953" y2="12.5" >
<stop offset="0" style="stop-color:rgb(99.607843%,74.901961%,9.411765%);stop-opacity:1;"/>
<stop offset="1" style="stop-color:rgb(93.72549%,71.764706%,18.823529%);stop-opacity:1;"/>
</linearGradient>
<linearGradient id="linear1" gradientUnits="userSpaceOnUse" x1="5.0207" y1="5" x2="5.0207" y2="8" >
<stop offset="0" style="stop-color:rgb(0%,0%,0%);stop-opacity:0;"/>
<stop offset="1" style="stop-color:rgb(0%,0%,0%);stop-opacity:0.2;"/>
</linearGradient>
<linearGradient id="linear2" gradientUnits="userSpaceOnUse" x1="6.0235" y1="7.5216" x2="18.7315" y2="20.2296" >
<stop offset="0" style="stop-color:rgb(100%,84.313725%,38.039216%);stop-opacity:1;"/>
<stop offset="1" style="stop-color:rgb(96.470588%,70.980392%,1.568627%);stop-opacity:1;"/>
</linearGradient>
<filter id="alpha" filterUnits="objectBoundingBox" x="0%" y="0%" width="100%" height="100%">
  <feColorMatrix type="matrix" in="SourceGraphic" values="0 0 0 0 1 0 0 0 0 1 0 0 0 0 1 0 0 0 1 0"/>
</filter>
<mask id="mask0">
  <g filter="url(#alpha)">
<rect x="0" y="0" width="22" height="22" style="fill:rgb(0%,0%,0%);fill-opacity:0.301961;stroke:none;"/>
  </g>
</mask>
<linearGradient id="linear3" gradientUnits="userSpaceOnUse" x1="7.4241" y1="3.6328" x2="15.5537" y2="11.7624" >
<stop offset="0" style="stop-color:rgb(100%,100%,100%);stop-opacity:1;"/>
<stop offset="1" style="stop-color:rgb(96.470588%,70.980392%,1.568627%);stop-opacity:0;"/>
</linearGradient>
<clipPath id="clip1">
  <rect x="0" y="0" width="22" height="22"/>
</clipPath>
<g id="surface5" clip-path="url(#clip1)">
<path style=" stroke:none;fill-rule:nonzero;fill:url(#linear3);" d="M 0.0078125 8.0625 C 0.0117188 7.785156 0.125 7.515625 0.320312 7.316406 C 0.527344 7.113281 0.808594 7 1.101562 7 L 8.128906 7 L 8.152344 6.996094 C 8.761719 6.800781 9.308594 6.460938 9.753906 6 L 21.082031 6 C 21.585938 6 21.996094 6.410156 21.996094 6.914062 L 21.996094 5.914062 C 21.996094 5.410156 21.585938 5 21.082031 5 L 9.753906 5 C 9.308594 5.460938 8.761719 5.800781 8.152344 5.996094 L 8.128906 6 L 1.101562 6 C 0.808594 6 0.527344 6.113281 0.320312 6.316406 C 0.125 6.515625 0.0117188 6.785156 0.0078125 7.0625 L 0.0078125 7.769531 C 0.00390625 7.804688 0 7.84375 0 7.878906 L 0 8.878906 C 0 8.84375 0.00390625 8.804688 0.0078125 8.769531 Z M 0.0078125 8.0625 "/>
</g>
<linearGradient id="linear4" gradientUnits="userSpaceOnUse" x1="-18.1746" y1="23.7494" x2="-14.847" y2="21.8282" gradientTransform="matrix(3.7796,0,0,-3.7796,73.1152,103.3289)">
<stop offset="0" style="stop-color:rgb(7.843137%,57.647059%,87.45098%);stop-opacity:1;"/>
<stop offset="1" style="stop-color:rgb(0%,38.431373%,70.588235%);stop-opacity:1;"/>
</linearGradient>
</defs>
<g id="surface1">
<path style=" stroke:none;fill-rule:nonzero;fill:rgb(87.843137%,62.352941%,0%);fill-opacity:1;" d="M 21.089844 4 L 9.488281 4 L 8.472656 2.691406 C 8.113281 2.253906 7.574219 2 7.007812 2 L 0.925781 2 C 0.382812 2.039062 -0.0234375 2.511719 0.0117188 3.054688 L 0.0117188 4 L 0.0195312 4 L 0.0195312 6.757812 C 0.015625 6.792969 0.0117188 6.828125 0.0078125 6.863281 L 0.0078125 8 L 22 8 L 22 4.953125 C 22.011719 4.441406 21.605469 4.015625 21.089844 4 Z M 21.089844 4 "/>
<path style=" stroke:none;fill-rule:nonzero;fill:url(#linear0);" d="M 0 8 L 21.996094 8 L 21.996094 17 L 0 17 Z M 0 8 "/>
<path style=" stroke:none;fill-rule:nonzero;fill:url(#linear1);" d="M 0 5 L 10.042969 5 L 10.042969 8 L 0 8 Z M 0 5 "/>
<path style=" stroke:none;fill-rule:nonzero;fill:url(#linear2);" d="M 22 16.921875 L 21.996094 16.921875 L 21.996094 5.914062 C 21.996094 5.410156 21.585938 5 21.082031 5 L 9.753906 5 C 9.308594 5.460938 8.761719 5.800781 8.152344 5.996094 L 8.128906 6 L 1.101562 6 C 0.808594 6 0.527344 6.113281 0.320312 6.316406 C 0.125 6.515625 0.0117188 6.785156 0.0078125 7.0625 L 0.0078125 7.769531 C 0.00390625 7.804688 0 7.84375 0 7.878906 L 0 19.074219 C 0 19.585938 0.414062 20 0.925781 20 L 21.066406 20 C 21.578125 20 21.996094 19.585938 21.996094 19.074219 L 21.996094 18.476562 C 21.996094 18.46875 22 18.460938 22 18.453125 Z M 22 16.921875 "/>
<use xlink:href="#surface5" mask="url(#mask0)"/>
<path style=" stroke:none;fill-rule:nonzero;fill:url(#linear4);" d="M 5.75 14 C 5.296875 13.988281 4.855469 14.15625 4.527344 14.46875 C 4.199219 14.78125 4.011719 15.214844 4 15.667969 L 4 20 L 18 20 L 18 15.667969 C 17.988281 15.214844 17.800781 14.78125 17.472656 14.46875 C 17.144531 14.15625 16.703125 13.988281 16.25 14 Z M 5.75 14 "/>
<path style=" stroke:none;fill-rule:nonzero;fill:rgb(6.666667%,29.019608%,54.509804%);fill-opacity:1;" d="M 7.398438 17 L 14.601562 17 C 14.847656 17.03125 15.023438 17.253906 15 17.5 C 15.023438 17.746094 14.847656 17.96875 14.601562 18 L 7.398438 18 C 7.152344 17.96875 6.976562 17.746094 7 17.5 C 6.976562 17.253906 7.152344 17.03125 7.398438 17 Z M 7.398438 17 "/>
</g>
</svg>
