<?xml version="1.0" encoding="UTF-8"?>
<svg xmlns="http://www.w3.org/2000/svg" xmlns:xlink="http://www.w3.org/1999/xlink" width="22px" height="22px" viewBox="0 0 22 22" version="1.1">
<defs>
<linearGradient id="linear0" gradientUnits="userSpaceOnUse" x1="-305.7542" y1="10.7915" x2="-284.087" y2="10.7915" gradientTransform="matrix(0.9231,0,0,-0.9231,283.2275,22.4611)">
<stop offset="0" style="stop-color:rgb(31.372549%,31.372549%,31.372549%);stop-opacity:1;"/>
<stop offset="1" style="stop-color:rgb(19.607843%,19.607843%,19.607843%);stop-opacity:1;"/>
</linearGradient>
<linearGradient id="linear1" gradientUnits="userSpaceOnUse" x1="-290.5871" y1="19.4584" x2="-284.087" y2="19.4584" gradientTransform="matrix(0.9231,0,0,-0.9231,283.2275,22.4611)">
<stop offset="0" style="stop-color:rgb(38.823529%,38.823529%,38.823529%);stop-opacity:1;"/>
<stop offset="1" style="stop-color:rgb(39.215686%,39.215686%,39.215686%);stop-opacity:1;"/>
</linearGradient>
<linearGradient id="linear2" gradientUnits="userSpaceOnUse" x1="-298.1707" y1="19.4584" x2="-290.5871" y2="19.4584" gradientTransform="matrix(0.9231,0,0,-0.9231,283.2275,22.4611)">
<stop offset="0" style="stop-color:rgb(59.607843%,59.607843%,59.607843%);stop-opacity:1;"/>
<stop offset="1" style="stop-color:rgb(60%,60%,60%);stop-opacity:1;"/>
</linearGradient>
<linearGradient id="linear3" gradientUnits="userSpaceOnUse" x1="-305.7542" y1="19.4584" x2="-298.1707" y2="19.4584" gradientTransform="matrix(0.9231,0,0,-0.9231,283.2275,22.4611)">
<stop offset="0" style="stop-color:rgb(80.784314%,80.784314%,80.784314%);stop-opacity:1;"/>
<stop offset="1" style="stop-color:rgb(81.568627%,81.568627%,81.568627%);stop-opacity:1;"/>
</linearGradient>
<linearGradient id="linear4" gradientUnits="userSpaceOnUse" x1="-135.5077" y1="216.4242" x2="-118.1548" y2="220.5182" gradientTransform="matrix(0.2346,-0.2346,-0.2346,-0.2346,86.9586,35.0865)">
<stop offset="0" style="stop-color:rgb(66.27451%,66.27451%,66.27451%);stop-opacity:1;"/>
<stop offset="1" style="stop-color:rgb(54.901961%,54.901961%,54.901961%);stop-opacity:1;"/>
</linearGradient>
<filter id="alpha" filterUnits="objectBoundingBox" x="0%" y="0%" width="100%" height="100%">
  <feColorMatrix type="matrix" in="SourceGraphic" values="0 0 0 0 1 0 0 0 0 1 0 0 0 0 1 0 0 0 1 0"/>
</filter>
<mask id="mask0">
  <g filter="url(#alpha)">
<rect x="0" y="0" width="22" height="22" style="fill:rgb(0%,0%,0%);fill-opacity:0.6;stroke:none;"/>
  </g>
</mask>
<clipPath id="clip1">
  <rect x="0" y="0" width="22" height="22"/>
</clipPath>
<g id="surface5" clip-path="url(#clip1)">
<path style=" stroke:none;fill-rule:nonzero;fill:rgb(0%,0%,0%);fill-opacity:1;" d="M 3.070312 9.179688 L 7.394531 13.28125 C 7.488281 13.371094 7.636719 13.371094 7.730469 13.28125 L 8.917969 12.15625 C 8.964844 12.113281 8.988281 12.054688 8.988281 11.996094 C 8.988281 11.933594 8.964844 11.875 8.917969 11.832031 L 4.597656 7.734375 C 4.5 7.644531 4.351562 7.644531 4.257812 7.734375 L 3.070312 8.859375 C 3.027344 8.898438 3 8.957031 3 9.019531 C 3 9.082031 3.027344 9.140625 3.070312 9.179688 Z M 3.070312 9.179688 "/>
</g>
<linearGradient id="linear5" gradientUnits="userSpaceOnUse" x1="-219.3944" y1="132.4428" x2="-202.0415" y2="136.5369" gradientTransform="matrix(0.234618,0.234618,-0.234618,0.234618,86.9259,28.2968)">
<stop offset="0" style="stop-color:rgb(89.803922%,89.803922%,89.803922%);stop-opacity:1;"/>
<stop offset="1" style="stop-color:rgb(80.784314%,80.784314%,80.784314%);stop-opacity:1;"/>
</linearGradient>
<mask id="mask1">
  <g filter="url(#alpha)">
<rect x="0" y="0" width="22" height="22" style="fill:rgb(0%,0%,0%);fill-opacity:0.6;stroke:none;"/>
  </g>
</mask>
<clipPath id="clip2">
  <rect x="0" y="0" width="22" height="22"/>
</clipPath>
<g id="surface8" clip-path="url(#clip2)">
<path style=" stroke:none;fill-rule:nonzero;fill:rgb(0%,0%,0%);fill-opacity:1;" d="M 13.21875 16.5 L 18.78125 16.5 C 18.839844 16.5 18.894531 16.476562 18.9375 16.433594 C 18.976562 16.390625 19 16.335938 19 16.277344 L 19 14.722656 C 19 14.664062 18.976562 14.609375 18.9375 14.566406 C 18.894531 14.523438 18.839844 14.5 18.78125 14.5 L 13.21875 14.5 C 13.160156 14.5 13.105469 14.523438 13.0625 14.566406 C 13.023438 14.609375 13 14.664062 13 14.722656 L 13 16.277344 C 13 16.335938 13.023438 16.390625 13.0625 16.433594 C 13.105469 16.476562 13.160156 16.5 13.21875 16.5 Z M 13.21875 16.5 "/>
</g>
<linearGradient id="linear6" gradientUnits="userSpaceOnUse" x1="-249.6156" y1="79.3592" x2="-233.1811" y2="83.2367" gradientTransform="matrix(0.3318,0,0,0.3318,95.9919,-11.9979)">
<stop offset="0" style="stop-color:rgb(89.803922%,89.803922%,89.803922%);stop-opacity:1;"/>
<stop offset="1" style="stop-color:rgb(80.784314%,80.784314%,80.784314%);stop-opacity:1;"/>
</linearGradient>
</defs>
<g id="surface1">
<path style=" stroke:none;fill-rule:nonzero;fill:url(#linear0);" d="M 21 6 L 1 6 L 1 18.070312 C 1 18.316406 1.09375 18.554688 1.269531 18.726562 C 1.441406 18.902344 1.675781 19 1.921875 19 L 20.078125 19 C 20.324219 19 20.558594 18.902344 20.730469 18.726562 C 20.90625 18.554688 21 18.316406 21 18.070312 Z M 21 6 "/>
<path style=" stroke:none;fill-rule:nonzero;fill:url(#linear1);" d="M 15 3 L 15 6 L 21 6 L 21 4.125 C 21 3.5 20.628906 3 20.167969 3 Z M 15 3 "/>
<path style=" stroke:none;fill-rule:nonzero;fill:url(#linear2);" d="M 8 3 L 8 6 L 15 6 L 15 3 Z M 8 3 "/>
<path style=" stroke:none;fill-rule:nonzero;fill:url(#linear3);" d="M 1 4.125 L 1 6 L 8 6 L 8 3 L 1.96875 3 C 1.390625 3.042969 0.957031 3.546875 1 4.125 Z M 1 4.125 "/>
<path style=" stroke:none;fill-rule:nonzero;fill:url(#linear4);" d="M 3.082031 14.820312 L 7.402344 10.71875 C 7.5 10.632812 7.648438 10.632812 7.742188 10.71875 L 8.929688 11.84375 C 8.976562 11.886719 9 11.945312 9 12.003906 C 9 12.066406 8.976562 12.125 8.929688 12.167969 L 4.605469 16.265625 C 4.511719 16.355469 4.363281 16.355469 4.269531 16.265625 L 3.082031 15.140625 C 3.039062 15.101562 3.011719 15.042969 3.011719 14.980469 C 3.011719 14.917969 3.039062 14.863281 3.082031 14.820312 Z M 3.082031 14.820312 "/>
<use xlink:href="#surface5" mask="url(#mask0)"/>
<path style=" stroke:none;fill-rule:nonzero;fill:url(#linear5);" d="M 3.070312 9.179688 L 7.390625 13.28125 C 7.488281 13.371094 7.636719 13.371094 7.730469 13.28125 L 8.917969 12.15625 C 8.960938 12.113281 8.988281 12.054688 8.988281 11.996094 C 8.988281 11.933594 8.960938 11.875 8.917969 11.832031 L 4.59375 7.734375 C 4.5 7.644531 4.351562 7.644531 4.257812 7.734375 L 3.070312 8.859375 C 3.023438 8.902344 3 8.957031 3 9.019531 C 3 9.082031 3.023438 9.140625 3.070312 9.179688 Z M 3.070312 9.179688 "/>
<use xlink:href="#surface8" mask="url(#mask1)"/>
<path style=" stroke:none;fill-rule:nonzero;fill:url(#linear6);" d="M 13.21875 16 L 18.78125 16 C 18.839844 16 18.894531 15.976562 18.9375 15.933594 C 18.976562 15.894531 19 15.835938 19 15.777344 L 19 14.222656 C 19 14.164062 18.976562 14.105469 18.9375 14.066406 C 18.894531 14.023438 18.839844 14 18.78125 14 L 13.21875 14 C 13.097656 14 13 14.101562 13 14.222656 L 13 15.777344 C 13 15.898438 13.097656 16 13.21875 16 Z M 13.21875 16 "/>
</g>
</svg>
