<svg height="32px" width="32px" id="Camada_1" data-name="Camada 1" xmlns="http://www.w3.org/2000/svg" xmlns:xlink="http://www.w3.org/1999/xlink" viewBox="0 0 32 32"><defs><style>.cls-1{fill:#e6a928;}.cls-2{fill:url(#Gradiente_sem_nome_2);}.cls-3{fill:url(#Gradiente_sem_nome_3);}.cls-4{fill:url(#Gradiente_sem_nome_4);}.cls-5{fill:url(#Gradiente_sem_nome_5);}.cls-6{fill:none;}.cls-7{opacity:0.25;fill:url(#Gradiente_sem_nome_6);}.cls-8{fill:url(#Gradiente_sem_nome_8);}</style><linearGradient id="Gradiente_sem_nome_2" x1="1" y1="14" x2="31" y2="14" gradientTransform="matrix(1, 0, 0, -1, 0, 33)" gradientUnits="userSpaceOnUse"><stop offset="0" stop-color="#febf18"/><stop offset="1" stop-color="#efb730"/></linearGradient><linearGradient id="Gradiente_sem_nome_3" x1="16" y1="19.3194" x2="16" y2="21.2341" xlink:href="#Gradiente_sem_nome_2"/><linearGradient id="Gradiente_sem_nome_4" x1="7.8457" y1="24" x2="7.8457" y2="21" gradientTransform="matrix(1, 0, 0, -1, 0, 33)" gradientUnits="userSpaceOnUse"><stop offset="0" stop-opacity="0"/><stop offset="1" stop-opacity="0.2"/></linearGradient><linearGradient id="Gradiente_sem_nome_5" x1="9.6179" y1="21.8367" x2="26.2247" y2="5.2299" gradientTransform="matrix(1, 0, 0, -1, 0, 33)" gradientUnits="userSpaceOnUse"><stop offset="0" stop-color="#ffe599"/><stop offset="1" stop-color="#ffc938"/></linearGradient><linearGradient id="Gradiente_sem_nome_6" x1="1" y1="22.3008" x2="31.0003" y2="22.3008" gradientTransform="matrix(1, 0, 0, -1, 0, 33)" gradientUnits="userSpaceOnUse"><stop offset="0.5196" stop-color="#fff"/><stop offset="1" stop-color="#fdbe18" stop-opacity="0"/></linearGradient><linearGradient id="Gradiente_sem_nome_8" x1="11.7574" y1="14.7574" x2="20.2426" y2="23.2426" gradientUnits="userSpaceOnUse"><stop offset="0" stop-color="#c68d00"/><stop offset="1" stop-color="#a67100"/></linearGradient></defs><path class="cls-1" d="M1,24H31v2.582A1.4154,1.4154,0,0,1,29.582,28H2.418A1.4154,1.4154,0,0,1,1,26.582Z"/><path class="cls-2" d="M1,13H31V25H1Z"/><path class="cls-3" d="M29.7578,7H13.9414L12.5586,5.0664a2.53,2.53,0,0,0-2-1.0664H2.2617a1.4738,1.4738,0,0,0-1.25,1.6211v6.23c-.0039.0586-.0117.1172-.0117.18V14H31V8.7266C31,7.82,30.4453,7.0078,29.7578,7Z"/><path class="cls-4" d="M1,9H14.6914v3H1Z"/><path class="cls-5" d="M30.6367,8.5078A1.1124,1.1124,0,0,0,29.7539,8H14.3008a5.3534,5.3534,0,0,1-2.18,2c-.0117.0039-.0234-.0039-.0352,0H2.5a1.4883,1.4883,0,0,0-1.0625.3164,1.4145,1.4145,0,0,0-.4258.9844v.93C1.0078,12.2773,1,12.3242,1,12.375V25.6914a1.3354,1.3354,0,0,0,.3633.9258A1.2266,1.2266,0,0,0,2.25,27h27.5a1.2114,1.2114,0,0,0,.8828-.3828A1.3391,1.3391,0,0,0,31,25.6914V9.7383A2.153,2.153,0,0,0,30.6367,8.5078Z"/><rect class="cls-6" width="32" height="32"/><path class="cls-7" d="M30.6367,8.5117A1.1064,1.1064,0,0,0,29.7539,8H14.3008a5.3571,5.3571,0,0,1-2.18,2.0117.1066.1066,0,0,0-.0352,0H2.5a1.4536,1.4536,0,0,0-1.0625.3164,1.4309,1.4309,0,0,0-.4258.9883v.9375c-.0039.0469-.0117.0938-.0117.1406v1.0039c0-.0468.0078-.0937.0117-.1406V12.32a1.4147,1.4147,0,0,1,.4258-.9844,1.4569,1.4569,0,0,1,1.0625-.32h9.5859a.1066.1066,0,0,1,.0352,0,5.3571,5.3571,0,0,0,2.18-2.0117H29.7539a1.1064,1.1064,0,0,1,.8828.5117A2.1653,2.1653,0,0,1,31,10.75V9.7461A2.1566,2.1566,0,0,0,30.6367,8.5117Z"/><path class="cls-8" d="M16,13a6,6,0,1,0,6,6A6,6,0,0,0,16,13Zm0,2a4,4,0,1,1-4,4A4,4,0,0,1,16,15Zm-1,1v4h4V18H17V16Z"/></svg>