<svg xmlns="http://www.w3.org/2000/svg" xmlns:xlink="http://www.w3.org/1999/xlink" width="32" height="32">
  <defs>
    <path id="a" fill-opacity=".69" d="M0 0h32v32H0z"/>
  </defs>
  <defs>
    <clipPath id="c">
      <use xlink:href="#a"/>
    </clipPath>
    <clipPath id="d">
      <use xlink:href="#a"/>
    </clipPath>
    <clipPath id="e">
      <use xlink:href="#a"/>
    </clipPath>
    <clipPath id="f">
      <use xlink:href="#a"/>
    </clipPath>
    <clipPath id="g">
      <use xlink:href="#a"/>
    </clipPath>
    <clipPath id="h">
      <use xlink:href="#a"/>
    </clipPath>
    <mask id="j">
      <g filter="url(#b)">
        <use xlink:href="#a" fill-opacity=".69"/>
      </g>
    </mask>
    <mask id="l">
      <g filter="url(#b)">
        <use xlink:href="#a" fill-opacity=".651"/>
      </g>
    </mask>
    <mask id="n">
      <g filter="url(#b)">
        <use xlink:href="#a" fill-opacity=".651"/>
      </g>
    </mask>
    <mask id="p">
      <g filter="url(#b)">
        <use xlink:href="#a" fill-opacity=".651"/>
      </g>
    </mask>
    <mask id="r">
      <g filter="url(#b)">
        <use xlink:href="#a" fill-opacity=".651"/>
      </g>
    </mask>
    <mask id="t">
      <g filter="url(#b)">
        <use xlink:href="#a" fill-opacity=".651"/>
      </g>
    </mask>
    <g id="i" clip-path="url(#c)">
      <path d="M23 26H9l-2 2h18Zm0 0"/>
    </g>
    <g id="k" clip-path="url(#d)">
      <path fill="#808384" d="M7 28h18v2H7Zm0 0"/>
    </g>
    <g id="m" clip-path="url(#e)">
      <path fill="#b3b8bb" d="M23 26H9L7 2h18Zm0 0"/>
    </g>
    <g id="o" clip-path="url(#f)">
      <path fill="#c7cccf" d="m25 28-2-2 2-24 3 3Zm0 0"/>
    </g>
    <g id="q" clip-path="url(#g)">
      <path fill="#c7cccf" d="m7 28 2-2L7 2 4 5Zm0 0"/>
    </g>
    <g id="s" clip-path="url(#h)">
      <path fill="#f5fbff" d="M25 28H7L4 5h24Zm0 0"/>
    </g>
    <filter id="b" width="100%" height="100%" x="0%" y="0%" filterUnits="objectBoundingBox">
      <feColorMatrix in="SourceGraphic" values="0 0 0 0 1 0 0 0 0 1 0 0 0 0 1 0 0 0 1 0"/>
    </filter>
  </defs>
  <use xlink:href="#i" mask="url(#j)"/>
  <use xlink:href="#k" mask="url(#l)"/>
  <use xlink:href="#m" mask="url(#n)"/>
  <use xlink:href="#o" mask="url(#p)"/>
  <use xlink:href="#q" mask="url(#r)"/>
  <use xlink:href="#s" mask="url(#t)"/>
  <path fill="#0068ba" d="M11 19h3v3h-3Zm0 0"/>
  <path fill="#0091e6" d="m13.516 14.21-4.141.93 5.07 3.212Zm0 0"/>
  <path fill="#0091e6" d="m8.648 18.191 1.582-2.546 3.399 2.105L10.996 22Zm0 0"/>
  <path fill="#0068ba" d="m18.852 18.035 1.582 2.547L23 19l-1.602-2.55Zm0 0"/>
  <path fill="#0091e6" d="M18.004 18.996 18 19v-1l-3 2.992L18 24v-1.004l2.996.004 1.992-3.996Zm0 0"/>
  <path fill="#0068ba" d="m14.91 13.133 1.59-2.543L14 9l-1.633 2.543Zm0 0"/>
  <path fill="#0091e6" d="m19.227 15.258 1.406-4-5.406 2.594Zm0 0"/>
  <path fill="#0091e6" d="m18.613 9.027 1.145 2.692-3.594 1.765L14 9Zm0 0"/>
</svg>
