<svg width="16px" height="16px" id="Camada_1" data-name="Camada 1" xmlns="http://www.w3.org/2000/svg" xmlns:xlink="http://www.w3.org/1999/xlink" viewBox="0 0 16 16"><defs><style>.cls-1{fill:url(#Gradiente_sem_nome_201);}.cls-2{fill:url(#Gradiente_sem_nome_106);}.cls-3{fill:url(#Gradiente_sem_nome_228);}.cls-4{fill:url(#Gradiente_sem_nome_2);}</style><linearGradient id="Gradiente_sem_nome_201" x1="2.2003" y1="3.2575" x2="13.7997" y2="14.8569" gradientUnits="userSpaceOnUse"><stop offset="0" stop-color="#96643e"/><stop offset="1" stop-color="#874e23"/></linearGradient><linearGradient id="Gradiente_sem_nome_106" x1="2.7939" y1="2.7025" x2="13.2061" y2="13.1147" gradientUnits="userSpaceOnUse"><stop offset="0" stop-color="#db9b69"/><stop offset="1" stop-color="#ab6d33"/></linearGradient><linearGradient id="Gradiente_sem_nome_228" x1="6.1129" y1="1.3387" x2="9.8871" y2="5.1129" gradientUnits="userSpaceOnUse"><stop offset="0" stop-color="#946744"/><stop offset="1" stop-color="#754622"/></linearGradient><linearGradient id="Gradiente_sem_nome_2" x1="7.3964" y1="9.8964" x2="8.6036" y2="11.1036" gradientUnits="userSpaceOnUse"><stop offset="0" stop-color="#fff"/><stop offset="1" stop-color="#dedede"/></linearGradient></defs><path class="cls-1" d="M14.2184,4H1.7816A.7816.7816,0,0,0,1,4.7816v8.6322A.5863.5863,0,0,0,1.5862,14H14.4138A.5863.5863,0,0,0,15,13.4138V4.7816A.7816.7816,0,0,0,14.2184,4Z"/><path class="cls-2" d="M13.8406,12H2.1594A1.1594,1.1594,0,0,1,1,10.8406V4.8473A.8472.8472,0,0,1,1.8473,4H14.1527A.8472.8472,0,0,1,15,4.8473v5.9933A1.1594,1.1594,0,0,1,13.8406,12Z"/><path class="cls-3" d="M5.7708,2A.7708.7708,0,0,0,5,2.7708V4H6V3h4V4h1V2.7708A.7708.7708,0,0,0,10.2292,2Z"/><rect class="cls-4" x="7" y="10" width="2" height="1" rx="0.5"/></svg>