<?xml version="1.0" encoding="UTF-8" standalone="no"?>
<!-- Created with Inkscape (http://www.inkscape.org/) -->

<svg
   width="22"
   height="22"
   viewBox="0 0 5.8208332 5.8208336"
   version="1.1"
   id="svg5"
   inkscape:version="1.1.1 (3bf5ae0d25, 2021-09-20, custom)"
   sodipodi:docname="preferences-desktop-color.svg"
   xmlns:inkscape="http://www.inkscape.org/namespaces/inkscape"
   xmlns:sodipodi="http://sodipodi.sourceforge.net/DTD/sodipodi-0.dtd"
   xmlns="http://www.w3.org/2000/svg"
   xmlns:svg="http://www.w3.org/2000/svg">
  <sodipodi:namedview
     id="namedview7"
     pagecolor="#ffffff"
     bordercolor="#666666"
     borderopacity="1.0"
     inkscape:pageshadow="2"
     inkscape:pageopacity="0.0"
     inkscape:pagecheckerboard="0"
     inkscape:document-units="px"
     showgrid="false"
     units="px"
     height="64px"
     inkscape:zoom="6.0390625"
     inkscape:cx="30.385511"
     inkscape:cy="22.023286"
     inkscape:window-width="1920"
     inkscape:window-height="1004"
     inkscape:window-x="0"
     inkscape:window-y="0"
     inkscape:window-maximized="1"
     inkscape:current-layer="svg5" />
  <defs
     id="defs2">
    <linearGradient
       id="linearGradient45680"
       x1="-102.06"
       x2="-102.06"
       y1="1.3231"
       y2="19.157"
       gradientTransform="matrix(0.30598649,0,0,0.29630133,34.558572,-0.12744273)"
       gradientUnits="userSpaceOnUse">
      <stop
         stop-color="#ffdc23"
         offset="0"
         id="stop22" />
      <stop
         stop-color="#e6628a"
         offset=".31552"
         id="stop24" />
      <stop
         stop-color="#7b5fc1"
         offset=".55428"
         id="stop26" />
      <stop
         stop-color="#1e9be1"
         offset=".79721"
         id="stop28" />
      <stop
         stop-color="#0082dc"
         offset="1"
         id="stop30" />
    </linearGradient>
    <linearGradient
       id="linearGradient1954"
       x1="-109.09"
       x2="-101.26"
       y1="11.122"
       y2="18.440001"
       gradientTransform="matrix(0.30598649,0,0,0.29630133,34.558572,-0.12744606)"
       gradientUnits="userSpaceOnUse">
      <stop
         stop-color="#64d2eb"
         offset="0"
         id="stop2" />
      <stop
         stop-color="#0082dc"
         offset="1"
         id="stop4" />
    </linearGradient>
    <linearGradient
       id="linearGradient1431"
       x1="-107.04"
       x2="-99.660004"
       y1="6.9531002"
       y2="17.895"
       gradientTransform="matrix(0.30598649,0,0,0.29630133,34.558572,-0.1274594)"
       gradientUnits="userSpaceOnUse">
      <stop
         stop-color="#a578e1"
         offset="0"
         id="stop7" />
      <stop
         stop-color="#5046a0"
         offset="1"
         id="stop9" />
    </linearGradient>
    <linearGradient
       id="linearGradient1439"
       x1="-105"
       x2="-97.016998"
       y1="4.2921"
       y2="13.799"
       gradientTransform="matrix(0.30598649,0,0,0.29630133,34.558572,-0.12735273)"
       gradientUnits="userSpaceOnUse">
      <stop
         stop-color="#eb82aa"
         offset="0"
         id="stop12" />
      <stop
         stop-color="#dc2850"
         offset="1"
         id="stop14" />
    </linearGradient>
    <linearGradient
       id="linearGradient1447"
       x1="-102.1"
       x2="-98.566002"
       y1="1.4752001"
       y2="7.8610001"
       gradientTransform="matrix(0.30598649,0,0,0.29630133,34.555129,-0.12739273)"
       gradientUnits="userSpaceOnUse">
      <stop
         stop-color="#ffdc23"
         offset="0"
         id="stop17" />
      <stop
         stop-color="#f0a019"
         offset="1"
         id="stop19" />
    </linearGradient>
  </defs>
  <path
     d="M 3.3306976,0.26458679 C 3.2695856,0.26412009 3.2184531,0.31109419 3.2184531,0.31109419 2.9538263,0.53436099 2.7312926,0.74653436 2.527196,0.95257096 v 1.722e-4 C 2.2807173,1.2015171 2.086817,1.4315841 1.9156292,1.6520875 1.5084688,2.1765625 1.3153534,2.5953024 1.2019625,2.9271076 h -1.778e-4 c 1.48e-5,5.47e-5 -1.33e-5,1.173e-4 0,1.723e-4 2.2e-5,5.68e-5 -1.93e-5,1.154e-4 0,1.722e-4 -0.1501826,0.4396736 -0.1433736,0.7100444 -0.1433736,0.7100444 -3.1e-6,1.05965 0.8870231,1.9187635 1.9812753,1.9187303 0.1738039,0 0.3398557,-0.02765 0.4998627,-0.068728 C 4.0806853,5.3485768 4.5305653,4.9962915 4.7865035,4.525284 V 4.5249508 C 4.9313092,4.2584365 5.0211339,3.959575 5.0211339,3.6375032 h 0.00409 c 0,0 0.045873,-0.4740407 -0.323749,-1.0974172 C 4.6458632,2.4703549 4.5483828,2.3374028 4.4764482,2.2470814 4.421436,2.2357778 4.3674567,2.2243546 4.3142174,2.2128042 4.3673396,2.2243289 4.4213878,2.2356335 4.4762692,2.2469114 4.0168542,1.8451717 3.5165784,1.6044679 3.4048743,0.50285059 3.386086,0.36984179 3.427189,0.26462349 3.3306952,0.26462349 Z M 2.8644665,1.6445085 c 0.00903,0.00698 0.018298,0.013874 0.02775,0.020843 0.00945,0.00697 0.019114,0.014064 0.028995,0.021015 -0.00988,-0.00695 -0.019543,-0.013874 -0.028995,-0.020843 -0.00945,-0.00697 -0.018718,-0.014031 -0.02775,-0.021015 z m 0.3509814,0.2127334 c 0.022844,0.011142 0.04622,0.022217 0.070441,0.033245 -0.024261,-0.011046 -0.047563,-0.022083 -0.070441,-0.033245 z m 0.1608091,0.072691 c 0.026652,0.011181 0.054176,0.022214 0.082362,0.033245 C 3.430474,1.9521639 3.40287,1.9410969 3.376257,1.9299329 Z m -1.451361,0.075275 c 0.00432,0.019455 0.00944,0.038997 0.01512,0.058394 -0.0057,-0.019452 -0.010792,-0.038884 -0.01512,-0.058394 z m 2.2698125,0.1806962 c 0.019732,0.00455 0.039621,0.00911 0.05977,0.013608 -0.020157,-0.0045 -0.040024,-0.00906 -0.05977,-0.013608 z M 2.4590789,2.7023119 c 0.025709,0.01701 0.052589,0.033827 0.080403,0.050471 -0.027818,-0.016644 -0.054695,-0.033461 -0.080403,-0.050471 z m 0.1670329,0.099908 c 0.029984,0.016254 0.061005,0.032225 0.093212,0.048057 -0.032206,-0.015835 -0.063229,-0.031804 -0.093212,-0.048057 z M 3.04057,2.986703 C 3.07983,3.001136 3.120329,3.015331 3.162064,3.02925 3.120329,3.015332 3.07983,3.001136 3.04057,2.986703 Z M 3.2255684,3.049921 C 3.2685634,3.063572 3.3127214,3.07696 3.3582707,3.090055 3.3127217,3.076959 3.2685637,3.063571 3.2255684,3.049921 Z m 0.2734081,0.078548 c 0.024079,0.00626 0.048368,0.012325 0.073112,0.018431 0.024744,0.00611 0.049057,0.012504 0.072933,0.018948 C 3.6211495,3.159408 3.5968255,3.153179 3.5720885,3.147072 3.5473465,3.140962 3.5230555,3.134726 3.4989765,3.128469 Z m 0.5861277,0.196196 c 0.036245,0.017259 0.070916,0.035001 0.1040622,0.053397 -0.03315,-0.018398 -0.067814,-0.03614 -0.1040622,-0.053397 z m 0.3977629,0.2661343 c 0.022964,0.022007 0.044506,0.044427 0.064751,0.067351 -0.020243,-0.022925 -0.041787,-0.045348 -0.064751,-0.067351 z m 0.1469332,0.1734593 c 0.016325,0.024218 0.031364,0.048874 0.045184,0.073898 -0.013821,-0.025025 -0.028857,-0.049678 -0.045184,-0.073898 z M 3.7590592,5.3255833 c -0.021975,0.019771 -0.044919,0.039194 -0.068485,0.058051 0.023568,-0.018857 0.04651,-0.03828 0.068485,-0.058051 z m -0.1042411,0.085955 c -0.012089,0.00918 -0.024311,0.018286 -0.036644,0.027218 -0.00644,0.00466 -0.012879,0.00883 -0.019389,0.012921 0.00651,-0.00409 0.012954,-0.00843 0.019389,-0.013089 0.012332,-0.00893 0.024553,-0.017861 0.036644,-0.027043 z"
     fill="url(#linearGradient45680)"
     id="path35"
     style="fill:url(#linearGradient45680);stroke-width:0.301105" />
  <path
     d="M 1.2019522,2.9271421 C 1.0516423,3.3670157 1.0583789,3.6375865 1.0583789,3.6375865 c -3e-6,1.05965 0.8871264,1.9186971 1.9813787,1.9186635 0.1738039,0 0.3398281,-0.027671 0.4998283,-0.068747 0.026406,-0.017479 0.052843,-0.030207 0.078582,-0.048841 0.098668,-0.071441 0.1904993,-0.151189 0.25979,-0.2365636 0.034646,-0.042684 0.063601,-0.086741 0.085067,-0.1319854 0.021468,-0.045241 0.035454,-0.091541 0.039845,-0.1387221 0.00439,-0.047181 -8.21e-4,-0.095272 -0.017392,-0.1437762 C 3.9689096,4.739114 3.9408821,4.6901333 3.8994603,4.6409325 3.8580371,4.5917315 3.8032831,4.5423143 3.7331146,4.4930232 3.6629492,4.4437325 3.5773966,4.3946386 3.474591,4.3458811 3.3717854,4.2971204 3.2516717,4.2486429 3.1123187,4.2010354 2.9729864,4.1534247 2.8143907,4.1066207 2.6346591,4.06078 2.4549068,4.0149393 2.2950753,3.961305 2.1531785,3.9009275 2.0112713,3.8405497 1.8873056,3.7733986 1.7796842,3.7008043 1.6720766,3.6282132 1.5807787,3.5500954 1.5039215,3.4676107 1.4270677,3.3851226 1.3646236,3.2982979 1.3149678,3.2082332 1.265312,3.1181684 1.2283894,3.0248803 1.2023894,2.9295654 c -2.203e-4,-8e-4 -2.571e-4,-0.00163 -6.179e-4,-0.00247 z"
     fill="url(#linearGradient1954)"
     id="path37"
     style="fill:url(#linearGradient1954);stroke-width:0.301105" />
  <path
     d="m 1.2017457,2.9271421 c 2.172e-4,8e-4 2.54e-4,0.00163 6.178e-4,0.00247 0.02601,0.095318 0.062923,0.1886063 0.1125785,0.2786677 0.049656,0.090062 0.1120964,0.1768895 0.1889537,0.2593774 0.076857,0.082488 0.168155,0.1606025 0.2757627,0.2331936 0.1076076,0.072591 0.2315699,0.1397457 0.3734943,0.2001232 0.1419037,0.060378 0.3017214,0.1140118 0.4814806,0.1598525 0.1797557,0.045841 0.3383582,0.092645 0.4776596,0.1402557 0.1393323,0.047611 0.259446,0.096088 0.3622722,0.1448454 0.1028056,0.048761 0.188358,0.097855 0.2585234,0.1471425 0.070169,0.049291 0.1249229,0.098705 0.1663443,0.1479089 0.041422,0.049204 0.069449,0.098181 0.086018,0.1466822 0.016568,0.048501 0.021789,0.096595 0.017389,0.1437757 -0.00439,0.047181 -0.018379,0.093481 -0.039845,0.1387221 -0.021468,0.045241 -0.05042,0.089298 -0.085067,0.1319854 -0.069294,0.085371 -0.1611222,0.1651228 -0.25979,0.2365639 -0.025736,0.018636 -0.052179,0.031368 -0.078582,0.048841 0.5411363,-0.1389221 0.990982,-0.4913078 1.2469202,-0.962315 9.643e-4,-0.00792 0.00437,-0.0163 0.00522,-0.024193 C 4.8044539,4.3822672 4.8029717,4.2665954 4.7844182,4.1556004 4.7658646,4.044605 4.7302803,3.9382936 4.6749996,3.8382018 4.619721,3.7381015 4.5447332,3.6442668 4.4473114,3.5581554 4.3498896,3.4720372 4.2300306,3.3936894 4.0850389,3.324655 3.9400681,3.2556206 3.7700267,3.1958963 3.5721298,3.1470389 3.374195,3.0981814 3.1975684,3.0444606 3.0405286,2.9867297 2.8834958,2.9289988 2.7460327,2.8672444 2.6261049,2.8022268 2.5061702,2.7372091 2.4037811,2.6689913 2.3171511,2.5982769 2.2305107,2.5275658 2.1595778,2.4544479 2.1024246,2.3796301 2.0452713,2.3048156 2.0018634,2.2282077 1.9703935,2.1508765 1.938927,2.0735453 1.9194193,1.9954774 1.9098323,1.9172228 c -0.00958,-0.078254 -0.00912,-0.1566791 -6.196e-4,-0.2342637 0.00124,-0.010393 0.00489,-0.020414 0.00633,-0.030777 C 1.5083823,2.176657 1.3153357,2.5953636 1.2019449,2.9271688 Z"
     fill="url(#linearGradient1431)"
     id="path39"
     style="fill:url(#linearGradient1431);stroke-width:0.301105" />
  <path
     d="m 1.9155501,1.6521553 c -0.00151,0.010364 -0.0052,0.020384 -0.00633,0.030777 -0.00847,0.077588 -0.00896,0.1560124 6.179e-4,0.2342637 0.00958,0.078254 0.029098,0.1563224 0.060561,0.2336536 0.031466,0.077331 0.074878,0.1539391 0.132031,0.2287536 0.057153,0.074815 0.1280862,0.1479357 0.2147265,0.2186468 0.086644,0.070711 0.1890329,0.1389289 0.3089538,0.2039499 0.1199347,0.065018 0.2573979,0.1267687 0.4144238,0.1845029 0.1570328,0.057731 0.3336767,0.1114551 0.5316011,0.1603092 0.197935,0.048857 0.3679864,0.1085784 0.5129435,0.1776161 0.1449779,0.069034 0.26483,0.1473824 0.3622725,0.2335003 0.097418,0.086118 0.1724097,0.1799496 0.2276936,0.2800479 0.055284,0.1000982 0.090864,0.2064232 0.1094186,0.3173982 0.018554,0.110985 0.020032,0.2266571 0.00727,0.3454389 -8.572e-4,0.00789 -0.00424,0.016275 -0.00522,0.024193 C 4.9313671,4.258659 5.0211639,3.9597311 5.0211639,3.6375925 h 0.00411 c 0,0 0.045797,-0.4741408 -0.323825,-1.0975172 C 4.6458414,2.4703449 4.5483785,2.3373328 4.4764471,2.2470114 4.3023782,2.2112441 4.1347842,2.1745035 3.9888049,2.1350829 3.8152417,2.0882155 3.6606942,2.0390681 3.5234688,1.9880939 3.3862329,1.9371198 3.2662741,1.8843223 3.1617129,1.8303848 3.0571276,1.7764473 2.9678917,1.7212331 2.8922772,1.6654822 2.8166592,1.6097313 2.7546007,1.5534738 2.7042736,1.4970562 2.6539431,1.4406387 2.6153579,1.3841078 2.5866315,1.3281702 2.5578983,1.2722326 2.5390893,1.2168118 2.5282872,1.1624976 2.5174852,1.1081868 2.5147313,1.0549493 2.5181599,1.0034118 c 0.00124,-0.01758 0.00664,-0.033667 0.00918,-0.050834 C 2.2807793,1.2014215 2.0867895,1.4315852 1.9155673,1.6521553 Z"
     fill="url(#linearGradient1439)"
     id="path41"
     style="fill:url(#linearGradient1439);stroke-width:0.301105" />
  <path
     d="m 2.5272545,0.95254426 c -0.00244,0.01717 -0.00802,0.03325 -0.00918,0.050834 -0.00344,0.051538 -6.178e-4,0.104775 0.010128,0.1590859 0.010802,0.054311 0.029618,0.1097317 0.058344,0.1656692 0.028733,0.055938 0.067311,0.1124685 0.117642,0.168886 0.050327,0.056418 0.1123856,0.1126752 0.1880036,0.168426 0.075614,0.055751 0.1648504,0.1109684 0.2694357,0.1649026 0.1045818,0.053938 0.2245406,0.1067317 0.3617558,0.1577092 0.1372258,0.050977 0.2917801,0.1001215 0.4653362,0.146989 0.1459725,0.039417 0.3135732,0.076161 0.4876421,0.1119284 C 4.016946,1.845235 3.5164981,1.6044646 3.404794,0.50284719 3.3860057,0.36983849 3.4271314,0.26460009 3.330639,0.26460009 3.2695271,0.26413349 3.2185322,0.31114749 3.2185322,0.31114749 2.9539055,0.53441439 2.7313373,0.74652096 2.5272408,0.95255756 Z"
     fill="url(#linearGradient1447)"
     id="path43"
     style="fill:url(#linearGradient1447);stroke-width:0.301105" />
</svg>
