<?xml version="1.0" encoding="UTF-8" standalone="no"?>
<!-- Created with Inkscape (http://www.inkscape.org/) -->

<svg
   width="64"
   height="64"
   viewBox="0 0 64 64"
   version="1.1"
   id="svg5"
   inkscape:version="1.2.1 (9c6d41e410, 2022-07-14, custom)"
   sodipodi:docname="drive-removable-media.svg"
   xmlns:inkscape="http://www.inkscape.org/namespaces/inkscape"
   xmlns:sodipodi="http://sodipodi.sourceforge.net/DTD/sodipodi-0.dtd"
   xmlns:xlink="http://www.w3.org/1999/xlink"
   xmlns="http://www.w3.org/2000/svg"
   xmlns:svg="http://www.w3.org/2000/svg">
  <sodipodi:namedview
     id="namedview7"
     pagecolor="#ffffff"
     bordercolor="#000000"
     borderopacity="0.25"
     inkscape:showpageshadow="2"
     inkscape:pageopacity="0.0"
     inkscape:pagecheckerboard="0"
     inkscape:deskcolor="#d1d1d1"
     inkscape:document-units="px"
     showgrid="false"
     inkscape:zoom="12.65625"
     inkscape:cx="31.960494"
     inkscape:cy="32"
     inkscape:window-width="1920"
     inkscape:window-height="1012"
     inkscape:window-x="0"
     inkscape:window-y="0"
     inkscape:window-maximized="1"
     inkscape:current-layer="svg5" />
  <defs
     id="defs2">
    <linearGradient
       inkscape:collect="always"
       id="linearGradient8177">
      <stop
         style="stop-color:#c7c7c7;stop-opacity:1;"
         offset="0"
         id="stop8173" />
      <stop
         style="stop-color:#9c9c9c;stop-opacity:0.99993521;"
         offset="1"
         id="stop8175" />
    </linearGradient>
    <linearGradient
       inkscape:collect="always"
       id="linearGradient6593">
      <stop
         style="stop-color:#979797;stop-opacity:1;"
         offset="0"
         id="stop6589" />
      <stop
         style="stop-color:#707070;stop-opacity:1;"
         offset="1"
         id="stop6591" />
    </linearGradient>
    <linearGradient
       inkscape:collect="always"
       id="linearGradient1686">
      <stop
         style="stop-color:#aab1b4;stop-opacity:1;"
         offset="0"
         id="stop1682" />
      <stop
         style="stop-color:#6f767b;stop-opacity:1;"
         offset="0.1193407"
         id="stop4200" />
      <stop
         style="stop-color:#6f767b;stop-opacity:1;"
         offset="0.89999998"
         id="stop4202" />
      <stop
         style="stop-color:#51565a;stop-opacity:1;"
         offset="1"
         id="stop1684" />
    </linearGradient>
    <linearGradient
       inkscape:collect="always"
       xlink:href="#linearGradient1686"
       id="linearGradient3472"
       x1="16"
       y1="8"
       x2="16"
       y2="30"
       gradientUnits="userSpaceOnUse"
       gradientTransform="scale(2)" />
    <linearGradient
       inkscape:collect="always"
       xlink:href="#linearGradient6593"
       id="linearGradient6595"
       x1="16"
       y1="2"
       x2="16"
       y2="4"
       gradientUnits="userSpaceOnUse"
       gradientTransform="scale(2)" />
    <linearGradient
       inkscape:collect="always"
       xlink:href="#linearGradient8177"
       id="linearGradient8179"
       x1="13"
       y1="2"
       x2="13"
       y2="4"
       gradientUnits="userSpaceOnUse"
       gradientTransform="scale(2)" />
    <linearGradient
       inkscape:collect="always"
       xlink:href="#linearGradient8177"
       id="linearGradient8187"
       x1="19"
       y1="2"
       x2="19"
       y2="4"
       gradientUnits="userSpaceOnUse"
       gradientTransform="scale(2)" />
    <linearGradient
       inkscape:collect="always"
       id="linearGradient1116">
      <stop
         style="stop-color:#555a5f;stop-opacity:1;"
         offset="0"
         id="stop1112" />
      <stop
         style="stop-color:#4b4f53;stop-opacity:1"
         offset="1"
         id="stop1114" />
    </linearGradient>
    <linearGradient
       inkscape:collect="always"
       xlink:href="#linearGradient1116"
       id="linearGradient11308"
       x1="13"
       y1="5"
       x2="15"
       y2="7"
       gradientUnits="userSpaceOnUse"
       gradientTransform="scale(2)" />
    <linearGradient
       inkscape:collect="always"
       xlink:href="#linearGradient1116"
       id="linearGradient11310"
       x1="17"
       y1="5"
       x2="19"
       y2="7"
       gradientUnits="userSpaceOnUse"
       gradientTransform="scale(2)" />
  </defs>
  <path
     id="rect234"
     style="fill:url(#linearGradient8179);fill-opacity:1;stroke-width:0.569518"
     d="m 24,6 2,-2 v 14 l -2,2 z"
     sodipodi:nodetypes="ccccc" />
  <path
     id="rect236"
     style="fill:url(#linearGradient3472);fill-opacity:1;stroke-width:0.824354"
     d="m 22,16 c -0.466682,0 -0.696696,0.202132 -1,0.5 L 18.5,19 c -0.33334,0.333333 -0.499158,0.601867 -0.5,1 v 36 c 0,2.215996 1.784004,4 4,4 h 20 c 2.215996,0 4,-1.784004 4,-4 V 20 c -8.42e-4,-0.398132 -0.16666,-0.666666 -0.5,-1 L 43,16.5 C 42.696696,16.202132 42.466682,16 42,16 Z"
     sodipodi:nodetypes="ccccsccsccccc" />
  <rect
     style="fill:url(#linearGradient6595);fill-opacity:1;stroke-width:2"
     id="rect486"
     width="12"
     height="12"
     x="26"
     y="4" />
  <path
     id="rect490"
     style="fill:url(#linearGradient8187);fill-opacity:1;stroke-width:1.5833"
     d="m 38,4 2,2 v 14 l -2,-2 z"
     sodipodi:nodetypes="ccccc" />
  <rect
     style="fill:#c2cbd3;fill-opacity:1;stroke-width:2"
     id="rect488"
     width="16"
     height="14"
     x="24"
     y="6" />
  <rect
     style="fill:url(#linearGradient11308);fill-opacity:1;stroke-width:0.623434"
     id="rect238"
     width="4"
     height="4"
     x="26"
     y="10" />
  <rect
     style="fill:url(#linearGradient11310);fill-opacity:1;stroke-width:0.486448"
     id="rect240"
     width="4"
     height="4"
     x="34"
     y="10" />
  <path
     d="m 32,56.00025 c 1.65686,0 3,-1.34314 3,-3 0,-1.31168 -0.82718,-2.40482 -2,-2.8125 V 47.375 L 38.6875,41.6875 39,41.4375 V 41 38 h 2 v -6 h -6 v 6 h 2 v 2.625 l -4,4 V 30 h 3 l -4,-6 -4,6 h 3 V 47.125 L 27,44.5 v -2.6875 c 1.17282,-0.40768 2,-1.500818 2,-2.8125 0,-1.65686 -1.34314,-3 -3,-3 -1.65686,0 -3,1.34314 -3,3 0,1.311682 0.82718,2.40482 2,2.8125 V 45 45.5625 l 0.4375,0.25 L 31,49.5 v 0.68775 c -1.17282,0.40768 -2,1.50082 -2,2.8125 0,1.65686 1.34314,3 3,3 z"
     style="color:#bebebe;display:inline;overflow:visible;visibility:visible;opacity:0.4;fill:#000000;fill-opacity:1;fill-rule:nonzero;stroke:none;stroke-width:8;marker:none;enable-background:accumulate"
     id="path8511"
     sodipodi:nodetypes="sscccccccccccccccccccccsssccccccss" />
</svg>
