<?xml version="1.0" encoding="UTF-8"?>
<svg xmlns="http://www.w3.org/2000/svg" xmlns:xlink="http://www.w3.org/1999/xlink" width="22px" height="22px" viewBox="0 0 22 22" version="1.1">
<defs>
<linearGradient id="linear0" gradientUnits="userSpaceOnUse" x1="11.9723" y1="3.147" x2="19.8541" y2="11.0287" >
<stop offset="0" style="stop-color:rgb(34.901961%,85.490196%,100%);stop-opacity:1;"/>
<stop offset="1" style="stop-color:rgb(18.431373%,72.54902%,100%);stop-opacity:1;"/>
</linearGradient>
<linearGradient id="linear1" gradientUnits="userSpaceOnUse" x1="3.2332" y1="3.2332" x2="10.9403" y2="10.9403" >
<stop offset="0" style="stop-color:rgb(46.27451%,94.901961%,100%);stop-opacity:1;"/>
<stop offset="1" style="stop-color:rgb(30.980392%,82.352941%,100%);stop-opacity:1;"/>
</linearGradient>
<linearGradient id="linear2" gradientUnits="userSpaceOnUse" x1="3.1457" y1="11.9706" x2="11.029" y2="19.8539" >
<stop offset="0" style="stop-color:rgb(29.411765%,81.568627%,100%);stop-opacity:1;"/>
<stop offset="1" style="stop-color:rgb(12.941176%,68.235294%,100%);stop-opacity:1;"/>
</linearGradient>
<linearGradient id="linear3" gradientUnits="userSpaceOnUse" x1="12.059" y1="12.0599" x2="19.7663" y2="19.7672" >
<stop offset="0" style="stop-color:rgb(22.745098%,76.078431%,99.215686%);stop-opacity:1;"/>
<stop offset="1" style="stop-color:rgb(5.490196%,54.509804%,87.843137%);stop-opacity:1;"/>
</linearGradient>
</defs>
<g id="surface1">
<path style=" stroke:none;fill-rule:nonzero;fill:url(#linear0);" d="M 12.203125 3 L 19.203125 3 C 19.644531 3 20 3.355469 20 3.796875 L 20 10.800781 C 20 10.910156 19.910156 11 19.800781 11 L 12.199219 11 C 12.089844 11 12 10.910156 12 10.800781 L 12 3.203125 C 12 3.089844 12.089844 3 12.203125 3 Z M 12.203125 3 "/>
<path style=" stroke:none;fill-rule:nonzero;fill:url(#linear1);" d="M 3.796875 3 L 10.796875 3 C 10.910156 3 11 3.089844 11 3.203125 L 11 10.796875 C 11 10.910156 10.910156 11 10.796875 11 L 3.203125 11 C 3.089844 11 3 10.910156 3 10.796875 L 3 3.796875 C 3 3.355469 3.355469 3 3.796875 3 Z M 3.796875 3 "/>
<path style=" stroke:none;fill-rule:nonzero;fill:url(#linear2);" d="M 3.199219 12 L 10.800781 12 C 10.910156 12 11 12.089844 11 12.199219 L 11 19.800781 C 11 19.910156 10.910156 20 10.800781 20 L 3.796875 20 C 3.355469 20 3 19.644531 3 19.203125 L 3 12.199219 C 3 12.089844 3.089844 12 3.199219 12 Z M 3.199219 12 "/>
<path style=" stroke:none;fill-rule:nonzero;fill:url(#linear3);" d="M 12.203125 12 L 19.796875 12 C 19.910156 12 20 12.089844 20 12.203125 L 20 19.203125 C 20 19.644531 19.644531 20 19.203125 20 L 12.199219 20 C 12.089844 20 12 19.910156 12 19.800781 L 12 12.203125 C 12 12.089844 12.089844 12 12.203125 12 Z M 12.203125 12 "/>
</g>
</svg>
