<?xml version="1.0" encoding="UTF-8" standalone="no"?>
<!-- Created with Inkscape (http://www.inkscape.org/) -->

<svg
   width="16"
   height="16"
   viewBox="0 0 4.2333333 4.2333335"
   version="1.1"
   id="svg5"
   inkscape:version="1.1.1 (3bf5ae0d25, 2021-09-20, custom)"
   sodipodi:docname="folder-template.svg"
   xmlns:inkscape="http://www.inkscape.org/namespaces/inkscape"
   xmlns:sodipodi="http://sodipodi.sourceforge.net/DTD/sodipodi-0.dtd"
   xmlns:xlink="http://www.w3.org/1999/xlink"
   xmlns="http://www.w3.org/2000/svg"
   xmlns:svg="http://www.w3.org/2000/svg">
  <sodipodi:namedview
     id="namedview7"
     pagecolor="#ffffff"
     bordercolor="#666666"
     borderopacity="1.0"
     inkscape:pageshadow="2"
     inkscape:pageopacity="0.0"
     inkscape:pagecheckerboard="0"
     inkscape:document-units="px"
     showgrid="false"
     units="px"
     height="64px"
     inkscape:zoom="24.15625"
     inkscape:cx="15.979301"
     inkscape:cy="7.7205692"
     inkscape:window-width="1920"
     inkscape:window-height="996"
     inkscape:window-x="0"
     inkscape:window-y="0"
     inkscape:window-maximized="1"
     inkscape:current-layer="svg5" />
  <defs
     id="defs2">
    <linearGradient
       inkscape:collect="always"
       id="linearGradient5539">
      <stop
         style="stop-color:#ffffff;stop-opacity:0"
         offset="0"
         id="stop5535" />
      <stop
         style="stop-color:#ffffff;stop-opacity:0.33664191"
         offset="1"
         id="stop5537" />
    </linearGradient>
    <linearGradient
       inkscape:collect="always"
       id="linearGradient5001">
      <stop
         style="stop-color:#ffffff;stop-opacity:0"
         offset="0"
         id="stop4997" />
      <stop
         style="stop-color:#ffffff;stop-opacity:1"
         offset="1"
         id="stop4999" />
    </linearGradient>
    <linearGradient
       inkscape:collect="always"
       id="linearGradient4263">
      <stop
         style="stop-color:#ffffff;stop-opacity:1"
         offset="0"
         id="stop4259" />
      <stop
         style="stop-color:#ffffff;stop-opacity:0.50196081"
         offset="1"
         id="stop4261" />
    </linearGradient>
    <linearGradient
       inkscape:collect="always"
       id="linearGradient11972">
      <stop
         style="stop-color:#4ad2e3;stop-opacity:1"
         offset="0"
         id="stop11968" />
      <stop
         style="stop-color:#8660c5;stop-opacity:1"
         offset="1"
         id="stop11970" />
    </linearGradient>
    <linearGradient
       inkscape:collect="always"
       xlink:href="#linearGradient4263"
       id="linearGradient4265"
       x1="8.4584417"
       y1="6.3224587"
       x2="8.4666672"
       y2="9.5250006"
       gradientUnits="userSpaceOnUse"
       gradientTransform="matrix(0.59259252,0,0,0.59259252,-2.9790118,-3.7629625)" />
    <linearGradient
       inkscape:collect="always"
       xlink:href="#linearGradient5001"
       id="linearGradient5003"
       x1="19"
       y1="44.711914"
       x2="32"
       y2="36"
       gradientUnits="userSpaceOnUse"
       gradientTransform="matrix(0.15679011,0,0,0.15679011,-2.9790118,-3.7629625)" />
    <linearGradient
       inkscape:collect="always"
       xlink:href="#linearGradient5539"
       id="linearGradient5541"
       x1="11.853752"
       y1="12.168457"
       x2="8.4666672"
       y2="9.5250006"
       gradientUnits="userSpaceOnUse"
       gradientTransform="matrix(0.59259252,0,0,0.59259252,-2.9790118,-3.7629625)" />
    <linearGradient
       inkscape:collect="always"
       xlink:href="#linearGradient11972"
       id="linearGradient939"
       gradientUnits="userSpaceOnUse"
       gradientTransform="matrix(0.59259252,0,0,0.59259252,-2.9789264,-3.7629897)"
       x1="5.320261"
       y1="6.4749041"
       x2="11.797989"
       y2="13.101656" />
  </defs>
  <path
     id="path3182-6"
     style="color:#000000;fill:url(#linearGradient939);fill-opacity:1;stroke:none;stroke-width:0.592705;stroke-linecap:round;stroke-linejoin:round;stroke-miterlimit:4;stroke-dasharray:none"
     d="m 2.038267,2e-8 c -0.086789,0 -0.1734167,0.0178844 -0.2544775,0.0538963 L 0.37267862,0.6813629 C 0.2254097,0.7467566 0.11239384,0.86466774 0.05113625,1.0071927 c -0.00352,0.00818 -0.006933,0.016462 -0.0101048,0.024806 -5.3997e-4,0.00143 -0.001001,0.00284 -0.001529,0.00427 -0.003662,0.00986 -0.006933,0.01965 -0.0101061,0.029706 -0.003129,0.00992 -0.006241,0.019911 -0.00888,0.030009 -2.489e-5,9.48e-5 2.477e-5,2.116e-4 0,3.063e-4 -0.002424,0.0093 -0.004735,0.018732 -0.006737,0.028172 -6.1037e-4,0.00284 -0.001268,0.00569 -0.001837,0.00858 -4.6566e-4,0.00237 -7.8816e-4,0.00468 -0.001227,0.00704 -0.001126,0.00601 -0.002116,0.012006 -0.003064,0.018068 -0.001404,0.00902 -0.002661,0.018134 -0.003674,0.027254 -5.488e-4,0.00492 -0.001096,0.00978 -0.001529,0.014703 -4.0954e-4,0.00468 -6.163e-4,0.00935 -9.1851e-4,0.014086 -3.2534e-4,0.00498 -7.1111e-4,0.00998 -9.1852e-4,0.015005 -2.477e-5,5.926e-4 2.288e-5,0.00124 0,0.00184 C 3.1905e-4,1.238758 9.5e-7,1.24654 9.5e-7,1.254309 v 1.7246912 c 2.915e-5,0.054217 0.007211,0.1073896 0.0205174,0.1583212 0.001902,0.00728 0.00397,0.014252 0.006125,0.021435 0.0516954,0.1725476 0.17606338,0.3177233 0.34604076,0.3932001 L 1.7834882,4.1794161 h 3.065e-4 c 0.01005,0.00445 0.020101,0.00865 0.030317,0.012557 8.81e-5,3.32e-5 2.181e-4,-3.38e-5 3.061e-4,0 0.010216,0.00391 0.020568,0.00768 0.030928,0.011022 9.11e-5,2.97e-5 2.151e-4,-2.9e-5 3.062e-4,0 0.020814,0.00669 0.041822,0.012373 0.063084,0.016841 9.61e-5,2.01e-5 2.099e-4,-2.03e-5 3.061e-4,0 0.04262,0.00893 0.085934,0.013476 0.1292292,0.013476 0.010845,0 0.021925,-3.597e-4 0.032767,-8.889e-4 0.075862,-0.00391 0.151089,-0.021469 0.2220171,-0.052977 L 3.7038587,3.5519793 C 3.8808235,3.4733992 4.0087999,3.319241 4.0563315,3.1373417 4.0696387,3.0864084 4.076514,3.0332374 4.0765425,2.9790205 V 1.2543293 c -5.9e-6,-0.010845 -3.596e-4,-0.021713 -9.186e-4,-0.032462 -5.58e-4,-0.010727 -0.00135,-0.021232 -0.00245,-0.031846 -9.422e-4,-0.00913 -0.00202,-0.018222 -0.00337,-0.027253 -2.246e-4,-0.00154 -3.772e-4,-0.00308 -6.104e-4,-0.00462 -2.892e-4,-0.00184 -6.103e-4,-0.00368 -9.185e-4,-0.00551 -0.00143,-0.00862 -0.00313,-0.017203 -0.00489,-0.025725 C 4.059095,1.1062763 4.053755,1.0859153 4.047467,1.0659703 3.9942219,0.89722834 3.8709955,0.75557974 3.7038556,0.6813629 L 2.293051,0.0538963 C 2.2119902,0.01788445 2.1250563,2e-8 2.038267,2e-8 Z" />
  <path
     style="color:#000000;opacity:0.4;fill:url(#linearGradient4265);fill-opacity:1;stroke:none;stroke-width:0.592705;stroke-linecap:round;stroke-linejoin:round;stroke-miterlimit:4;stroke-dasharray:none"
     d="M 1.7836322,0.05401455 0.37269936,0.68137546 C 0.14618607,0.78195644 1.3319e-4,1.0064867 1.4e-7,1.2543344 V 2.9789981 C 1.3319e-4,3.2268457 0.14618607,3.451376 0.37269936,3.5519574 l 1.41093284,0.627361 c 0.1621216,0.07202 0.3471569,0.07202 0.5092785,0 L 3.7038436,3.5519574 C 3.9303567,3.451376 4.0764094,3.2268457 4.0765421,2.9789981 V 1.2543344 C 4.0764094,1.0064869 3.9303567,0.78195644 3.7038436,0.68137546 L 2.2929107,0.05401455 c -0.1621216,-0.0720194 -0.3471569,-0.0720194 -0.5092785,0 z"
     id="path3182"
     sodipodi:nodetypes="ccccccccccccc" />
  <path
     id="rect3501"
     style="opacity:0.4;fill:url(#linearGradient5003);fill-opacity:1;stroke-width:0.59267;stroke-linecap:round;stroke-linejoin:round"
     d="M 0.0511407,1.0071927 C 0.0181724,1.0838897 4.68e-5,1.1676047 0,1.2543208 V 2.979012 C 1.331e-4,3.2268591 0.14616944,3.4513883 0.37268269,3.5519697 L 1.7834876,4.1794362 c 0.081061,0.036011 0.1679946,0.053896 0.2547839,0.053896 v -2.351851 z" />
  <path
     id="rect3501-7"
     style="opacity:0.4;fill:url(#linearGradient5541);fill-opacity:1;stroke-width:0.59267;stroke-linecap:round;stroke-linejoin:round"
     d="m 4.0254014,1.0071926 c 0.032966,0.076697 0.051093,0.1604121 0.051141,0.2471282 V 2.9790122 C 4.0764087,3.2268593 3.9303726,3.4513884 3.7038596,3.5519698 L 2.2930549,4.1794363 c -0.081061,0.036012 -0.1679946,0.053896 -0.2547834,0.053896 v -2.351851 z" />
</svg>
