<?xml version="1.0" encoding="UTF-8"?>
<svg xmlns="http://www.w3.org/2000/svg" xmlns:xlink="http://www.w3.org/1999/xlink" width="22px" height="22px" viewBox="0 0 22 22" version="1.1">
<defs>
<linearGradient id="linear0" gradientUnits="userSpaceOnUse" x1="11.004" y1="14.0814" x2="11.004" y2="15.2303" gradientTransform="matrix(1,0,0,-1,0,21.8898)">
<stop offset="0" style="stop-color:rgb(99.607843%,74.901961%,9.411765%);stop-opacity:1;"/>
<stop offset="1" style="stop-color:rgb(93.72549%,71.764706%,18.823529%);stop-opacity:1;"/>
</linearGradient>
<linearGradient id="linear1" gradientUnits="userSpaceOnUse" x1="0" y1="9.3898" x2="21.9961" y2="9.3898" gradientTransform="matrix(1,0,0,-1,0,21.8898)">
<stop offset="0" style="stop-color:rgb(99.607843%,74.901961%,9.411765%);stop-opacity:1;"/>
<stop offset="1" style="stop-color:rgb(93.72549%,71.764706%,18.823529%);stop-opacity:1;"/>
</linearGradient>
<linearGradient id="linear2" gradientUnits="userSpaceOnUse" x1="5.0215" y1="16.8898" x2="5.0215" y2="13.8898" gradientTransform="matrix(1,0,0,-1,0,21.8898)">
<stop offset="0" style="stop-color:rgb(0%,0%,0%);stop-opacity:0;"/>
<stop offset="1" style="stop-color:rgb(0%,0%,0%);stop-opacity:0.2;"/>
</linearGradient>
<linearGradient id="linear3" gradientUnits="userSpaceOnUse" x1="6.1083" y1="14.5632" x2="18.6134" y2="2.0582" gradientTransform="matrix(1,0,0,-1,0,21.8898)">
<stop offset="0" style="stop-color:rgb(100%,89.803922%,60%);stop-opacity:1;"/>
<stop offset="1" style="stop-color:rgb(100%,78.823529%,21.960784%);stop-opacity:1;"/>
</linearGradient>
<linearGradient id="linear4" gradientUnits="userSpaceOnUse" x1="7.4237" y1="18.2566" x2="15.5533" y2="10.127" gradientTransform="matrix(1,0,0,-1,0,21.8898)">
<stop offset="0.5196" style="stop-color:rgb(100%,100%,100%);stop-opacity:0.4;"/>
<stop offset="1" style="stop-color:rgb(99.215686%,74.509804%,9.411765%);stop-opacity:0;"/>
</linearGradient>
<linearGradient id="linear5" gradientUnits="userSpaceOnUse" x1="8.1716" y1="9.1716" x2="13.8284" y2="14.8284" >
<stop offset="0" style="stop-color:rgb(77.647059%,55.294118%,0%);stop-opacity:1;"/>
<stop offset="1" style="stop-color:rgb(65.098039%,44.313725%,0%);stop-opacity:1;"/>
</linearGradient>
</defs>
<g id="surface1">
<path style=" stroke:none;fill-rule:nonzero;fill:url(#linear0);" d="M 21.089844 4 L 9.488281 4 L 8.472656 2.691406 C 8.113281 2.253906 7.574219 2 7.007812 2 L 0.925781 2 C 0.382812 2.039062 -0.0234375 2.511719 0.0117188 3.054688 L 0.0117188 4 L 0.0195312 4 L 0.0195312 6.757812 L 0.0078125 6.863281 L 0.0078125 8 L 22 8 L 22 4.953125 C 22.011719 4.4375 21.605469 4.015625 21.089844 4 Z M 21.089844 4 "/>
<path style=" stroke:none;fill-rule:nonzero;fill:rgb(90.196078%,66.27451%,15.686275%);fill-opacity:1;" d="M 0 17 L 21.996094 17 L 21.996094 19.074219 C 21.996094 19.585938 21.578125 20 21.066406 20 L 0.925781 20 C 0.679688 20 0.445312 19.902344 0.269531 19.730469 C 0.0976562 19.554688 0 19.320312 0 19.074219 Z M 0 17 "/>
<path style=" stroke:none;fill-rule:nonzero;fill:url(#linear1);" d="M 0 8 L 21.996094 8 L 21.996094 17 L 0 17 Z M 0 8 "/>
<path style=" stroke:none;fill-rule:nonzero;fill:url(#linear2);" d="M 0 5 L 10.042969 5 L 10.042969 8 L 0 8 Z M 0 5 "/>
<path style=" stroke:none;fill-rule:nonzero;fill:url(#linear3);" d="M 21.996094 16.921875 L 21.996094 5.914062 C 21.996094 5.410156 21.585938 5 21.082031 5 L 9.753906 5 C 9.3125 5.460938 8.761719 5.800781 8.152344 5.996094 L 8.128906 6 L 1.101562 6 C 0.808594 6 0.527344 6.113281 0.320312 6.316406 C 0.125 6.515625 0.0117188 6.78125 0.0078125 7.0625 L 0.0078125 7.769531 C 0.00390625 7.804688 0 7.84375 0 7.878906 L 0 18.453125 C -0.00390625 18.726562 0.101562 18.992188 0.289062 19.1875 C 0.480469 19.382812 0.742188 19.496094 1.015625 19.5 L 20.984375 19.5 C 21.257812 19.496094 21.519531 19.382812 21.710938 19.1875 C 21.898438 18.992188 22.003906 18.726562 22 18.453125 L 22 16.921875 Z M 21.996094 16.921875 "/>
<path style=" stroke:none;fill-rule:nonzero;fill:url(#linear4);" d="M 0.0078125 8.0625 C 0.0117188 7.78125 0.125 7.515625 0.320312 7.316406 C 0.527344 7.113281 0.808594 7 1.101562 7 L 8.128906 7 L 8.152344 6.996094 C 8.761719 6.800781 9.3125 6.460938 9.753906 6 L 21.082031 6 C 21.585938 6 21.996094 6.410156 21.996094 6.914062 L 21.996094 5.914062 C 21.996094 5.410156 21.585938 5 21.082031 5 L 9.753906 5 C 9.3125 5.460938 8.761719 5.800781 8.152344 5.996094 L 8.128906 6 L 1.101562 6 C 0.808594 6 0.527344 6.113281 0.320312 6.316406 C 0.125 6.515625 0.0117188 6.78125 0.0078125 7.0625 L 0.0078125 7.769531 C 0.00390625 7.804688 0 7.84375 0 7.878906 L 0 8.878906 C 0 8.84375 0.00390625 8.804688 0.0078125 8.769531 Z M 0.0078125 8.0625 "/>
<path style=" stroke:none;fill-rule:nonzero;fill:url(#linear5);" d="M 11 8 C 8.789062 8 7 9.789062 7 12 C 7 14.210938 8.789062 16 11 16 C 13.210938 16 15 14.210938 15 12 C 15 9.789062 13.210938 8 11 8 Z M 11 9 C 12.5625 8.996094 13.867188 10.1875 14.003906 11.746094 C 14.140625 13.300781 13.0625 14.703125 11.523438 14.972656 C 9.984375 15.238281 8.496094 14.285156 8.097656 12.773438 C 7.703125 11.261719 8.527344 9.699219 10 9.175781 L 10 12 L 13 12 L 13 11 L 11 11 Z M 11 9 "/>
</g>
</svg>
