<?xml version="1.0" encoding="UTF-8" standalone="no"?>
<!-- Created with Inkscape (http://www.inkscape.org/) -->

<svg
   width="22"
   height="22"
   viewBox="0 0 5.8208332 5.8208336"
   version="1.1"
   id="svg69118"
   inkscape:version="1.1.1 (3bf5ae0d25, 2021-09-20, custom)"
   sodipodi:docname="preferences-system-network.svg"
   xmlns:inkscape="http://www.inkscape.org/namespaces/inkscape"
   xmlns:sodipodi="http://sodipodi.sourceforge.net/DTD/sodipodi-0.dtd"
   xmlns:xlink="http://www.w3.org/1999/xlink"
   xmlns="http://www.w3.org/2000/svg"
   xmlns:svg="http://www.w3.org/2000/svg">
  <sodipodi:namedview
     id="namedview69120"
     pagecolor="#ffffff"
     bordercolor="#666666"
     borderopacity="1.0"
     inkscape:pageshadow="2"
     inkscape:pageopacity="0.0"
     inkscape:pagecheckerboard="0"
     inkscape:document-units="px"
     showgrid="false"
     units="px"
     inkscape:zoom="24.15625"
     inkscape:cx="9.1694696"
     inkscape:cy="9.686934"
     inkscape:window-width="1920"
     inkscape:window-height="1004"
     inkscape:window-x="0"
     inkscape:window-y="0"
     inkscape:window-maximized="1"
     inkscape:current-layer="svg69118" />
  <defs
     id="defs69115">
    <linearGradient
       inkscape:collect="always"
       xlink:href="#linearGradient59376"
       id="linearGradient59378"
       x1="45.787689"
       y1="-43.129013"
       x2="45.593357"
       y2="-14.11183"
       gradientUnits="userSpaceOnUse"
       gradientTransform="matrix(0.18143713,0,0,0.18197494,-5.3971701,8.1129832)" />
    <linearGradient
       inkscape:collect="always"
       id="linearGradient59376">
      <stop
         style="stop-color:#189ae1;stop-opacity:1;"
         offset="0"
         id="stop59372" />
      <stop
         style="stop-color:#037cd6;stop-opacity:0.99607843"
         offset="1"
         id="stop59374" />
    </linearGradient>
  </defs>
  <circle
     style="fill:url(#linearGradient59378);fill-opacity:1;stroke-width:0.144229;stroke-linecap:round;stroke-linejoin:round"
     id="path55509"
     cx="2.9104164"
     cy="2.9104166"
     r="2.6458333" />
  <path
     id="path69248"
     style="opacity:0.2;fill:#ffffff;fill-opacity:1;stroke-width:1.14248;stroke-linecap:round;stroke-linejoin:round"
     d="M 11 1 C 5.4771525 0.99999992 0.99999992 5.4771525 1 11 C 1 16.522848 5.4771525 21 11 21 C 16.522847 21 21 16.522847 21 11 C 21 5.4771525 16.522848 1 11 1 z M 11 2 C 11.16066 2 11.319926 2.0053568 11.478516 2.0136719 C 11.637202 2.021992 11.794768 2.0343447 11.951172 2.0507812 C 11.79477 2.0341308 11.637189 2.0221559 11.478516 2.0136719 C 11.319842 2.0051879 11.160717 2 11 2 z M 11 2 A 2.9999999 9.0000008 0 0 1 13.679688 7 L 8.3203125 7 A 2.9999999 9.0000008 0 0 1 11 2 z M 11.953125 2.0507812 C 12.263948 2.0835132 12.570522 2.1337113 12.871094 2.1972656 C 12.570568 2.1337214 12.263973 2.0839415 11.953125 2.0507812 z M 9.828125 2.078125 C 9.7485712 2.0884824 9.6687241 2.0989122 9.5898438 2.1113281 C 9.6686935 2.098921 9.7486093 2.0884704 9.828125 2.078125 z M 9.125 2.1972656 A 4.0000006 10 0 0 0 7.3378906 7 L 2.9375 7 C 4.1424066 4.5762563 6.4062215 2.7733484 9.125 2.1972656 z M 12.875 2.1972656 C 15.593779 2.7733485 17.857593 4.5762564 19.0625 7 L 14.664062 7 A 4.0000006 10 0 0 0 12.875 2.1972656 z M 2.9238281 7.0253906 C 2.7726662 7.3321256 2.6394697 7.6493811 2.5234375 7.9746094 C 2.6395402 7.6494124 2.7725917 7.3320907 2.9238281 7.0253906 z M 19.076172 7.0253906 C 19.227408 7.3320907 19.36046 7.6494124 19.476562 7.9746094 C 19.360531 7.6493811 19.227334 7.3321256 19.076172 7.0253906 z M 2.5136719 8 C 2.5137418 7.9998022 2.515555 8.0001978 2.515625 8 L 7.1933594 8 A 4.0000006 10 0 0 0 7 11 A 4.0000006 10 0 0 0 7.1933594 14 L 2.515625 14 C 2.515555 13.999802 2.5137418 14.000198 2.5136719 14 C 2.1817611 13.061342 2.0000001 12.052331 2 11 C 2 9.9476686 2.1817612 8.9386582 2.5136719 8 z M 8.1777344 8 L 13.822266 8 A 2.9999999 9.0000008 0 0 1 14 11 A 2.9999999 9.0000008 0 0 1 13.822266 14 L 8.1777344 14 A 2.9999999 9.0000008 0 0 1 8 11 A 2.9999999 9.0000008 0 0 1 8.1777344 8 z M 14.814453 8 L 19.484375 8 C 19.484445 8.0001978 19.486258 7.9998022 19.486328 8 C 19.818239 8.9386582 20 9.9476686 20 11 C 20 12.052331 19.818239 13.061342 19.486328 14 C 19.486258 14.000198 19.484445 13.999802 19.484375 14 L 14.814453 14 A 4.0000006 10 0 0 0 15 11 A 4.0000006 10 0 0 0 14.814453 8 z M 2.5234375 14.025391 C 2.6394697 14.350619 2.7726662 14.667875 2.9238281 14.974609 C 2.7725917 14.667909 2.6395402 14.350588 2.5234375 14.025391 z M 19.476562 14.025391 C 19.36046 14.350588 19.227408 14.667909 19.076172 14.974609 C 19.227334 14.667875 19.360531 14.350619 19.476562 14.025391 z M 2.9375 15 L 7.3378906 15 A 4.0000006 10 0 0 0 9.125 19.802734 C 6.4062216 19.226652 4.1424066 17.423744 2.9375 15 z M 8.3203125 15 L 13.679688 15 A 2.9999999 9.0000008 0 0 1 11 20 C 11.160717 20 11.319842 19.994812 11.478516 19.986328 C 11.637189 19.977844 11.79477 19.965869 11.951172 19.949219 C 11.794768 19.965655 11.637202 19.978008 11.478516 19.986328 C 11.319926 19.994643 11.16066 20 11 20 A 2.9999999 9.0000008 0 0 1 8.3203125 15 z M 14.664062 15 L 19.0625 15 C 17.857593 17.423744 15.593778 19.226651 12.875 19.802734 A 4.0000006 10 0 0 0 14.664062 15 z M 12.871094 19.802734 C 12.570522 19.866289 12.263948 19.916487 11.953125 19.949219 C 12.263973 19.916058 12.570568 19.866279 12.871094 19.802734 z M 9.5898438 19.888672 C 9.6687241 19.901088 9.7485712 19.911518 9.828125 19.921875 C 9.7486093 19.91153 9.6686935 19.901079 9.5898438 19.888672 z "
     transform="scale(0.26458334)" />
</svg>
