<svg id="Camada_1" data-name="Camada 1" xmlns="http://www.w3.org/2000/svg" xmlns:xlink="http://www.w3.org/1999/xlink" viewBox="0 0 32 32"><defs><style>.cls-1{fill:url(#Gradiente_sem_nome_64);}.cls-2{fill:#fff;}</style><linearGradient id="Gradiente_sem_nome_64" x1="8.9988" y1="3.8736" x2="23.0012" y2="28.1264" gradientUnits="userSpaceOnUse"><stop offset="0" stop-color="#dade5d"/><stop offset="1" stop-color="#4da850"/></linearGradient></defs><path class="cls-1" d="M16,2h0A14,14,0,0,1,30,16h0A14,14,0,0,1,16,30h0A14,14,0,0,1,2,16H2A14,14,0,0,1,16,2Z"/><path class="cls-2" d="M23.9993,8.0007a11.2184,11.2184,0,0,0-4.7972,1.1326,7.7378,7.7378,0,0,0-2.1988,1.5325c-1.0773,1.0774-2.751,3.0609-4.0689,4.6639h-2.927L8.6748,17.3286l2.26.611a1.1744,1.1744,0,0,0,.0906.3484l-.3512.7722s-.1332.2666.8662,1.3326c1.0661,1.0667,1.3992.9328,1.3992.9328l.8282-.3758a.9733.9733,0,0,0,.2758.052l.6283,2.3226,1.9989-1.3325V18.9756c1.6144-1.3052,3.5952-2.9456,4.6639-3.98a9.6861,9.6861,0,0,0,1.5984-2.1987A11.7671,11.7671,0,0,0,23.9993,8.0007Zm-4.664,5.9965a1.3326,1.3326,0,1,1,1.3326-1.3326A1.336,1.336,0,0,1,19.3353,13.9972Zm-6.9959,7.9953c.1332.0673.2.1333.3331.2-.1332.1333-.2665.3332-.4.4664-1.5331,1.5325-4.2635,1.3326-4.2635,1.3326s-.2-2.7324,1.3325-4.2635c.1333-.134.3332-.2659.4664-.4005.0666.1333.1326.2.2.3332a5.2711,5.2711,0,0,0-.8662,3.1981A5.2723,5.2723,0,0,0,12.3394,21.9925Z"/></svg>