<?xml version="1.0" encoding="UTF-8"?>
<svg xmlns="http://www.w3.org/2000/svg" xmlns:xlink="http://www.w3.org/1999/xlink" width="32px" height="32px" viewBox="0 0 32 32" version="1.1">
<defs>
<linearGradient id="linear0" gradientUnits="userSpaceOnUse" x1="-32.0401" y1="91.2276" x2="-32.0401" y2="78.9461" gradientTransform="matrix(0.4199,0,0,-0.4199,29.4858,44.872)">
<stop offset="0" style="stop-color:rgb(31.372549%,31.372549%,31.372549%);stop-opacity:1;"/>
<stop offset="1" style="stop-color:rgb(9.803922%,9.803922%,9.803922%);stop-opacity:1;"/>
</linearGradient>
<linearGradient id="linear1" gradientUnits="userSpaceOnUse" x1="2.0001" y1="17.0902" x2="29.9999" y2="17.0902" >
<stop offset="0" style="stop-color:rgb(78.039216%,79.215686%,80.392157%);stop-opacity:1;"/>
<stop offset="1" style="stop-color:rgb(83.137255%,83.137255%,83.137255%);stop-opacity:1;"/>
</linearGradient>
</defs>
<g id="surface1">
<path style=" stroke:none;fill-rule:nonzero;fill:url(#linear0);" d="M 26.414062 9.382812 C 26.363281 9.289062 26.289062 9.214844 26.195312 9.164062 L 25.777344 8.988281 L 25.648438 8.507812 C 25.648438 8.464844 25.625 8.441406 25.605469 8.398438 C 25.355469 7.980469 24.96875 7.660156 24.511719 7.5 C 23.351562 7.019531 22.128906 6.707031 20.878906 6.582031 C 20.570312 6.558594 20.265625 6.636719 20.003906 6.800781 C 19.585938 7.136719 19.089844 7.363281 18.558594 7.457031 L 13.308594 7.457031 C 12.777344 7.367188 12.28125 7.144531 11.867188 6.800781 C 11.605469 6.640625 11.296875 6.5625 10.992188 6.582031 C 9.742188 6.707031 8.519531 7.019531 7.359375 7.5 C 6.898438 7.660156 6.511719 7.980469 6.265625 8.398438 C 6.242188 8.417969 6.242188 8.464844 6.222656 8.507812 L 6.089844 9.011719 L 5.785156 9.183594 C 5.699219 9.226562 5.628906 9.296875 5.585938 9.382812 C 5.566406 9.449219 5.324219 9.886719 5.019531 10.605469 L 7.050781 9.578125 C 9.941406 8.199219 10.96875 8.988281 11.054688 9.054688 C 11.484375 9.597656 11.953125 10.109375 12.457031 10.585938 C 13.351562 11.484375 13.769531 11.613281 13.945312 11.613281 L 17.792969 11.613281 C 17.992188 11.613281 18.40625 11.460938 19.257812 10.585938 C 19.761719 10.113281 20.222656 9.601562 20.636719 9.054688 C 20.746094 8.964844 21.820312 8.15625 24.859375 9.6875 C 24.816406 9.644531 26.152344 10.324219 27.046875 10.78125 C 26.699219 9.972656 26.457031 9.449219 26.414062 9.382812 Z M 26.414062 9.382812 "/>
<path style=" stroke:none;fill-rule:nonzero;fill:url(#linear1);" d="M 29.914062 20.234375 C 29.417969 16.960938 28.453125 13.777344 27.046875 10.78125 C 26.152344 10.324219 24.816406 9.644531 24.859375 9.6875 C 21.820312 8.15625 20.746094 8.964844 20.636719 9.054688 C 20.222656 9.601562 19.761719 10.113281 19.261719 10.585938 C 18.40625 11.460938 17.992188 11.613281 17.792969 11.613281 L 13.945312 11.613281 C 13.769531 11.613281 13.355469 11.484375 12.457031 10.585938 C 11.953125 10.109375 11.484375 9.597656 11.058594 9.054688 C 10.96875 8.988281 9.941406 8.199219 7.054688 9.578125 L 5.023438 10.605469 C 3.621094 13.667969 2.632812 16.90625 2.085938 20.234375 C 1.84375 22.136719 2.109375 23.535156 2.894531 24.433594 C 3.457031 25.050781 4.25 25.40625 5.082031 25.417969 L 5.410156 25.417969 C 5.980469 25.417969 6.789062 24.980469 9.457031 22.113281 C 9.722656 21.828125 9.917969 21.675781 10.050781 21.546875 C 10.566406 21.167969 11.203125 20.980469 11.84375 21.019531 L 20.199219 21.019531 C 20.839844 20.980469 21.476562 21.164062 21.992188 21.546875 C 22.125 21.675781 22.320312 21.828125 22.585938 22.113281 C 25.253906 24.980469 26.0625 25.417969 26.632812 25.417969 L 26.960938 25.417969 C 27.796875 25.414062 28.589844 25.054688 29.148438 24.433594 C 29.964844 23.195312 30.242188 21.679688 29.914062 20.234375 Z M 29.914062 20.234375 "/>
<path style=" stroke:none;fill-rule:nonzero;fill:rgb(19.607843%,19.607843%,19.607843%);fill-opacity:1;" d="M 22.671875 14.019531 C 22.25 14.019531 21.90625 14.363281 21.90625 14.785156 C 21.90625 15.207031 22.25 15.550781 22.671875 15.550781 C 23.09375 15.550781 23.4375 15.207031 23.4375 14.785156 C 23.433594 14.363281 23.09375 14.023438 22.671875 14.019531 Z M 24.421875 12.269531 C 24 12.269531 23.65625 12.613281 23.65625 13.035156 C 23.65625 13.457031 24 13.800781 24.421875 13.800781 C 24.84375 13.800781 25.1875 13.457031 25.1875 13.035156 C 25.183594 12.613281 24.84375 12.273438 24.421875 12.269531 Z M 20.921875 12.269531 C 20.5 12.269531 20.15625 12.613281 20.15625 13.035156 C 20.15625 13.457031 20.5 13.800781 20.921875 13.800781 C 21.34375 13.800781 21.6875 13.457031 21.6875 13.035156 C 21.683594 12.613281 21.34375 12.273438 20.921875 12.269531 Z M 22.671875 10.519531 C 22.25 10.519531 21.90625 10.863281 21.90625 11.285156 C 21.90625 11.707031 22.25 12.050781 22.671875 12.050781 C 23.09375 12.050781 23.4375 11.707031 23.4375 11.285156 C 23.433594 10.863281 23.09375 10.523438 22.671875 10.519531 Z M 22.671875 10.519531 "/>
<path style=" stroke:none;fill-rule:nonzero;fill:rgb(94.901961%,94.901961%,94.901961%);fill-opacity:1;" d="M 16 8.769531 C 16.484375 8.769531 16.875 9.160156 16.875 9.644531 C 16.875 10.128906 16.484375 10.519531 16 10.519531 C 15.515625 10.519531 15.125 10.128906 15.125 9.644531 C 15.125 9.164062 15.515625 8.769531 16 8.769531 Z M 16 8.769531 "/>
<path style=" stroke:none;fill-rule:nonzero;fill:rgb(19.607843%,19.607843%,19.607843%);fill-opacity:1;" d="M 14.382812 17.519531 L 13.59375 17.519531 L 13.59375 18.328125 C 13.59375 18.410156 13.5625 18.492188 13.507812 18.546875 C 13.449219 18.605469 13.367188 18.636719 13.285156 18.636719 L 12.585938 18.636719 C 12.503906 18.636719 12.425781 18.605469 12.367188 18.546875 C 12.308594 18.492188 12.277344 18.410156 12.28125 18.328125 L 12.28125 17.519531 L 11.492188 17.519531 C 11.410156 17.523438 11.332031 17.492188 11.273438 17.433594 C 11.214844 17.375 11.183594 17.296875 11.1875 17.214844 L 11.1875 16.515625 C 11.183594 16.433594 11.214844 16.351562 11.273438 16.292969 C 11.332031 16.238281 11.410156 16.207031 11.492188 16.207031 L 12.28125 16.207031 L 12.28125 15.421875 C 12.277344 15.339844 12.308594 15.257812 12.367188 15.203125 C 12.425781 15.144531 12.503906 15.113281 12.585938 15.113281 L 13.285156 15.113281 C 13.367188 15.113281 13.449219 15.144531 13.507812 15.203125 C 13.5625 15.257812 13.59375 15.339844 13.59375 15.421875 L 13.59375 16.207031 L 14.382812 16.207031 C 14.460938 16.207031 14.542969 16.238281 14.601562 16.296875 C 14.65625 16.351562 14.6875 16.433594 14.6875 16.515625 L 14.6875 17.214844 C 14.6875 17.296875 14.65625 17.375 14.601562 17.433594 C 14.542969 17.492188 14.460938 17.523438 14.382812 17.519531 Z M 14.382812 17.519531 "/>
<path style=" stroke:none;fill-rule:nonzero;fill:rgb(9.803922%,9.803922%,9.803922%);fill-opacity:1;" d="M 18.625 14.675781 C 19.832031 14.675781 20.8125 15.65625 20.8125 16.863281 C 20.8125 18.074219 19.832031 19.050781 18.625 19.050781 C 17.417969 19.050781 16.4375 18.074219 16.4375 16.863281 C 16.441406 15.65625 17.417969 14.679688 18.625 14.675781 Z M 18.625 14.675781 "/>
<path style=" stroke:none;fill-rule:nonzero;fill:rgb(31.372549%,31.372549%,31.372549%);fill-opacity:1;" d="M 18.625 15.332031 C 19.46875 15.332031 20.15625 16.019531 20.15625 16.863281 C 20.15625 17.710938 19.46875 18.394531 18.625 18.394531 C 17.777344 18.394531 17.09375 17.710938 17.09375 16.863281 C 17.089844 16.457031 17.25 16.066406 17.539062 15.777344 C 17.828125 15.492188 18.21875 15.332031 18.625 15.332031 Z M 18.625 15.332031 "/>
<path style=" stroke:none;fill-rule:nonzero;fill:rgb(9.803922%,9.803922%,9.803922%);fill-opacity:1;" d="M 9 10.738281 C 10.207031 10.738281 11.1875 11.71875 11.1875 12.925781 C 11.1875 14.132812 10.207031 15.113281 9 15.113281 C 7.792969 15.113281 6.8125 14.136719 6.8125 12.925781 C 6.816406 11.71875 7.792969 10.742188 9 10.738281 Z M 9 10.738281 "/>
<path style=" stroke:none;fill-rule:nonzero;fill:rgb(31.372549%,31.372549%,31.372549%);fill-opacity:1;" d="M 9 11.394531 C 9.84375 11.394531 10.53125 12.082031 10.53125 12.925781 C 10.53125 13.773438 9.84375 14.457031 9 14.457031 C 8.152344 14.457031 7.46875 13.773438 7.46875 12.925781 C 7.464844 12.519531 7.625 12.128906 7.914062 11.839844 C 8.203125 11.554688 8.59375 11.390625 9 11.394531 Z M 9 11.394531 "/>
<path style=" stroke:none;fill-rule:nonzero;fill:rgb(19.607843%,19.607843%,19.607843%);fill-opacity:1;" d="M 18.625 15.988281 C 19.109375 15.988281 19.5 16.378906 19.5 16.863281 C 19.5 17.347656 19.109375 17.738281 18.625 17.738281 C 18.140625 17.738281 17.75 17.347656 17.75 16.863281 C 17.75 16.382812 18.140625 15.992188 18.625 15.988281 Z M 9 12.050781 C 9.484375 12.050781 9.875 12.441406 9.875 12.925781 C 9.875 13.410156 9.484375 13.800781 9 13.800781 C 8.515625 13.800781 8.125 13.410156 8.125 12.925781 C 8.125 12.445312 8.515625 12.050781 9 12.050781 Z M 9 12.050781 "/>
</g>
</svg>
