<?xml version="1.0" encoding="UTF-8"?>
<svg xmlns="http://www.w3.org/2000/svg" xmlns:xlink="http://www.w3.org/1999/xlink" width="32px" height="32px" viewBox="0 0 32 32" version="1.1">
<defs>
<linearGradient id="linear0" gradientUnits="userSpaceOnUse" x1="6.247" y1="5.247" x2="26.753" y2="25.753" >
<stop offset="0" style="stop-color:rgb(92.156863%,39.607843%,13.72549%);stop-opacity:1;"/>
<stop offset="1" style="stop-color:rgb(85.098039%,23.921569%,1.176471%);stop-opacity:1;"/>
</linearGradient>
</defs>
<g id="surface1">
<path style=" stroke:none;fill-rule:nonzero;fill:url(#linear0);" d="M 31 15.5 C 31 23.507812 24.507812 30 16.5 30 C 8.492188 30 2 23.507812 2 15.5 C 2 7.492188 8.492188 1 16.5 1 C 24.507812 1 31 7.492188 31 15.5 Z M 31 15.5 "/>
<path style=" stroke:none;fill-rule:nonzero;fill:rgb(100%,100%,100%);fill-opacity:1;" d="M 16.476562 4 C 15.652344 4.011719 14.988281 4.691406 15 5.515625 L 15 14.484375 C 14.988281 15.3125 15.652344 15.992188 16.480469 16.003906 C 17.308594 16.015625 17.988281 15.355469 18 14.527344 C 18 14.511719 18 14.5 18 14.484375 L 18 5.515625 C 18.011719 4.6875 17.347656 4.011719 16.519531 4 C 16.507812 4 16.492188 4 16.476562 4 Z M 11.488281 6.5 C 11.203125 6.507812 10.925781 6.601562 10.6875 6.761719 C 6.839844 9.320312 5.113281 14.097656 6.441406 18.523438 C 7.769531 22.953125 11.839844 25.992188 16.460938 26.007812 C 21.085938 26.023438 25.175781 23.015625 26.535156 18.59375 C 27.894531 14.175781 26.203125 9.386719 22.371094 6.800781 C 21.929688 6.488281 21.351562 6.4375 20.859375 6.667969 C 20.367188 6.898438 20.039062 7.378906 20.003906 7.921875 C 19.964844 8.464844 20.226562 8.984375 20.679688 9.28125 L 20.695312 9.289062 C 23.433594 11.136719 24.640625 14.554688 23.671875 17.710938 C 22.699219 20.867188 19.777344 23.019531 16.476562 23.007812 C 13.175781 22.996094 10.265625 20.828125 9.316406 17.664062 C 8.367188 14.5 9.597656 11.089844 12.351562 9.261719 C 12.917969 8.898438 13.175781 8.199219 12.972656 7.550781 C 12.773438 6.90625 12.164062 6.476562 11.488281 6.5 Z M 11.488281 6.5 "/>
</g>
</svg>
