<?xml version="1.0" encoding="UTF-8"?>
<svg xmlns="http://www.w3.org/2000/svg" xmlns:xlink="http://www.w3.org/1999/xlink" width="22px" height="22px" viewBox="0 0 22 22" version="1.1">
<defs>
<linearGradient id="linear0" gradientUnits="userSpaceOnUse" x1="11.5" y1="18" x2="11.5" y2="22" >
<stop offset="0" style="stop-color:rgb(0%,0%,0%);stop-opacity:0.4;"/>
<stop offset="1" style="stop-color:rgb(0%,0%,0%);stop-opacity:0;"/>
</linearGradient>
<linearGradient id="linear1" gradientUnits="userSpaceOnUse" x1="11.5" y1="17" x2="11.5" y2="20" >
<stop offset="0" style="stop-color:rgb(0%,0%,0%);stop-opacity:0.4;"/>
<stop offset="1" style="stop-color:rgb(0%,0%,0%);stop-opacity:0;"/>
</linearGradient>
<linearGradient id="linear2" gradientUnits="userSpaceOnUse" x1="9.7703" y1="97.2181" x2="14.6134" y2="92.3746" gradientTransform="matrix(3.4079,0,0,-3.4079,-30.0483,333.0539)">
<stop offset="0" style="stop-color:rgb(46.666667%,83.529412%,94.117647%);stop-opacity:1;"/>
<stop offset="1" style="stop-color:rgb(27.058824%,69.803922%,82.352941%);stop-opacity:1;"/>
</linearGradient>
</defs>
<g id="surface1">
<path style=" stroke:none;fill-rule:nonzero;fill:rgb(59.215686%,28.627451%,7.843137%);fill-opacity:1;" d="M 4.613281 4 L 18.386719 4 C 18.757812 4.035156 19.03125 4.363281 19 4.734375 L 19 21.265625 C 19.03125 21.636719 18.757812 21.964844 18.386719 22 L 4.613281 22 C 4.242188 21.964844 3.96875 21.636719 4 21.265625 L 4 4.734375 C 3.96875 4.363281 4.242188 4.035156 4.613281 4 Z M 4.613281 4 "/>
<path style=" stroke:none;fill-rule:nonzero;fill:url(#linear0);" d="M 4 18 L 19 18 L 19 22 L 4 22 Z M 4 18 "/>
<path style=" stroke:none;fill-rule:nonzero;fill:rgb(100%,100%,100%);fill-opacity:1;" d="M 4.613281 7 L 18.386719 7 C 18.714844 6.988281 18.988281 7.246094 19 7.570312 L 19 20.429688 C 18.988281 20.753906 18.714844 21.011719 18.386719 21 L 4.613281 21 C 4.285156 21.011719 4.011719 20.753906 4 20.429688 L 4 7.570312 C 4.011719 7.246094 4.285156 6.988281 4.613281 7 Z M 4.613281 7 "/>
<path style=" stroke:none;fill-rule:nonzero;fill:url(#linear1);" d="M 4 17 L 19 17 L 19 20 L 4 20 Z M 4 17 "/>
<path style=" stroke:none;fill-rule:nonzero;fill:url(#linear2);" d="M 4.609375 1 L 18.386719 1 C 18.757812 1.035156 19.03125 1.363281 19 1.734375 L 19 18.265625 C 19.03125 18.636719 18.757812 18.964844 18.386719 19 L 4.613281 19 C 4.242188 18.964844 3.96875 18.636719 4 18.265625 L 4 1.734375 C 3.96875 1.363281 4.242188 1.035156 4.609375 1 Z M 4.609375 1 "/>
<path style=" stroke:none;fill-rule:nonzero;fill:rgb(0%,43.137255%,56.862745%);fill-opacity:1;" d="M 6.699219 0 L 7.300781 0 C 7.6875 0 8 0.3125 8 0.699219 L 8 2.300781 C 8 2.6875 7.6875 3 7.300781 3 L 6.699219 3 C 6.3125 3 6 2.6875 6 2.300781 L 6 0.699219 C 6 0.3125 6.3125 0 6.699219 0 Z M 6.699219 0 "/>
<path style=" stroke:none;fill-rule:nonzero;fill:rgb(0%,43.137255%,56.862745%);fill-opacity:1;" d="M 6.5 7 L 16.5 7 C 16.777344 7 17 7.222656 17 7.5 C 17 7.777344 16.777344 8 16.5 8 L 6.5 8 C 6.222656 8 6 7.777344 6 7.5 C 6 7.222656 6.222656 7 6.5 7 Z M 6.5 7 "/>
<path style=" stroke:none;fill-rule:nonzero;fill:rgb(0%,43.137255%,56.862745%);fill-opacity:1;" d="M 9.699219 0 L 10.300781 0 C 10.6875 0 11 0.3125 11 0.699219 L 11 2.300781 C 11 2.6875 10.6875 3 10.300781 3 L 9.699219 3 C 9.3125 3 9 2.6875 9 2.300781 L 9 0.699219 C 9 0.3125 9.3125 0 9.699219 0 Z M 9.699219 0 "/>
<path style=" stroke:none;fill-rule:nonzero;fill:rgb(0%,43.137255%,56.862745%);fill-opacity:1;" d="M 12.699219 0 L 13.300781 0 C 13.6875 0 14 0.3125 14 0.699219 L 14 2.300781 C 14 2.6875 13.6875 3 13.300781 3 L 12.699219 3 C 12.3125 3 12 2.6875 12 2.300781 L 12 0.699219 C 12 0.3125 12.3125 0 12.699219 0 Z M 12.699219 0 "/>
<path style=" stroke:none;fill-rule:nonzero;fill:rgb(0%,43.137255%,56.862745%);fill-opacity:1;" d="M 15.699219 0 L 16.300781 0 C 16.6875 0 17 0.3125 17 0.699219 L 17 2.300781 C 17 2.6875 16.6875 3 16.300781 3 L 15.699219 3 C 15.3125 3 15 2.6875 15 2.300781 L 15 0.699219 C 15 0.3125 15.3125 0 15.699219 0 Z M 15.699219 0 "/>
<path style=" stroke:none;fill-rule:nonzero;fill:rgb(0%,43.137255%,56.862745%);fill-opacity:1;" d="M 6.5 10 L 16.5 10 C 16.777344 10 17 10.222656 17 10.5 C 17 10.777344 16.777344 11 16.5 11 L 6.5 11 C 6.222656 11 6 10.777344 6 10.5 C 6 10.222656 6.222656 10 6.5 10 Z M 6.5 10 "/>
<path style=" stroke:none;fill-rule:nonzero;fill:rgb(0%,43.137255%,56.862745%);fill-opacity:1;" d="M 6.5 13 L 16.5 13 C 16.777344 13 17 13.222656 17 13.5 C 17 13.777344 16.777344 14 16.5 14 L 6.5 14 C 6.222656 14 6 13.777344 6 13.5 C 6 13.222656 6.222656 13 6.5 13 Z M 6.5 13 "/>
</g>
</svg>
