<svg width="22px" height="22px" id="Camada_1" data-name="Camada 1" xmlns="http://www.w3.org/2000/svg" xmlns:xlink="http://www.w3.org/1999/xlink" viewBox="0 0 22 22"><defs><style>.cls-1{fill:url(#Gradiente_sem_nome_6);}.cls-2{fill:url(#Gradiente_sem_nome_6-2);}.cls-3{fill:url(#Gradiente_sem_nome_6-3);}.cls-4{fill:url(#Gradiente_sem_nome_6-4);}.cls-5{fill:url(#Gradiente_sem_nome_6-5);}.cls-6{fill:url(#Gradiente_sem_nome_6-6);}.cls-7{fill:url(#Gradiente_sem_nome_6-7);}.cls-8{fill:url(#Gradiente_sem_nome_6-8);}</style><linearGradient id="Gradiente_sem_nome_6" x1="7.25" y1="-0.25" x2="14.75" y2="7.25" gradientUnits="userSpaceOnUse"><stop offset="0" stop-color="#28afea"/><stop offset="1" stop-color="#0864b3"/></linearGradient><linearGradient id="Gradiente_sem_nome_6-2" y1="1.75" x2="14.75" y2="9.25" xlink:href="#Gradiente_sem_nome_6"/><linearGradient id="Gradiente_sem_nome_6-3" y1="3.75" x2="14.75" y2="11.25" xlink:href="#Gradiente_sem_nome_6"/><linearGradient id="Gradiente_sem_nome_6-4" y1="5.75" x2="14.75" y2="13.25" xlink:href="#Gradiente_sem_nome_6"/><linearGradient id="Gradiente_sem_nome_6-5" y1="7.75" x2="14.75" y2="15.25" xlink:href="#Gradiente_sem_nome_6"/><linearGradient id="Gradiente_sem_nome_6-6" x1="5.5" y1="15.5" x2="9.5" y2="19.5" xlink:href="#Gradiente_sem_nome_6"/><linearGradient id="Gradiente_sem_nome_6-7" y1="9.75" x2="14.75" y2="17.25" xlink:href="#Gradiente_sem_nome_6"/><linearGradient id="Gradiente_sem_nome_6-8" y1="11.75" x2="14.75" y2="19.25" xlink:href="#Gradiente_sem_nome_6"/></defs><rect class="cls-1" x="4" y="3" width="14" height="1"/><rect class="cls-2" x="4" y="5" width="14" height="1"/><rect class="cls-3" x="4" y="7" width="14" height="1"/><rect class="cls-4" x="4" y="9" width="14" height="1"/><rect class="cls-5" x="4" y="11" width="14" height="1"/><rect class="cls-6" x="4" y="17" width="7" height="1"/><rect class="cls-7" x="4" y="13" width="14" height="1"/><rect class="cls-8" x="4" y="15" width="14" height="1"/></svg>