<?xml version="1.0" encoding="UTF-8" standalone="no"?>
<svg
   width="22"
   height="22"
   viewBox="0 0 5.82076 5.82076"
   version="1.1"
   id="svg1886"
   inkscape:version="1.1.2 (0a00cf5339, 2022-02-04, custom)"
   sodipodi:docname="accessories-screenshot.svg"
   xmlns:inkscape="http://www.inkscape.org/namespaces/inkscape"
   xmlns:sodipodi="http://sodipodi.sourceforge.net/DTD/sodipodi-0.dtd"
   xmlns:xlink="http://www.w3.org/1999/xlink"
   xmlns="http://www.w3.org/2000/svg"
   xmlns:svg="http://www.w3.org/2000/svg"
   xmlns:rdf="http://www.w3.org/1999/02/22-rdf-syntax-ns#"
   xmlns:cc="http://creativecommons.org/ns#"
   xmlns:dc="http://purl.org/dc/elements/1.1/">
  <defs
     id="defs1880">
    <linearGradient
       inkscape:collect="always"
       id="linearGradient1430">
      <stop
         style="stop-color:#f1f3f4;stop-opacity:1;"
         offset="0"
         id="stop1426" />
      <stop
         style="stop-color:#e1e5e7;stop-opacity:1"
         offset="1"
         id="stop1428" />
    </linearGradient>
    <linearGradient
       inkscape:collect="always"
       xlink:href="#linearGradient1430"
       id="linearGradient5396"
       x1="0.26458001"
       y1="0.26458001"
       x2="3.9686999"
       y2="3.9687002"
       gradientUnits="userSpaceOnUse" />
    <linearGradient
       inkscape:collect="always"
       id="linearGradient1587">
      <stop
         style="stop-color:#a0a7ac;stop-opacity:1;"
         offset="0"
         id="stop1583" />
      <stop
         style="stop-color:#81888e;stop-opacity:1"
         offset="1"
         id="stop1585" />
    </linearGradient>
    <linearGradient
       inkscape:collect="always"
       xlink:href="#linearGradient1587"
       id="linearGradient6148"
       x1="5"
       y1="12"
       x2="15"
       y2="12"
       gradientUnits="userSpaceOnUse" />
    <linearGradient
       inkscape:collect="always"
       xlink:href="#linearGradient1587"
       id="linearGradient6150"
       x1="11"
       y1="5"
       x2="11"
       y2="15"
       gradientUnits="userSpaceOnUse" />
    <linearGradient
       inkscape:collect="always"
       xlink:href="#linearGradient1740"
       id="linearGradient1742"
       x1="10.583333"
       y1="12.170834"
       x2="10.583334"
       y2="8.9958334"
       gradientUnits="userSpaceOnUse"
       gradientTransform="matrix(0.33332909,0,0,0.33332909,-0.088193,-0.35277302)" />
    <linearGradient
       inkscape:collect="always"
       id="linearGradient1740">
      <stop
         style="stop-color:#000000;stop-opacity:0"
         offset="0"
         id="stop1736" />
      <stop
         style="stop-color:#000000;stop-opacity:1"
         offset="0.5"
         id="stop1744" />
      <stop
         style="stop-color:#000000;stop-opacity:0;"
         offset="1"
         id="stop1738" />
    </linearGradient>
    <linearGradient
       inkscape:collect="always"
       id="linearGradient1452">
      <stop
         style="stop-color:#50baec;stop-opacity:1"
         offset="0"
         id="stop1448" />
      <stop
         style="stop-color:#1ea1e4;stop-opacity:1"
         offset="1"
         id="stop1450" />
    </linearGradient>
    <linearGradient
       inkscape:collect="always"
       xlink:href="#linearGradient1452"
       id="linearGradient7609"
       x1="15"
       y1="10.499983"
       x2="21"
       y2="10.499983"
       gradientUnits="userSpaceOnUse" />
    <linearGradient
       inkscape:collect="always"
       xlink:href="#linearGradient1452"
       id="linearGradient7655"
       x1="13"
       y1="15"
       x2="13.012762"
       y2="21.053324"
       gradientUnits="userSpaceOnUse" />
  </defs>
  <sodipodi:namedview
     id="base"
     pagecolor="#ffffff"
     bordercolor="#666666"
     borderopacity="1.0"
     inkscape:pageopacity="0.0"
     inkscape:pageshadow="2"
     inkscape:zoom="25.680833"
     inkscape:cx="7.1259371"
     inkscape:cy="7.3401046"
     inkscape:document-units="px"
     inkscape:current-layer="svg1886"
     inkscape:document-rotation="0"
     showgrid="false"
     units="px"
     inkscape:window-width="1920"
     inkscape:window-height="1028"
     inkscape:window-x="0"
     inkscape:window-y="0"
     inkscape:window-maximized="1"
     inkscape:pagecheckerboard="0"
     showguides="false" />
  <metadata
     id="metadata1883">
    <rdf:RDF>
      <cc:Work
         rdf:about="">
        <dc:format>image/svg+xml</dc:format>
        <dc:type
           rdf:resource="http://purl.org/dc/dcmitype/StillImage" />
      </cc:Work>
    </rdf:RDF>
  </metadata>
  <rect
     style="fill:url(#linearGradient5396);stroke-width:0.52916;stroke-linejoin:round;fill-opacity:1"
     id="rect859"
     width="3.7041199"
     height="3.7041199"
     x="0.26458001"
     y="0.26458001"
     ry="0.52916002" />
  <path
     id="rect1065"
     style="fill:url(#linearGradient6150);stroke-width:1.63299;stroke-linejoin:round;fill-opacity:1"
     d="M 11 5 L 11 7 L 11 15 L 13 15 L 13 7 A 2.0000001 2.0000001 0 0 0 11 5 z "
     transform="scale(0.26458)" />
  <rect
     style="opacity:0.4;fill:url(#linearGradient1742);fill-opacity:1;stroke-width:0.0881933"
     id="rect1734"
     width="0.52916002"
     height="1.0583199"
     x="2.9103799"
     y="2.6458001" />
  <path
     id="rect1169"
     style="fill:url(#linearGradient6148);stroke-width:1.51186;stroke-linejoin:round;fill-opacity:1.0"
     d="M 5 11 A 2.0000001 2.0000001 0 0 0 7 13 L 15 13 L 15 11 L 7 11 L 5 11 z "
     transform="scale(0.26458)" />
  <path
     id="rect1599"
     style="fill:#b8c2cc;fill-opacity:1;stroke-width:0.108014"
     d="m 2.9103799,2.91038 c 0,0.1465773 -0.1180027,0.26458 -0.26458,0.26458 H 1.58748 c -0.1465773,0 -0.26458,-0.1180027 -0.26458,-0.26458 3e-7,10e-8 1.5874799,0 1.5874799,0 z"
     sodipodi:nodetypes="csscc" />
  <path
     id="rect1816"
     style="fill:#d83b01;fill-opacity:1;stroke-width:2;stroke-linejoin:round"
     d="M 3.9746094 3 C 3.4326689 3.0136385 3 3.4546563 3 4 L 3 5 L 5 5 L 5 3 L 4 3 C 3.9913437 3 3.9832116 2.9997835 3.9746094 3 z M 6 3 L 6 5 L 8 5 L 8 3 L 6 3 z M 9 3 L 9 5 L 11 5 L 11 4 C 11 3.4459997 10.554 3 10 3 L 9 3 z M 3 6 L 3 8 L 5 8 L 5 6 L 3 6 z M 3 9 L 3 10 C 3 10.554 3.4460001 11 4 11 L 5 11 L 5 9 L 3 9 z "
     transform="scale(0.26458)" />
  <path
     id="path6714"
     style="fill:url(#linearGradient7655);fill-opacity:1;stroke-width:1.66667;stroke-linejoin:round"
     d="M 11 15 L 11 16.050781 C 10.835462 16.017102 10.667949 16.000089 10.5 16 C 9.1192881 16 8.0000001 17.119288 8 18.5 C 8.0000001 19.880712 9.1192881 21 10.5 21 C 11.880712 21 13 19.880712 13 18.5 C 13.000277 18.47852 13.000277 18.457027 13 18.435547 L 13 15 L 11 15 z M 10.5 17 A 1.5 1.5 0 0 1 12 18.5 A 1.5 1.5 0 0 1 10.5 20 A 1.5 1.5 0 0 1 9 18.5 A 1.5 1.5 0 0 1 10.5 17 z "
     transform="scale(0.26458)" />
  <path
     id="path7431"
     style="fill:url(#linearGradient7609);fill-opacity:1.0;stroke-width:1.66667;stroke-linejoin:round"
     d="M 18.435547 8 C 17.084656 8.0342254 16 9.1408619 16 10.5 C 16.000091 10.667949 16.017105 10.835464 16.050781 11 L 15 11 L 15 13 L 18.435547 13 C 18.457026 13.000277 18.478532 13.000277 18.5 13 C 19.880712 13 21 11.880712 21 10.5 C 21 9.1192883 19.880712 8.0000004 18.5 8 C 18.478426 8 18.45699 7.9994567 18.435547 8 z M 18.5 9 A 1.5 1.5 0 0 1 20 10.5 A 1.5 1.5 0 0 1 18.5 12 A 1.5 1.5 0 0 1 17 10.5 A 1.5 1.5 0 0 1 18.5 9 z "
     transform="scale(0.26458)" />
</svg>
