<svg id="Camada_1" data-name="Camada 1" xmlns="http://www.w3.org/2000/svg" xmlns:xlink="http://www.w3.org/1999/xlink" viewBox="0 0 32 32"><defs><style>.cls-1{fill:url(#Gradiente_sem_nome_96);}.cls-2{fill:#fff;}</style><linearGradient id="Gradiente_sem_nome_96" x1="6.0915" y1="6.0915" x2="25.9085" y2="25.9085" gradientUnits="userSpaceOnUse"><stop offset="0" stop-color="#9d67f5"/><stop offset="1" stop-color="#ab1dad"/></linearGradient></defs><path class="cls-1" d="M30,16A14,14,0,1,0,16,30,13.9694,13.9694,0,0,0,30,16Z"/><path class="cls-2" d="M23.41,8.7024c-.4261-.02-1.6256.3731-3.502,1.6785a11.81,11.81,0,0,0-3.5-.3809,13.8175,13.8175,0,0,0-3.4785.3809c-1.877-1.3053-2.8352-1.6967-3.2617-1.6766a.9788.9788,0,0,0-.211.0273,5.8493,5.8493,0,0,0-.1269,3.86A5.2626,5.2626,0,0,0,8,16.2012c0,5.1538,3.34,6.5073,6.25,6.8467a2.8928,2.8928,0,0,0-1.2285,1.6982c-.7466.3443-2.2491.7368-3.418-1.3184A2.7617,2.7617,0,0,0,7.5957,22.041s-1.2777-.0155-.0879.8184a3.535,3.535,0,0,1,1.4551,1.9668s.3842,2.8164,4.0293,2.0039c.0023.395.0036,1.5753.0059,2.8418A13.95,13.95,0,0,0,20,29.416c.0026-1.7836.0059-3.3426.0059-4.0879a2.7831,2.7831,0,0,0-.9883-2.29C21.9362,22.7054,25,21.3662,25,16.1992a5.1979,5.1979,0,0,0-1.248-3.6074,5.85,5.85,0,0,0-.129-3.86.8816.8816,0,0,0-.2109-.0292Z"/></svg>