<?xml version="1.0" encoding="UTF-8"?>
<svg xmlns="http://www.w3.org/2000/svg" xmlns:xlink="http://www.w3.org/1999/xlink" width="22px" height="22px" viewBox="0 0 22 22" version="1.1">
<defs>
<linearGradient id="linear0" gradientUnits="userSpaceOnUse" x1="7.9675" y1="19.4089" x2="15.0657" y2="6.4855" gradientTransform="matrix(1,0,0,-1,0,21.8898)">
<stop offset="0" style="stop-color:rgb(1.960784%,39.215686%,80%);stop-opacity:1;"/>
<stop offset="1" style="stop-color:rgb(1.960784%,23.529412%,56.862745%);stop-opacity:1;"/>
</linearGradient>
<linearGradient id="linear1" gradientUnits="userSpaceOnUse" x1="-449.2961" y1="514.1725" x2="-449.114" y2="511.3799" gradientTransform="matrix(3.9535,0,0,3.9535,1787.6512,-2013.6739)">
<stop offset="0" style="stop-color:rgb(14.117647%,64.705882%,90.196078%);stop-opacity:1;"/>
<stop offset="1" style="stop-color:rgb(21.960784%,80%,96.470588%);stop-opacity:1;"/>
</linearGradient>
<linearGradient id="linear2" gradientUnits="userSpaceOnUse" x1="396.7427" y1="1134.3586" x2="423.6264" y2="1148.0724" gradientTransform="matrix(0.5987,0.0006,-0.0006,0.6019,-237.2182,-669.6307)">
<stop offset="0" style="stop-color:rgb(18.823529%,78.431373%,94.509804%);stop-opacity:1;"/>
<stop offset="1" style="stop-color:rgb(7.058824%,51.372549%,88.627451%);stop-opacity:1;"/>
</linearGradient>
</defs>
<g id="surface1">
<path style=" stroke:none;fill-rule:nonzero;fill:url(#linear0);" d="M 22 7.003906 L 11.769531 0.210938 L 11.6875 0.164062 C 11.660156 0.144531 11.628906 0.136719 11.597656 0.117188 C 11.570312 0.109375 11.535156 0.09375 11.503906 0.0820312 C 11.472656 0.0742188 11.441406 0.0625 11.40625 0.0546875 C 11.375 0.0429688 11.339844 0.0390625 11.304688 0.03125 C 11.269531 0.0195312 11.234375 0.015625 11.199219 0.0117188 L 11.089844 0.00390625 C 11.054688 0.00390625 11.019531 0 10.984375 0 C 10.945312 0 10.914062 0.00390625 10.875 0.00390625 C 10.839844 0.0078125 10.804688 0.0117188 10.769531 0.015625 C 10.734375 0.0195312 10.699219 0.0273438 10.667969 0.0390625 C 10.632812 0.0429688 10.597656 0.0507812 10.566406 0.0585938 C 10.53125 0.0703125 10.496094 0.0820312 10.464844 0.09375 C 10.4375 0.105469 10.402344 0.117188 10.375 0.132812 C 10.34375 0.144531 10.316406 0.164062 10.289062 0.175781 C 10.273438 0.1875 10.253906 0.199219 10.230469 0.210938 L 0 7.003906 L 0 9 L 22 9 Z M 22 7.003906 "/>
<path style=" stroke:none;fill-rule:nonzero;fill:rgb(94.117647%,94.117647%,94.117647%);fill-opacity:1;" d="M 2.648438 7 L 19.351562 7 C 19.730469 7.027344 20.019531 7.351562 20 7.734375 L 20 14.265625 C 20.019531 14.648438 19.730469 14.972656 19.351562 15 L 2.648438 15 C 2.269531 14.972656 1.980469 14.648438 2 14.265625 L 2 7.734375 C 1.980469 7.351562 2.269531 7.027344 2.648438 7 Z M 2.648438 7 "/>
<path style=" stroke:none;fill-rule:nonzero;fill:url(#linear1);" d="M 0.65625 20.355469 C 1.0625 20.765625 1.621094 21 2.203125 21 L 19.8125 21 C 20.382812 21.015625 20.9375 20.792969 21.335938 20.382812 C 21.75 19.957031 21.988281 19.390625 22 18.792969 L 22 7.007812 Z M 0.65625 20.355469 "/>
<path style=" stroke:none;fill-rule:nonzero;fill:url(#linear2);" d="M 21.355469 20.359375 C 20.941406 20.773438 20.382812 21.003906 19.796875 21 L 2.179688 20.980469 C 1.609375 20.996094 1.058594 20.769531 0.660156 20.355469 C 0.246094 19.929688 0.0117188 19.359375 0 18.761719 L 0.0117188 7 Z M 21.355469 20.359375 "/>
</g>
</svg>
