<?xml version="1.0" encoding="UTF-8"?>
<svg xmlns="http://www.w3.org/2000/svg" xmlns:xlink="http://www.w3.org/1999/xlink" width="22px" height="22px" viewBox="0 0 22 22" version="1.1">
<defs>
<linearGradient id="linear0" gradientUnits="userSpaceOnUse" x1="2.7751" y1="3.3964" x2="19.2249" y2="19.8462" >
<stop offset="0" style="stop-color:rgb(2.352941%,41.176471%,73.72549%);stop-opacity:1;"/>
<stop offset="1" style="stop-color:rgb(14.117647%,22.745098%,37.254902%);stop-opacity:1;"/>
</linearGradient>
<linearGradient id="linear1" gradientUnits="userSpaceOnUse" x1="-30.7222" y1="24.296" x2="-30.7222" y2="22.9731" gradientTransform="matrix(3.7796,0,0,-3.7796,122.1178,92.8292)">
<stop offset="0" style="stop-color:rgb(18.823529%,85.490196%,100%);stop-opacity:1;"/>
<stop offset="1" style="stop-color:rgb(2.352941%,49.411765%,74.509804%);stop-opacity:1;"/>
</linearGradient>
<linearGradient id="linear2" gradientUnits="userSpaceOnUse" x1="11" y1="1" x2="11" y2="3" >
<stop offset="0" style="stop-color:rgb(13.333333%,73.72549%,100%);stop-opacity:1;"/>
<stop offset="1" style="stop-color:rgb(2.352941%,49.411765%,74.509804%);stop-opacity:1;"/>
</linearGradient>
<linearGradient id="linear3" gradientUnits="userSpaceOnUse" x1="-21.7416" y1="24.296" x2="-21.7416" y2="22.9731" gradientTransform="matrix(-3.7796,0.000000000000000463,-0.000000000000000463,-3.7796,-66.1744,92.8292)">
<stop offset="0" style="stop-color:rgb(18.823529%,85.490196%,100%);stop-opacity:1;"/>
<stop offset="1" style="stop-color:rgb(2.352941%,49.411765%,74.509804%);stop-opacity:1;"/>
</linearGradient>
</defs>
<g id="surface1">
<path style=" stroke:none;fill-rule:nonzero;fill:url(#linear0);" d="M 3 4 L 19 4 C 20.105469 4 21 4.894531 21 6 L 21 16 C 21 18.761719 18.761719 21 16 21 L 6 21 C 3.238281 21 1 18.761719 1 16 L 1 6 C 1 4.894531 1.894531 4 3 4 Z M 3 4 "/>
<path style=" stroke:none;fill-rule:nonzero;fill:url(#linear1);" d="M 6.976562 1 C 6.757812 1.003906 5 1.082031 5 2.332031 L 5 5.496094 C 5.03125 5.800781 5.300781 6.027344 5.605469 6 L 6.394531 6 C 6.699219 6.027344 6.96875 5.800781 7 5.496094 L 7 1 C 7 1 6.992188 1 6.976562 1 Z M 6.976562 1 "/>
<path style=" stroke:none;fill-rule:nonzero;fill:url(#linear2);" d="M 7 1 L 15 1 L 15 3 L 7 3 Z M 7 1 "/>
<path style=" stroke:none;fill-rule:nonzero;fill:url(#linear3);" d="M 15.023438 1 C 15.242188 1.003906 17 1.082031 17 2.332031 L 17 5.496094 C 16.96875 5.800781 16.699219 6.027344 16.394531 6 L 15.605469 6 C 15.300781 6.027344 15.03125 5.800781 15 5.496094 L 15 1 C 15 1 15.007812 1 15.023438 1 Z M 15.023438 1 "/>
<path style=" stroke:none;fill-rule:nonzero;fill:rgb(94.901961%,31.372549%,13.333333%);fill-opacity:1;" d="M 7.5625 10.3125 L 8.9375 10.3125 C 9.695312 10.3125 10.3125 10.929688 10.3125 11.6875 L 10.3125 13.0625 C 10.3125 13.820312 9.695312 14.4375 8.9375 14.4375 L 7.5625 14.4375 C 6.804688 14.4375 6.1875 13.820312 6.1875 13.0625 L 6.1875 11.6875 C 6.1875 10.929688 6.804688 10.3125 7.5625 10.3125 Z M 7.5625 10.3125 "/>
<path style=" stroke:none;fill-rule:nonzero;fill:rgb(49.803922%,72.941176%,0%);fill-opacity:1;" d="M 13.0625 11.6875 C 11.921875 11.6875 11 10.765625 11 9.625 C 11 8.484375 11.921875 7.5625 13.0625 7.5625 C 14.203125 7.5625 15.125 8.484375 15.125 9.625 C 15.125 10.765625 14.203125 11.6875 13.0625 11.6875 Z M 13.0625 11.6875 "/>
<path style=" stroke:none;fill-rule:nonzero;fill:rgb(100%,72.54902%,0%);fill-opacity:1;" d="M 14.25 12.457031 L 11.292969 14.25 C 11.109375 14.367188 11 14.566406 11 14.78125 C 11 14.996094 11.109375 15.195312 11.292969 15.3125 L 14.25 17.105469 C 14.429688 17.214844 14.652344 17.214844 14.832031 17.105469 C 15.015625 16.988281 15.128906 16.785156 15.125 16.566406 L 15.125 12.996094 C 15.128906 12.777344 15.015625 12.574219 14.832031 12.457031 C 14.652344 12.347656 14.429688 12.347656 14.25 12.457031 Z M 14.25 12.457031 "/>
</g>
</svg>
