<svg id="Camada_1" data-name="Camada 1" xmlns="http://www.w3.org/2000/svg" xmlns:xlink="http://www.w3.org/1999/xlink" viewBox="0 0 8 8"><defs><style>.cls-1{fill:url(#Gradiente_sem_nome_23);}.cls-2{fill:url(#Gradiente_sem_nome_71);}.cls-3{fill:url(#Gradiente_sem_nome_129);}.cls-4{fill:url(#Gradiente_sem_nome_199);}.cls-5{fill:url(#Gradiente_sem_nome_359);}</style><linearGradient id="Gradiente_sem_nome_23" x1="1.1971" y1="0.2816" x2="3.4395" y2="2.524" gradientUnits="userSpaceOnUse"><stop offset="0" stop-color="#ee0979"/><stop offset="1" stop-color="#ff6a00"/></linearGradient><linearGradient id="Gradiente_sem_nome_71" x1="4.8613" y1="1.268" x2="6.9698" y2="3.3765" gradientUnits="userSpaceOnUse"><stop offset="0" stop-color="#ffe100"/><stop offset="1" stop-color="#e67b25"/></linearGradient><linearGradient id="Gradiente_sem_nome_129" x1="4.7706" y1="4.9696" x2="7.0518" y2="7.2509" gradientUnits="userSpaceOnUse"><stop offset="0" stop-color="#ff4800"/><stop offset="1" stop-color="#d42700"/></linearGradient><linearGradient id="Gradiente_sem_nome_199" x1="5.2344" y1="4.1125" x2="6.0219" y2="4.9" gradientUnits="userSpaceOnUse"><stop offset="0" stop-color="#b4f000"/><stop offset="1" stop-color="#00a148"/></linearGradient><linearGradient id="Gradiente_sem_nome_359" x1="1.3811" y1="5.1465" x2="2.9667" y2="6.732" gradientUnits="userSpaceOnUse"><stop offset="0" stop-color="#8a8378"/><stop offset="1" stop-color="#171a2e"/></linearGradient></defs><path class="cls-1" d="M2.1567,3.4833.7947,2.0785A1.0092,1.0092,0,0,1,.865.618.9672.9672,0,0,1,2.1778.7092l.1406.1475L2.452.7092A.9761.9761,0,0,1,3.7725.618a1.0138,1.0138,0,0,1,.0632,1.4605L2.48,3.4833a.225.225,0,0,1-.3234,0Z"/><path class="cls-2" d="M6.3655.85a.45.45,0,1,1-.45-.45A.45.45,0,0,1,6.3655.85ZM5.803,3.1v.675a.225.225,0,1,1-.45,0V2.4236L5.206,2.657a.2249.2249,0,0,1-.31.071.231.231,0,0,1-.0706-.3164l.28-.4394a.9573.9573,0,0,1,1.62,0l.2806.4394a.2314.2314,0,0,1-.07.3164.2254.2254,0,0,1-.3108-.071l-.147-.2334V3.775a.225.225,0,1,1-.45,0V3.1Z"/><path class="cls-3" d="M4.3471,6.025C4.3379,6.7366,4.7907,7.6,5.4657,7.6c.225,0,.3375-.1125.45-.1125s.225.1125.45.1125c.6688,0,1.1224-.8721,1.1187-1.575C7.4815,5.48,7.2594,4.9,6.6906,4.9a2.0592,2.0592,0,0,0-.7812.2252A2.0851,2.0851,0,0,0,5.1219,4.9C4.5594,4.9,4.3365,5.4878,4.3471,6.025Z"/><path class="cls-4" d="M5.7969,4.9h.225V4.675a.5624.5624,0,0,0-.5625-.5625h-.225v.225A.5624.5624,0,0,0,5.7969,4.9Z"/><path class="cls-5" d="M4.0854,4.8585a.1136.1136,0,0,0-.1905-.0517l-.5392.5393H2.77V4.7607L3.31,4.2214a.1135.1135,0,0,0-.0516-.19,1.1388,1.1388,0,0,0-.5348.0017,1.126,1.126,0,0,0-.84.9108,1.0336,1.0336,0,0,0,.0359.53L.6648,6.728a.5068.5068,0,0,0,0,.717.4825.4825,0,0,0,.3459.155.5163.5163,0,0,0,.3586-.1486L2.6238,6.1969a1.1394,1.1394,0,0,0,.5366.0423,1.1263,1.1263,0,0,0,.9107-.84A1.028,1.028,0,0,0,4.0854,4.8585Z"/></svg>