<?xml version="1.0" encoding="UTF-8"?>
<svg xmlns="http://www.w3.org/2000/svg" xmlns:xlink="http://www.w3.org/1999/xlink" width="22px" height="22px" viewBox="0 0 22 22" version="1.1">
<defs>
<linearGradient id="linear0" gradientUnits="userSpaceOnUse" x1="1.8135" y1="22.1862" x2="20.1863" y2="3.8134" gradientTransform="matrix(1,0,0,-1,0.0001,23.9998)">
<stop offset="0" style="stop-color:rgb(20%,20%,20%);stop-opacity:1;"/>
<stop offset="1" style="stop-color:rgb(13.72549%,13.333333%,13.72549%);stop-opacity:1;"/>
</linearGradient>
<filter id="alpha" filterUnits="objectBoundingBox" x="0%" y="0%" width="100%" height="100%">
  <feColorMatrix type="matrix" in="SourceGraphic" values="0 0 0 0 1 0 0 0 0 1 0 0 0 0 1 0 0 0 1 0"/>
</filter>
<mask id="mask0">
  <g filter="url(#alpha)">
<rect x="0" y="0" width="22" height="22" style="fill:rgb(0%,0%,0%);fill-opacity:0.431373;stroke:none;"/>
  </g>
</mask>
<clipPath id="clip1">
  <rect x="0" y="0" width="22" height="22"/>
</clipPath>
<g id="surface5" clip-path="url(#clip1)">
<path style="fill:none;stroke-width:0.1573;stroke-linecap:butt;stroke-linejoin:miter;stroke:rgb(25.882353%,82.352941%,69.803922%);stroke-opacity:1;stroke-miterlimit:4;" d="M 2.277344 5 L 2.253906 16.832031 "/>
<path style="fill:none;stroke-width:0.1573;stroke-linecap:butt;stroke-linejoin:miter;stroke:rgb(25.882353%,82.352941%,69.803922%);stroke-opacity:1;stroke-miterlimit:4;" d="M 4.40625 5 L 4.382812 16.832031 "/>
<path style="fill:none;stroke-width:0.1573;stroke-linecap:butt;stroke-linejoin:miter;stroke:rgb(25.882353%,82.352941%,69.803922%);stroke-opacity:1;stroke-miterlimit:4;" d="M 6.578125 5 L 6.558594 16.832031 "/>
<path style="fill:none;stroke-width:0.1573;stroke-linecap:butt;stroke-linejoin:miter;stroke:rgb(25.882353%,82.352941%,69.803922%);stroke-opacity:1;stroke-miterlimit:4;" d="M 8.746094 5 L 8.726562 16.832031 "/>
<path style="fill:none;stroke-width:0.1573;stroke-linecap:butt;stroke-linejoin:miter;stroke:rgb(25.882353%,82.352941%,69.803922%);stroke-opacity:1;stroke-miterlimit:4;" d="M 10.898438 5 L 10.878906 16.832031 "/>
<path style="fill:none;stroke-width:0.1573;stroke-linecap:butt;stroke-linejoin:miter;stroke:rgb(25.882353%,82.352941%,69.803922%);stroke-opacity:1;stroke-miterlimit:4;" d="M 13.074219 5 L 13.050781 16.832031 "/>
<path style="fill:none;stroke-width:0.1573;stroke-linecap:butt;stroke-linejoin:miter;stroke:rgb(25.882353%,82.352941%,69.803922%);stroke-opacity:1;stroke-miterlimit:4;" d="M 15.257812 5 L 15.234375 16.832031 "/>
<path style="fill:none;stroke-width:0.1573;stroke-linecap:butt;stroke-linejoin:miter;stroke:rgb(25.882353%,82.352941%,69.803922%);stroke-opacity:1;stroke-miterlimit:4;" d="M 17.394531 5 L 17.371094 16.832031 "/>
<path style="fill:none;stroke-width:0.1573;stroke-linecap:butt;stroke-linejoin:miter;stroke:rgb(25.882353%,82.352941%,69.803922%);stroke-opacity:1;stroke-miterlimit:4;" d="M 19.5625 5 L 19.539062 16.832031 "/>
<path style="fill:none;stroke-width:0.1573;stroke-linecap:butt;stroke-linejoin:miter;stroke:rgb(25.882353%,82.352941%,69.803922%);stroke-opacity:1;stroke-miterlimit:4;" d="M 2 5.960938 L 20 5.960938 "/>
<path style="fill:none;stroke-width:0.1573;stroke-linecap:butt;stroke-linejoin:miter;stroke:rgb(25.882353%,82.352941%,69.803922%);stroke-opacity:1;stroke-miterlimit:4;" d="M 2 7.617188 L 20 7.617188 "/>
<path style="fill:none;stroke-width:0.1573;stroke-linecap:butt;stroke-linejoin:miter;stroke:rgb(25.882353%,82.352941%,69.803922%);stroke-opacity:1;stroke-miterlimit:4;" d="M 2 9.277344 L 20 9.277344 "/>
<path style="fill:none;stroke-width:0.1573;stroke-linecap:butt;stroke-linejoin:miter;stroke:rgb(25.882353%,82.352941%,69.803922%);stroke-opacity:1;stroke-miterlimit:4;" d="M 2 10.929688 L 20 10.929688 "/>
<path style="fill:none;stroke-width:0.1573;stroke-linecap:butt;stroke-linejoin:miter;stroke:rgb(25.882353%,82.352941%,69.803922%);stroke-opacity:1;stroke-miterlimit:4;" d="M 2 12.585938 L 20 12.585938 "/>
<path style="fill:none;stroke-width:0.1573;stroke-linecap:butt;stroke-linejoin:miter;stroke:rgb(25.882353%,82.352941%,69.803922%);stroke-opacity:1;stroke-miterlimit:4;" d="M 2 14.238281 L 20 14.238281 "/>
<path style="fill:none;stroke-width:0.1573;stroke-linecap:butt;stroke-linejoin:miter;stroke:rgb(25.882353%,82.352941%,69.803922%);stroke-opacity:1;stroke-miterlimit:4;" d="M 2 15.898438 L 20 15.898438 "/>
</g>
<linearGradient id="linear1" gradientUnits="userSpaceOnUse" x1="32.8816" y1="76.7169" x2="32.8816" y2="63.1051" gradientTransform="matrix(0.7391,0,0,-0.7083,-13.3044,61.6992)">
<stop offset="0" style="stop-color:rgb(51.372549%,88.627451%,80.392157%);stop-opacity:1;"/>
<stop offset="1" style="stop-color:rgb(9.019608%,37.254902%,30.980392%);stop-opacity:1;"/>
</linearGradient>
</defs>
<g id="surface1">
<path style=" stroke:none;fill-rule:nonzero;fill:url(#linear0);" d="M 1.101562 3 L 20.898438 3 C 21.492188 2.984375 21.984375 3.453125 22 4.042969 L 22 17.957031 C 21.984375 18.546875 21.492188 19.015625 20.898438 19 L 1.101562 19 C 0.507812 19.015625 0.015625 18.546875 0 17.957031 L 0 4.042969 C 0.015625 3.453125 0.507812 2.984375 1.101562 3 Z M 1.101562 3 "/>
<use xlink:href="#surface5" mask="url(#mask0)"/>
<path style=" stroke:none;fill-rule:nonzero;fill:url(#linear1);" d="M 2 11.460938 L 2 16.636719 C 2 16.660156 2.003906 16.683594 2.007812 16.707031 C 2.019531 16.753906 2.039062 16.800781 2.066406 16.839844 C 2.082031 16.859375 2.097656 16.875 2.117188 16.894531 C 2.132812 16.910156 2.152344 16.925781 2.175781 16.9375 C 2.195312 16.949219 2.21875 16.960938 2.242188 16.972656 C 2.265625 16.980469 2.289062 16.988281 2.316406 16.992188 C 2.339844 16.996094 2.367188 17 2.394531 17 L 19.605469 17 C 19.632812 17 19.660156 16.996094 19.683594 16.992188 C 19.710938 16.988281 19.734375 16.980469 19.757812 16.972656 C 19.78125 16.960938 19.804688 16.949219 19.828125 16.9375 C 19.847656 16.925781 19.867188 16.910156 19.882812 16.894531 C 19.902344 16.875 19.917969 16.859375 19.933594 16.839844 C 19.960938 16.800781 19.980469 16.753906 19.992188 16.707031 C 19.996094 16.683594 20 16.660156 20 16.636719 L 20 12.429688 L 15.023438 12.429688 L 13.957031 8.066406 L 13.160156 12.667969 L 12.363281 12.667969 L 11.675781 11.011719 L 11.296875 11.011719 L 10.898438 10.070312 L 9.566406 10.183594 L 9.257812 8.773438 L 8.105469 7.359375 L 7.472656 11.84375 L 6.960938 12.554688 L 6.101562 11.484375 Z M 2 11.460938 "/>
<path style="fill:none;stroke-width:0.5;stroke-linecap:butt;stroke-linejoin:round;stroke:rgb(25.882353%,82.352941%,69.803922%);stroke-opacity:1;stroke-miterlimit:4;" d="M 2 11.484375 L 6.101562 11.484375 L 6.90625 12.429688 L 7.441406 11.722656 L 8.105469 7.234375 L 9.167969 8.652344 L 9.566406 10.183594 L 10.898438 10.070312 L 11.296875 11.011719 L 11.675781 11.011719 L 12.363281 12.667969 L 13.160156 12.667969 L 13.957031 7.828125 L 15.023438 12.429688 L 20 12.429688 "/>
</g>
</svg>
