<svg width="16" height="16" id="Camada_1" data-name="Camada 1" xmlns="http://www.w3.org/2000/svg" xmlns:xlink="http://www.w3.org/1999/xlink" viewBox="0 0 16 16"><defs><style>.cls-1{fill:url(#Gradiente_sem_nome_3);}.cls-2{fill:url(#Gradiente_sem_nome_5);}.cls-3{fill:url(#Gradiente_sem_nome_25);}.cls-4{fill:url(#Gradiente_sem_nome_25-2);}.cls-5{fill:url(#Gradiente_sem_nome_2);}</style><linearGradient id="Gradiente_sem_nome_3" x1="3.1312" y1="4.8688" x2="12.8688" y2="14.6064" gradientUnits="userSpaceOnUse"><stop offset="0" stop-color="#899097"/><stop offset="1" stop-color="#5f6469"/></linearGradient><linearGradient id="Gradiente_sem_nome_5" x1="4.1312" y1="2.3936" x2="11.8688" y2="10.1312" gradientUnits="userSpaceOnUse"><stop offset="0" stop-color="#7b8187"/><stop offset="1" stop-color="#555a5e"/></linearGradient><linearGradient id="Gradiente_sem_nome_25" x1="2.8781" y1="6.3781" x2="4.1219" y2="7.6219" gradientUnits="userSpaceOnUse"><stop offset="0" stop-color="#fff"/><stop offset="1" stop-color="#ccc"/></linearGradient><linearGradient id="Gradiente_sem_nome_25-2" x1="11.8781" y1="6.3781" x2="13.1219" y2="7.6219" xlink:href="#Gradiente_sem_nome_25"/><linearGradient id="Gradiente_sem_nome_2" x1="6.1129" y1="2.3387" x2="9.8871" y2="6.1129" gradientUnits="userSpaceOnUse"><stop offset="0" stop-color="#4c5054"/><stop offset="1" stop-color="#4c5054"/></linearGradient></defs><path class="cls-1" d="M1,7H15a0,0,0,0,1,0,0v5.1042A.8958.8958,0,0,1,14.1042,13H1.8958A.8958.8958,0,0,1,1,12.1042V7A0,0,0,0,1,1,7Z"/><path class="cls-2" d="M1.8958,5H14.1042A.8958.8958,0,0,1,15,5.8958V7a0,0,0,0,1,0,0H1A0,0,0,0,1,1,7V5.8958A.8958.8958,0,0,1,1.8958,5Z"/><rect class="cls-3" x="3" y="6" width="1" height="2" rx="0.4375"/><rect class="cls-4" x="12" y="6" width="1" height="2" rx="0.4375"/><path class="cls-5" d="M5.7708,3A.7708.7708,0,0,0,5,3.7708V5H6V4h4V5h1V3.7708A.7708.7708,0,0,0,10.2292,3Z"/></svg>