<?xml version="1.0" encoding="UTF-8"?>
<svg xmlns="http://www.w3.org/2000/svg" xmlns:xlink="http://www.w3.org/1999/xlink" width="32px" height="32px" viewBox="0 0 32 32" version="1.1">
<defs>
<linearGradient id="linear0" gradientUnits="userSpaceOnUse" x1="11.6194" y1="3.5841" x2="21.9026" y2="22.3063" >
<stop offset="0" style="stop-color:rgb(1.960784%,39.215686%,80%);stop-opacity:1;"/>
<stop offset="1" style="stop-color:rgb(1.960784%,23.529412%,56.862745%);stop-opacity:1;"/>
</linearGradient>
<linearGradient id="linear1" gradientUnits="userSpaceOnUse" x1="-11.7085" y1="19.3075" x2="-11.4598" y2="23.1208" gradientTransform="matrix(3.9535,0,0,-3.9535,62.8072,103.8026)">
<stop offset="0" style="stop-color:rgb(14.117647%,64.705882%,90.196078%);stop-opacity:1;"/>
<stop offset="1" style="stop-color:rgb(21.960784%,80%,96.470588%);stop-opacity:1;"/>
</linearGradient>
<linearGradient id="linear2" gradientUnits="userSpaceOnUse" x1="4.7103" y1="-32.7927" x2="43.1821" y2="-52.4177" gradientTransform="matrix(0.5987,0.0006,0.0006,-0.6019,-3.1181,-0.0266)">
<stop offset="0" style="stop-color:rgb(18.823529%,78.431373%,94.509804%);stop-opacity:1;"/>
<stop offset="1" style="stop-color:rgb(7.058824%,51.372549%,88.627451%);stop-opacity:1;"/>
</linearGradient>
</defs>
<g id="surface1">
<path style=" stroke:none;fill-rule:nonzero;fill:url(#linear0);" d="M 32 10.117188 L 17.117188 0.304688 C 17.078125 0.28125 17.039062 0.257812 17 0.234375 C 16.960938 0.210938 16.914062 0.195312 16.871094 0.171875 C 16.828125 0.15625 16.78125 0.136719 16.734375 0.121094 C 16.6875 0.105469 16.640625 0.0898438 16.59375 0.078125 C 16.546875 0.0625 16.492188 0.0546875 16.445312 0.0429688 C 16.394531 0.03125 16.34375 0.0234375 16.289062 0.015625 C 16.238281 0.0117188 16.1875 0.0078125 16.132812 0.00390625 C 16.082031 0.00390625 16.03125 0 15.976562 0 C 15.921875 0 15.875 0.00390625 15.820312 0.0078125 C 15.769531 0.0117188 15.71875 0.015625 15.664062 0.0234375 C 15.613281 0.03125 15.5625 0.0390625 15.515625 0.0546875 C 15.464844 0.0625 15.414062 0.0742188 15.367188 0.0859375 C 15.316406 0.101562 15.269531 0.117188 15.222656 0.132812 C 15.179688 0.152344 15.132812 0.171875 15.089844 0.191406 C 15.046875 0.210938 15.007812 0.234375 14.96875 0.253906 C 14.9375 0.273438 14.914062 0.289062 14.882812 0.304688 L 0 10.117188 L 0 13 L 32 13 Z M 32 10.117188 "/>
<path style=" stroke:none;fill-rule:nonzero;fill:rgb(94.117647%,94.117647%,94.117647%);fill-opacity:1;" d="M 3.007812 11 L 28.992188 11 C 29.546875 11 30 11.453125 30 12.007812 L 30 20.992188 C 30 21.546875 29.546875 22 28.992188 22 L 3.007812 22 C 2.453125 22 2 21.546875 2 20.992188 L 2 12.007812 C 2 11.453125 2.453125 11 3.007812 11 Z M 3.007812 11 "/>
<path style=" stroke:none;fill-rule:nonzero;fill:url(#linear1);" d="M 0.953125 29.125 C 1.5625 29.691406 2.367188 30.003906 3.203125 30 L 28.820312 30 C 29.640625 30.023438 30.4375 29.726562 31.03125 29.164062 C 31.625 28.601562 31.976562 27.828125 32 27.007812 L 32 11.011719 Z M 0.953125 29.125 "/>
<path style=" stroke:none;fill-rule:nonzero;fill:url(#linear2);" d="M 31.0625 29.132812 C 30.445312 29.703125 29.632812 30.007812 28.796875 30 L 3.171875 29.976562 C 2.351562 30 1.554688 29.695312 0.960938 29.128906 C 0.367188 28.5625 0.0195312 27.785156 0 26.964844 L 0.015625 11 Z M 31.0625 29.132812 "/>
</g>
</svg>
