<?xml version="1.0" encoding="UTF-8"?>
<svg xmlns="http://www.w3.org/2000/svg" xmlns:xlink="http://www.w3.org/1999/xlink" width="32px" height="32px" viewBox="0 0 32 32" version="1.1">
<defs>
<linearGradient id="linear0" gradientUnits="userSpaceOnUse" x1="4" y1="19.5" x2="24" y2="19.5" gradientTransform="matrix(1,0,0,-1,0,34)">
<stop offset="0" style="stop-color:rgb(25.882353%,63.921569%,94.901961%);stop-opacity:1;"/>
<stop offset="1" style="stop-color:rgb(25.882353%,64.313725%,92.156863%);stop-opacity:1;"/>
</linearGradient>
<linearGradient id="linear1" gradientUnits="userSpaceOnUse" x1="16" y1="20" x2="24" y2="20" gradientTransform="matrix(1,0,0,-1,0,34)">
<stop offset="0" style="stop-color:rgb(9.803922%,31.764706%,65.882353%);stop-opacity:1;"/>
<stop offset="0.175" style="stop-color:rgb(9.803922%,33.333333%,69.019608%);stop-opacity:1;"/>
<stop offset="0.505" style="stop-color:rgb(9.803922%,35.294118%,72.54902%);stop-opacity:1;"/>
<stop offset="1" style="stop-color:rgb(9.803922%,35.686275%,73.72549%);stop-opacity:1;"/>
</linearGradient>
</defs>
<g id="surface1">
<path style=" stroke:none;fill-rule:nonzero;fill:url(#linear0);" d="M 22.503906 4 L 5.335938 4 C 4.597656 4 4 4.597656 4 5.335938 L 4 25 L 24 25 L 24 5.496094 C 24 4.671875 23.328125 4 22.503906 4 Z M 22.503906 4 "/>
<path style=" stroke:none;fill-rule:nonzero;fill:url(#linear1);" d="M 16 4 L 22.664062 4 C 23.402344 4 24 4.597656 24 5.335938 L 24 24 L 16 24 Z M 16 4 "/>
<path style=" stroke:none;fill-rule:nonzero;fill:rgb(9.411765%,30.980392%,52.156863%);fill-opacity:1;" d="M 4 24 L 26.664062 24 C 27.402344 24 28 24.597656 28 25.335938 L 28 26.664062 C 28 27.402344 27.402344 28 26.664062 28 L 5.335938 28 C 4.597656 28 4 27.402344 4 26.664062 Z M 4 24 "/>
<path style=" stroke:none;fill-rule:nonzero;fill:rgb(100%,100%,100%);fill-opacity:1;" d="M 7.5 27 L 6.5 27 C 6.226562 27 6 26.773438 6 26.5 L 6 25.5 C 6 25.226562 6.226562 25 6.5 25 L 7.5 25 C 7.773438 25 8 25.226562 8 25.5 L 8 26.5 C 8 26.773438 7.773438 27 7.5 27 Z M 7.5 27 "/>
<path style=" stroke:none;fill-rule:nonzero;fill:rgb(100%,100%,100%);fill-opacity:1;" d="M 6.5 6 L 13.5 6 C 13.773438 6 14 6.226562 14 6.5 C 14 6.773438 13.773438 7 13.5 7 L 6.5 7 C 6.226562 7 6 6.773438 6 6.5 C 6 6.226562 6.226562 6 6.5 6 Z M 6.5 6 "/>
<path style=" stroke:none;fill-rule:nonzero;fill:rgb(100%,100%,100%);fill-opacity:1;" d="M 6.5 9 L 13.5 9 C 13.773438 9 14 9.226562 14 9.5 C 14 9.773438 13.773438 10 13.5 10 L 6.5 10 C 6.226562 10 6 9.773438 6 9.5 C 6 9.226562 6.226562 9 6.5 9 Z M 6.5 9 "/>
<path style=" stroke:none;fill-rule:nonzero;fill:rgb(100%,100%,100%);fill-opacity:1;" d="M 17.5 21 L 22.5 21 C 22.773438 21 23 21.226562 23 21.5 C 23 21.773438 22.773438 22 22.5 22 L 17.5 22 C 17.226562 22 17 21.773438 17 21.5 C 17 21.226562 17.226562 21 17.5 21 Z M 17.5 21 "/>
</g>
</svg>
