<?xml version="1.0" encoding="UTF-8"?>
<svg xmlns="http://www.w3.org/2000/svg" xmlns:xlink="http://www.w3.org/1999/xlink" width="32px" height="32px" viewBox="0 0 32 32" version="1.1">
<defs>
<linearGradient id="linear0" gradientUnits="userSpaceOnUse" x1="4.3614" y1="4.4413" x2="29.9468" y2="30.0267" >
<stop offset="0" style="stop-color:rgb(2.352941%,41.176471%,73.72549%);stop-opacity:1;"/>
<stop offset="1" style="stop-color:rgb(14.117647%,22.745098%,37.254902%);stop-opacity:1;"/>
</linearGradient>
<linearGradient id="linear1" gradientUnits="userSpaceOnUse" x1="-26.2513" y1="30.3543" x2="-26.2513" y2="28.5023" gradientTransform="matrix(3.7796,0,0,-3.7796,108.2197,116.7273)">
<stop offset="0" style="stop-color:rgb(18.823529%,85.490196%,100%);stop-opacity:1;"/>
<stop offset="1" style="stop-color:rgb(2.352941%,49.411765%,74.509804%);stop-opacity:1;"/>
</linearGradient>
<linearGradient id="linear2" gradientUnits="userSpaceOnUse" x1="16" y1="2.0002" x2="16" y2="4" >
<stop offset="0" style="stop-color:rgb(13.333333%,73.72549%,100%);stop-opacity:1;"/>
<stop offset="1" style="stop-color:rgb(2.352941%,49.411765%,74.509804%);stop-opacity:1;"/>
</linearGradient>
<linearGradient id="linear3" gradientUnits="userSpaceOnUse" x1="-17.2707" y1="30.3543" x2="-17.2707" y2="28.5023" gradientTransform="matrix(-3.7796,0.000000000000000463,-0.000000000000000463,-3.7796,-42.2764,116.7273)">
<stop offset="0" style="stop-color:rgb(18.823529%,85.490196%,100%);stop-opacity:1;"/>
<stop offset="1" style="stop-color:rgb(2.352941%,49.411765%,74.509804%);stop-opacity:1;"/>
</linearGradient>
</defs>
<g id="surface1">
<path style=" stroke:none;fill-rule:nonzero;fill:url(#linear0);" d="M 28.632812 6 L 3.367188 6 C 2.613281 6 2 6.613281 2 7.367188 L 2 22.074219 C 2 26.453125 5.546875 30 9.925781 30 L 22.074219 30 C 26.453125 30 30 26.453125 30 22.074219 L 30 7.367188 C 30 6.613281 29.386719 6 28.632812 6 Z M 28.632812 6 "/>
<path style=" stroke:none;fill-rule:nonzero;fill:url(#linear1);" d="M 9.976562 2 C 9.46875 1.980469 8.96875 2.164062 8.59375 2.515625 C 8.226562 2.867188 8.007812 3.355469 8 3.867188 L 8 8.292969 C 7.976562 8.65625 8.242188 8.96875 8.605469 9 L 9.394531 9 C 9.757812 8.96875 10.027344 8.65625 10 8.292969 L 10 2 C 10 2 9.992188 2 9.976562 2 Z M 9.976562 2 "/>
<path style=" stroke:none;fill-rule:nonzero;fill:url(#linear2);" d="M 10 2 L 22 2 L 22 4 L 10 4 Z M 10 2 "/>
<path style=" stroke:none;fill-rule:nonzero;fill:url(#linear3);" d="M 22.023438 2 C 22.53125 1.980469 23.03125 2.164062 23.40625 2.515625 C 23.773438 2.867188 23.992188 3.355469 24 3.867188 L 24 8.292969 C 24.027344 8.65625 23.757812 8.96875 23.394531 9 L 22.605469 9 C 22.242188 8.96875 21.972656 8.65625 22 8.292969 L 22 2 C 22 2 22.007812 2 22.023438 2 Z M 22.023438 2 "/>
<path style=" stroke:none;fill-rule:nonzero;fill:rgb(94.901961%,31.372549%,13.333333%);fill-opacity:1;" d="M 11 15 L 13 15 C 14.105469 15 15 15.894531 15 17 L 15 19 C 15 20.105469 14.105469 21 13 21 L 11 21 C 9.894531 21 9 20.105469 9 19 L 9 17 C 9 15.894531 9.894531 15 11 15 Z M 11 15 "/>
<path style=" stroke:none;fill-rule:nonzero;fill:rgb(49.803922%,72.941176%,0%);fill-opacity:1;" d="M 19 17 C 17.34375 17 16 15.65625 16 14 C 16 12.34375 17.34375 11 19 11 C 20.65625 11 22 12.34375 22 14 C 22 15.65625 20.65625 17 19 17 Z M 19 17 "/>
<path style=" stroke:none;fill-rule:nonzero;fill:rgb(100%,72.54902%,0%);fill-opacity:1;" d="M 20.726562 18.117188 L 16.421875 20.726562 C 16.160156 20.898438 16 21.1875 16 21.5 C 16 21.8125 16.160156 22.101562 16.421875 22.273438 L 20.726562 24.882812 C 20.984375 25.039062 21.3125 25.039062 21.578125 24.878906 C 21.84375 24.710938 22.003906 24.414062 22 24.09375 L 22 18.90625 C 22.003906 18.585938 21.84375 18.289062 21.578125 18.125 C 21.3125 17.960938 20.984375 17.960938 20.726562 18.117188 Z M 20.726562 18.117188 "/>
</g>
</svg>
