<?xml version="1.0" encoding="UTF-8"?>
<svg xmlns="http://www.w3.org/2000/svg" xmlns:xlink="http://www.w3.org/1999/xlink" width="32px" height="32px" viewBox="0 0 32 32" version="1.1">
<defs>
<linearGradient id="linear0" gradientUnits="userSpaceOnUse" x1="1.6117" y1="-85.1417" x2="25.7345" y2="-59.5519" gradientTransform="matrix(1,0,0,1,0,86)">
<stop offset="0" style="stop-color:rgb(49.019608%,84.705882%,95.294118%);stop-opacity:1;"/>
<stop offset="1" style="stop-color:rgb(27.058824%,69.019608%,81.568627%);stop-opacity:1;"/>
</linearGradient>
<linearGradient id="linear1" gradientUnits="userSpaceOnUse" x1="-117.5856" y1="-217.8075" x2="28.4488" y2="-50.317" gradientTransform="matrix(1,0,0,1,0,86)">
<stop offset="0" style="stop-color:rgb(100%,85.490196%,10.980392%);stop-opacity:1;"/>
<stop offset="1" style="stop-color:rgb(99.607843%,71.764706%,1.960784%);stop-opacity:1;"/>
</linearGradient>
<radialGradient id="radial0" gradientUnits="userSpaceOnUse" cx="17.5339" cy="-67.4752" fx="17.5339" fy="-67.4752" r="2.5186" gradientTransform="matrix(2.7273,0,0,3.0047,-27.1187,223.8503)">
<stop offset="0" style="stop-color:rgb(29.411765%,29.411765%,29.411765%);stop-opacity:1;"/>
<stop offset="0.531" style="stop-color:rgb(22.352941%,22.352941%,22.352941%);stop-opacity:1;"/>
<stop offset="1" style="stop-color:rgb(14.509804%,14.509804%,14.509804%);stop-opacity:1;"/>
</radialGradient>
<radialGradient id="radial1" gradientUnits="userSpaceOnUse" cx="20.1902" cy="28.3608" fx="20.1902" fy="28.3608" r="4.7803" >
<stop offset="0" style="stop-color:rgb(29.411765%,29.411765%,29.411765%);stop-opacity:1;"/>
<stop offset="0.531" style="stop-color:rgb(22.352941%,22.352941%,22.352941%);stop-opacity:1;"/>
<stop offset="1" style="stop-color:rgb(14.509804%,14.509804%,14.509804%);stop-opacity:1;"/>
</radialGradient>
</defs>
<g id="surface1">
<path style=" stroke:none;fill-rule:nonzero;fill:url(#linear0);" d="M 24.398438 28 L 3.601562 28 C 3.148438 27.976562 2.726562 27.773438 2.425781 27.4375 C 2.125 27.101562 1.972656 26.660156 2 26.210938 L 2 1.789062 C 1.972656 1.339844 2.125 0.898438 2.425781 0.5625 C 2.726562 0.226562 3.148438 0.0234375 3.601562 0 L 24.398438 0 C 24.851562 0.0234375 25.273438 0.226562 25.574219 0.5625 C 25.875 0.898438 26.027344 1.339844 26 1.789062 L 26 26.210938 C 26.027344 26.660156 25.875 27.101562 25.574219 27.4375 C 25.273438 27.773438 24.851562 27.976562 24.398438 28 Z M 24.398438 28 "/>
<path style=" stroke:none;fill-rule:nonzero;fill:rgb(1.960784%,43.921569%,57.647059%);fill-opacity:1;" d="M 1.5 23 L 3.5 23 C 4.050781 23 4.5 23.449219 4.5 24 C 4.5 24.550781 4.050781 25 3.5 25 L 1.5 25 C 0.949219 25 0.5 24.550781 0.5 24 C 0.5 23.449219 0.949219 23 1.5 23 Z M 1.5 23 "/>
<path style=" stroke:none;fill-rule:nonzero;fill:rgb(1.960784%,43.921569%,57.647059%);fill-opacity:1;" d="M 8.5 23 L 22.5 23 C 22.777344 23 23 23.222656 23 23.5 L 23 24.5 C 23 24.777344 22.777344 25 22.5 25 L 8.5 25 C 8.222656 25 8 24.777344 8 24.5 L 8 23.5 C 8 23.222656 8.222656 23 8.5 23 Z M 8.5 23 "/>
<path style=" stroke:none;fill-rule:nonzero;fill:rgb(1.960784%,43.921569%,57.647059%);fill-opacity:1;" d="M 1.5 3 L 3.5 3 C 4.050781 3 4.5 3.449219 4.5 4 C 4.5 4.550781 4.050781 5 3.5 5 L 1.5 5 C 0.949219 5 0.5 4.550781 0.5 4 C 0.5 3.449219 0.949219 3 1.5 3 Z M 1.5 3 "/>
<path style=" stroke:none;fill-rule:nonzero;fill:rgb(1.960784%,43.921569%,57.647059%);fill-opacity:1;" d="M 1.5 7 L 3.5 7 C 4.050781 7 4.5 7.449219 4.5 8 C 4.5 8.550781 4.050781 9 3.5 9 L 1.5 9 C 0.949219 9 0.5 8.550781 0.5 8 C 0.5 7.449219 0.949219 7 1.5 7 Z M 1.5 7 "/>
<path style=" stroke:none;fill-rule:nonzero;fill:rgb(1.960784%,43.921569%,57.647059%);fill-opacity:1;" d="M 1.5 11 L 3.5 11 C 4.050781 11 4.5 11.449219 4.5 12 C 4.5 12.550781 4.050781 13 3.5 13 L 1.5 13 C 0.949219 13 0.5 12.550781 0.5 12 C 0.5 11.449219 0.949219 11 1.5 11 Z M 1.5 11 "/>
<path style=" stroke:none;fill-rule:nonzero;fill:rgb(1.960784%,43.921569%,57.647059%);fill-opacity:1;" d="M 1.5 15 L 3.5 15 C 4.050781 15 4.5 15.449219 4.5 16 C 4.5 16.550781 4.050781 17 3.5 17 L 1.5 17 C 0.949219 17 0.5 16.550781 0.5 16 C 0.5 15.449219 0.949219 15 1.5 15 Z M 1.5 15 "/>
<path style=" stroke:none;fill-rule:nonzero;fill:rgb(1.960784%,43.921569%,57.647059%);fill-opacity:1;" d="M 1.5 19 L 3.5 19 C 4.050781 19 4.5 19.449219 4.5 20 C 4.5 20.550781 4.050781 21 3.5 21 L 1.5 21 C 0.949219 21 0.5 20.550781 0.5 20 C 0.5 19.449219 0.949219 19 1.5 19 Z M 1.5 19 "/>
<path style=" stroke:none;fill-rule:nonzero;fill:rgb(1.960784%,43.921569%,57.647059%);fill-opacity:1;" d="M 8.5 3 L 22.5 3 C 22.777344 3 23 3.222656 23 3.5 L 23 4.5 C 23 4.777344 22.777344 5 22.5 5 L 8.5 5 C 8.222656 5 8 4.777344 8 4.5 L 8 3.5 C 8 3.222656 8.222656 3 8.5 3 Z M 8.5 3 "/>
<path style=" stroke:none;fill-rule:nonzero;fill:rgb(1.960784%,43.921569%,57.647059%);fill-opacity:1;" d="M 8.5 7 L 22.5 7 C 22.777344 7 23 7.222656 23 7.5 L 23 8.5 C 23 8.777344 22.777344 9 22.5 9 L 8.5 9 C 8.222656 9 8 8.777344 8 8.5 L 8 7.5 C 8 7.222656 8.222656 7 8.5 7 Z M 8.5 7 "/>
<path style=" stroke:none;fill-rule:nonzero;fill:rgb(1.960784%,43.921569%,57.647059%);fill-opacity:1;" d="M 8.5 11 L 22.5 11 C 22.777344 11 23 11.222656 23 11.5 L 23 12.5 C 23 12.777344 22.777344 13 22.5 13 L 8.5 13 C 8.222656 13 8 12.777344 8 12.5 L 8 11.5 C 8 11.222656 8.222656 11 8.5 11 Z M 8.5 11 "/>
<path style=" stroke:none;fill-rule:nonzero;fill:rgb(1.960784%,43.921569%,57.647059%);fill-opacity:1;" d="M 8.5 15 L 22.5 15 C 22.777344 15 23 15.222656 23 15.5 L 23 16.5 C 23 16.777344 22.777344 17 22.5 17 L 8.5 17 C 8.222656 17 8 16.777344 8 16.5 L 8 15.5 C 8 15.222656 8.222656 15 8.5 15 Z M 8.5 15 "/>
<path style=" stroke:none;fill-rule:nonzero;fill:rgb(1.960784%,43.921569%,57.647059%);fill-opacity:1;" d="M 8.5 19 L 22.5 19 C 22.777344 19 23 19.222656 23 19.5 L 23 20.5 C 23 20.777344 22.777344 21 22.5 21 L 8.5 21 C 8.222656 21 8 20.777344 8 20.5 L 8 19.5 C 8 19.222656 8.222656 19 8.5 19 Z M 8.5 19 "/>
<path style=" stroke:none;fill-rule:nonzero;fill:url(#linear1);" d="M 31.835938 30.632812 L 23.738281 17.992188 C 23.574219 17.730469 23.285156 17.578125 22.976562 17.59375 C 22.667969 17.609375 22.394531 17.792969 22.261719 18.074219 L 14.164062 30.632812 C 14.070312 30.777344 14.011719 30.941406 14 31.113281 C 14.007812 31.558594 14.371094 31.917969 14.816406 31.914062 L 31.183594 31.914062 C 31.628906 31.917969 31.996094 31.558594 32 31.113281 C 31.988281 30.941406 31.929688 30.777344 31.835938 30.632812 Z M 31.835938 30.632812 "/>
<path style=" stroke:none;fill-rule:nonzero;fill:url(#radial0);" d="M 23.980469 21.554688 L 23.738281 27.320312 C 23.730469 27.402344 23.691406 27.476562 23.628906 27.527344 C 23.570312 27.578125 23.488281 27.601562 23.410156 27.59375 L 22.507812 27.59375 C 22.355469 27.578125 22.222656 27.472656 22.183594 27.320312 L 22.019531 21.554688 C 22.023438 21.367188 22.160156 21.214844 22.34375 21.191406 L 23.65625 21.191406 C 23.75 21.1875 23.839844 21.226562 23.902344 21.296875 C 23.96875 21.363281 23.996094 21.460938 23.980469 21.554688 Z M 23.980469 21.554688 "/>
<path style=" stroke:none;fill-rule:nonzero;fill:url(#radial1);" d="M 24.199219 29.59375 C 24.199219 30.253906 23.664062 30.792969 23 30.792969 C 22.335938 30.792969 21.800781 30.253906 21.800781 29.59375 C 21.800781 28.929688 22.335938 28.394531 23 28.394531 C 23.664062 28.394531 24.199219 28.929688 24.199219 29.59375 Z M 24.199219 29.59375 "/>
</g>
</svg>
