<?xml version="1.0" encoding="UTF-8" standalone="no"?>
<!-- Created with Inkscape (http://www.inkscape.org/) -->

<svg
   width="16"
   height="16"
   viewBox="0 0 4.2333333 4.2333335"
   version="1.1"
   id="svg5"
   inkscape:version="1.1.1 (3bf5ae0d25, 2021-09-20, custom)"
   sodipodi:docname="folder-downloads.svg"
   xmlns:inkscape="http://www.inkscape.org/namespaces/inkscape"
   xmlns:sodipodi="http://sodipodi.sourceforge.net/DTD/sodipodi-0.dtd"
   xmlns:xlink="http://www.w3.org/1999/xlink"
   xmlns="http://www.w3.org/2000/svg"
   xmlns:svg="http://www.w3.org/2000/svg">
  <sodipodi:namedview
     id="namedview7"
     pagecolor="#ffffff"
     bordercolor="#666666"
     borderopacity="1.0"
     inkscape:pageshadow="2"
     inkscape:pageopacity="0.0"
     inkscape:pagecheckerboard="0"
     inkscape:document-units="px"
     showgrid="false"
     units="px"
     height="64px"
     inkscape:zoom="12.328125"
     inkscape:cx="10.301648"
     inkscape:cy="10.828897"
     inkscape:window-width="1920"
     inkscape:window-height="996"
     inkscape:window-x="0"
     inkscape:window-y="0"
     inkscape:window-maximized="1"
     inkscape:current-layer="svg5"
     showguides="false" />
  <defs
     id="defs2">
    <linearGradient
       inkscape:collect="always"
       id="linearGradient11972">
      <stop
         style="stop-color:#38c494;stop-opacity:1"
         offset="0"
         id="stop11968" />
      <stop
         style="stop-color:#0099a6;stop-opacity:1"
         offset="1"
         id="stop11970" />
    </linearGradient>
    <linearGradient
       inkscape:collect="always"
       xlink:href="#linearGradient11972"
       id="linearGradient1721"
       x1="2"
       y1="1.2283465e-07"
       x2="14"
       y2="16"
       gradientUnits="userSpaceOnUse" />
  </defs>
  <path
     id="rect860"
     style="fill:url(#linearGradient1721);fill-opacity:1;stroke-width:3;stroke-linecap:round;stroke-linejoin:round"
     d="M 8,0 C 7.446,0 7,0.44599997 7,1 V 9.5859375 L 4.4648438,7.0488281 c -0.3917375,-0.391737 -1.0223255,-0.391737 -1.4140626,0 -0.391737,0.3917371 -0.391737,1.0242786 0,1.4160157 l 4.2089844,4.2089842 c 0.021491,0.02365 0.042751,0.04491 0.066406,0.06641 0.00103,9.44e-4 0.00287,10e-4 0.00391,0.002 0.010834,0.0098 0.021945,0.02001 0.033203,0.0293 0.00178,0.0015 0.00407,0.0024 0.00586,0.0039 0.026386,0.02145 0.053499,0.04184 0.082031,0.06055 0.00979,0.0064 0.01927,0.01345 0.029297,0.01953 0.00382,0.0023 0.00787,0.0036 0.011719,0.0059 0.010153,0.006 0.020869,0.01195 0.03125,0.01758 0.00386,0.0021 0.00784,0.0038 0.011719,0.0059 0.010462,0.0055 0.020571,0.01245 0.03125,0.01758 0.00431,0.0021 0.00934,0.0038 0.013672,0.0059 0.01007,0.0046 0.019047,0.0094 0.029297,0.01367 0.00509,0.0022 0.010507,0.0038 0.015625,0.0059 0.010059,0.004 0.02103,0.008 0.03125,0.01172 0.00454,0.0017 0.00912,0.0023 0.013672,0.0039 0.010828,0.0038 0.020253,0.0083 0.03125,0.01172 0.005,0.0016 0.010603,0.0024 0.015625,0.0039 0.01077,0.0032 0.022283,0.007 0.033203,0.0098 0.016242,0.0042 0.032435,0.0083 0.048828,0.01172 0.016304,0.0033 0.032241,0.0053 0.048828,0.0078 0.00331,5.15e-4 0.00645,0.0015 0.00977,0.002 C 7.9049566,12.99712 7.9520714,13 8,13 c 0.047929,0 0.096996,-0.0029 0.1445312,-0.0098 0.018578,-0.0027 0.03646,-0.0061 0.054688,-0.0098 6.278e-4,-1.28e-4 0.00133,1.28e-4 0.00195,0 0.016304,-0.0033 0.032828,-0.0076 0.048828,-0.01172 0.036944,-0.0095 0.073488,-0.02132 0.109375,-0.03516 0.010141,-0.0039 0.021273,-0.0075 0.03125,-0.01172 0.00133,-5.66e-4 0.00258,-0.0014 0.00391,-0.002 0.011607,-0.005 0.02183,-0.01025 0.033203,-0.01563 0.045479,-0.02156 0.090294,-0.04539 0.1328125,-0.07422 0.010887,-0.0073 0.020676,-0.01568 0.03125,-0.02344 0.013391,-0.0098 0.026194,-0.02079 0.039063,-0.03125 0.026234,-0.02142 0.051688,-0.04388 0.076172,-0.06836 0.011297,-0.0113 0.022458,-0.02138 0.033203,-0.0332 L 12.951172,8.4648438 c 0.391737,-0.3917371 0.391737,-1.0242786 0,-1.4160157 -0.391738,-0.391737 -1.024279,-0.391737 -1.416016,0 L 9,9.5859375 V 1 C 9,0.44599997 8.554,0 8,0 Z M 3,14 c -0.554,0 -1,0.446 -1,1 0,0.554 0.446,1 1,1 h 10 c 0.554,0 1,-0.446 1,-1 0,-0.554 -0.446,-1 -1,-1 z"
     transform="scale(0.26458334)" />
</svg>
