<?xml version="1.0" encoding="UTF-8"?>
<svg xmlns="http://www.w3.org/2000/svg" xmlns:xlink="http://www.w3.org/1999/xlink" width="32px" height="32px" viewBox="0 0 32 32" version="1.1">
<defs>
<linearGradient id="linear0" gradientUnits="userSpaceOnUse" x1="9.3217" y1="2.8009" x2="28.1751" y2="21.6543" >
<stop offset="0" style="stop-color:rgb(63.921569%,60.392157%,51.372549%);stop-opacity:1;"/>
<stop offset="1" style="stop-color:rgb(34.117647%,30.196078%,21.176471%);stop-opacity:1;"/>
</linearGradient>
<linearGradient id="linear1" gradientUnits="userSpaceOnUse" x1="10.5649" y1="12.5649" x2="13.4351" y2="15.4351" >
<stop offset="0" style="stop-color:rgb(20%,20%,20%);stop-opacity:1;"/>
<stop offset="1" style="stop-color:rgb(10.196078%,10.196078%,10.196078%);stop-opacity:1;"/>
</linearGradient>
<linearGradient id="linear2" gradientUnits="userSpaceOnUse" x1="1" y1="16.5" x2="9" y2="16.5" >
<stop offset="0" style="stop-color:rgb(34.117647%,34.117647%,34.117647%);stop-opacity:1;"/>
<stop offset="1" style="stop-color:rgb(10.196078%,10.196078%,10.196078%);stop-opacity:1;"/>
</linearGradient>
<linearGradient id="linear3" gradientUnits="userSpaceOnUse" x1="17.5649" y1="12.5649" x2="20.4351" y2="15.4351" >
<stop offset="0" style="stop-color:rgb(20%,20%,20%);stop-opacity:1;"/>
<stop offset="1" style="stop-color:rgb(10.196078%,10.196078%,10.196078%);stop-opacity:1;"/>
</linearGradient>
</defs>
<g id="surface1">
<path style=" stroke:none;fill-rule:evenodd;fill:url(#linear0);" d="M 30.003906 2.023438 C 29.769531 2 29.542969 2.097656 29.398438 2.285156 C 29.257812 2.464844 29.152344 2.667969 29.089844 2.890625 C 28.617188 4.308594 27.746094 5.5625 26.578125 6.503906 C 24.722656 8.085938 21.523438 9.855469 15.976562 10 C 12.921875 10.027344 10.148438 8.226562 8.929688 5.429688 C 8.59375 4.765625 8 3.527344 8 4.3125 L 8 5.53125 L 7.984375 12.335938 L 8.015625 12.417969 C 8.199219 12.929688 8.195312 13.488281 8 13.992188 C 7.679688 14.898438 6.527344 16.21875 3.710938 17.0625 L 3.367188 17.164062 L 3.433594 17.527344 C 3.722656 18.574219 4.3125 19.511719 5.128906 20.226562 C 6.207031 21.269531 7.410156 22.175781 8.710938 22.921875 C 11.769531 24.769531 15.238281 25.828125 18.808594 25.996094 C 22.53125 26.226562 26.09375 24.460938 28.167969 21.363281 C 30.472656 17.910156 31.601562 11.621094 30.679688 3.039062 L 30.675781 3.039062 C 30.65625 2.828125 30.597656 2.617188 30.503906 2.425781 C 30.410156 2.222656 30.222656 2.074219 30.003906 2.03125 Z M 30.003906 2.023438 "/>
<path style=" stroke:none;fill-rule:evenodd;fill:rgb(100%,100%,100%);fill-opacity:1;" d="M 11 9 C 9.992188 8.988281 9.019531 9.34375 8.257812 10 C 7.421875 10.769531 6.964844 11.863281 7 13 C 6.964844 14.136719 7.421875 15.230469 8.257812 16 C 9.84375 17.332031 12.15625 17.332031 13.742188 16 C 14.578125 15.230469 15.035156 14.136719 15 13 C 15.035156 11.863281 14.578125 10.769531 13.742188 10 C 12.980469 9.34375 12.003906 8.988281 11 9 Z M 11 9 "/>
<path style=" stroke:none;fill-rule:evenodd;fill:url(#linear1);" d="M 12 12 C 11.5 11.996094 11.011719 12.171875 10.632812 12.5 C 10.226562 12.894531 10 13.433594 10 14 C 10 14.566406 10.226562 15.105469 10.632812 15.5 C 11.421875 16.167969 12.578125 16.167969 13.367188 15.5 C 13.773438 15.105469 14 14.566406 14 14 C 14 13.433594 13.773438 12.894531 13.367188 12.5 C 12.988281 12.171875 12.5 11.996094 12 12 Z M 12 12 "/>
<path style=" stroke:none;fill-rule:evenodd;fill:rgb(8.627451%,8.627451%,8.627451%);fill-opacity:1;" d="M 10 20 C 12.695312 19.902344 16.707031 20.417969 18.5625 19.195312 C 18.324219 18.824219 18.136719 18.421875 18 18 C 18.703125 18.328125 19.316406 18.820312 19.789062 19.433594 C 20.371094 20.320312 19.152344 20.867188 19 22 C 18.835938 21.425781 18.765625 20.832031 18.796875 20.234375 C 16.640625 23.457031 13.414062 21.507812 10 20 Z M 10 20 "/>
<path style=" stroke:none;fill-rule:evenodd;fill:url(#linear2);" d="M 3.984375 12 C 3.808594 12 3.632812 12.011719 3.460938 12.039062 C 3.015625 12.109375 2.59375 12.289062 2.234375 12.554688 C 0.792969 13.625 0.414062 16.046875 2.191406 18.582031 C 3.972656 21.117188 6.324219 21.511719 7.765625 20.445312 C 9.207031 19.375 9.585938 16.953125 7.808594 14.417969 C 7 13.039062 5.574219 12.140625 3.984375 12 Z M 3.984375 12 "/>
<path style=" stroke:none;fill-rule:evenodd;fill:rgb(100%,100%,100%);fill-opacity:1;" d="M 18 9 C 16.992188 8.988281 16.019531 9.34375 15.257812 10 C 14.421875 10.769531 13.964844 11.863281 14 13 C 13.964844 14.136719 14.421875 15.230469 15.257812 16 C 16.84375 17.332031 19.15625 17.332031 20.742188 16 C 21.578125 15.230469 22.035156 14.136719 22 13 C 22.035156 11.863281 21.578125 10.769531 20.742188 10 C 19.980469 9.34375 19.003906 8.988281 18 9 Z M 18 9 "/>
<path style=" stroke:none;fill-rule:evenodd;fill:url(#linear3);" d="M 19 12 C 18.5 11.996094 18.011719 12.171875 17.632812 12.5 C 17.226562 12.894531 17 13.433594 17 14 C 17 14.566406 17.226562 15.105469 17.632812 15.5 C 18.421875 16.167969 19.578125 16.167969 20.367188 15.5 C 20.773438 15.105469 21 14.566406 21 14 C 21 13.433594 20.773438 12.894531 20.367188 12.5 C 19.988281 12.171875 19.5 11.996094 19 12 Z M 19 12 "/>
<path style=" stroke:none;fill-rule:nonzero;fill:rgb(100%,67.45098%,21.960784%);fill-opacity:1;" d="M 25.261719 25.117188 L 25.910156 23.828125 C 23.628906 22.371094 21.21875 21.132812 18.707031 20.125 L 18 20.480469 C 18 20.480469 22.371094 24.289062 25.261719 25.117188 Z M 25.261719 25.117188 "/>
<path style=" stroke:none;fill-rule:nonzero;fill:rgb(56.862745%,56.862745%,56.862745%);fill-opacity:1;" d="M 25.28125 22.738281 L 24.945312 22.960938 C 24.621094 23.15625 24.355469 23.429688 24.171875 23.761719 C 23.945312 24.207031 23.84375 24.703125 23.882812 25.203125 L 24.371094 25.117188 C 24.371094 25.117188 26.929688 25.851562 28.140625 26.238281 L 28.285156 25.964844 L 28.78125 25 L 25.28125 23.207031 Z M 25.28125 22.738281 "/>
<path style=" stroke:none;fill-rule:nonzero;fill:rgb(14.117647%,14.117647%,14.117647%);fill-opacity:1;" d="M 32.28125 29.738281 C 31.390625 26.84375 31.074219 24.546875 28.746094 24.75 C 26.871094 24.914062 26.742188 27.488281 28.679688 28.199219 C 30.546875 28.882812 32.28125 29.738281 32.28125 29.738281 Z M 32.28125 29.738281 "/>
</g>
</svg>
