<?xml version="1.0" encoding="UTF-8"?>
<svg xmlns="http://www.w3.org/2000/svg" xmlns:xlink="http://www.w3.org/1999/xlink" width="24px" height="24px" viewBox="0 0 24 24" version="1.1">
<defs>
<linearGradient id="linear0" gradientUnits="userSpaceOnUse" x1="8.604" y1="2.8192" x2="16.905" y2="17.9324" >
<stop offset="0" style="stop-color:rgb(1.960784%,39.215686%,80%);stop-opacity:1;"/>
<stop offset="1" style="stop-color:rgb(1.960784%,23.529412%,56.862745%);stop-opacity:1;"/>
</linearGradient>
<linearGradient id="linear1" gradientUnits="userSpaceOnUse" x1="-448.2881" y1="515.3928" x2="-448.0926" y2="512.3944" gradientTransform="matrix(3.9535,0,0,3.9535,1784.6977,-2016.6274)">
<stop offset="0" style="stop-color:rgb(14.117647%,64.705882%,90.196078%);stop-opacity:1;"/>
<stop offset="1" style="stop-color:rgb(21.960784%,80%,96.470588%);stop-opacity:1;"/>
</linearGradient>
<linearGradient id="linear2" gradientUnits="userSpaceOnUse" x1="396.0896" y1="1136.138" x2="425.2908" y2="1151.0339" gradientTransform="matrix(0.5987,0.0006,-0.0006,0.6019,-236.8163,-669.2332)">
<stop offset="0" style="stop-color:rgb(18.823529%,78.431373%,94.509804%);stop-opacity:1;"/>
<stop offset="1" style="stop-color:rgb(7.058824%,51.372549%,88.627451%);stop-opacity:1;"/>
</linearGradient>
</defs>
<g id="surface1">
<path style=" stroke:none;fill-rule:nonzero;fill:url(#linear0);" d="M 12.839844 0.210938 L 12.75 0.164062 C 12.71875 0.144531 12.683594 0.136719 12.652344 0.117188 C 12.621094 0.109375 12.585938 0.09375 12.550781 0.0820312 C 12.515625 0.0742188 12.480469 0.0625 12.445312 0.0546875 C 12.410156 0.0429688 12.367188 0.0390625 12.335938 0.03125 C 12.296875 0.0234375 12.257812 0.015625 12.21875 0.0117188 L 12.101562 0.00390625 C 12.0625 0.00390625 12.023438 0 11.980469 0 C 11.941406 0 11.90625 0.00390625 11.863281 0.00390625 C 11.828125 0.0078125 11.789062 0.0117188 11.746094 0.015625 C 11.710938 0.0195312 11.671875 0.0273438 11.636719 0.0390625 C 11.597656 0.0429688 11.558594 0.0507812 11.527344 0.0585938 C 11.488281 0.0703125 11.453125 0.0820312 11.417969 0.09375 C 11.386719 0.105469 11.347656 0.117188 11.316406 0.132812 C 11.285156 0.144531 11.253906 0.164062 11.226562 0.175781 C 11.203125 0.1875 11.183594 0.199219 11.160156 0.210938 L 0 7.003906 L 0 11 L 24 11 L 24 7.003906 Z M 12.839844 0.210938 "/>
<path style=" stroke:none;fill-rule:nonzero;fill:rgb(94.117647%,94.117647%,94.117647%);fill-opacity:1;" d="M 2.71875 8 L 21.28125 8 C 21.679688 8.003906 22.003906 8.332031 22 8.734375 L 22 15.265625 C 22.003906 15.667969 21.679688 15.996094 21.28125 16 L 2.71875 16 C 2.320312 15.996094 1.996094 15.667969 2 15.265625 L 2 8.734375 C 1.996094 8.332031 2.320312 8.003906 2.71875 8 Z M 2.71875 8 "/>
<path style=" stroke:none;fill-rule:nonzero;fill:url(#linear1);" d="M 0.714844 22.308594 C 1.164062 22.75 1.769531 23 2.402344 23 L 21.613281 23 C 22.234375 23.015625 22.835938 22.777344 23.273438 22.339844 C 23.722656 21.886719 23.984375 21.273438 24 20.636719 L 24 8 Z M 0.714844 22.308594 "/>
<path style=" stroke:none;fill-rule:nonzero;fill:url(#linear2);" d="M 23.296875 22.3125 C 22.84375 22.757812 22.230469 23.003906 21.597656 23 L 2.378906 22.980469 C 1.757812 22.996094 1.15625 22.753906 0.71875 22.3125 C 0.269531 21.855469 0.0117188 21.242188 0 20.601562 L 0.0117188 8 Z M 23.296875 22.3125 "/>
</g>
</svg>
