<?xml version="1.0" encoding="UTF-8"?>
<svg xmlns="http://www.w3.org/2000/svg" xmlns:xlink="http://www.w3.org/1999/xlink" width="24px" height="24px" viewBox="0 0 24 24" version="1.1">
<defs>
<linearGradient id="linear0" gradientUnits="userSpaceOnUse" x1="-257.588" y1="855.8382" x2="-233.7553" y2="855.8382" gradientTransform="matrix(0.9231,0,0,0.9231,238.7795,-776.5242)">
<stop offset="0" style="stop-color:rgb(31.372549%,31.372549%,31.372549%);stop-opacity:1;"/>
<stop offset="1" style="stop-color:rgb(19.607843%,19.607843%,19.607843%);stop-opacity:1;"/>
</linearGradient>
<linearGradient id="linear1" gradientUnits="userSpaceOnUse" x1="-241.3485" y1="846.0884" x2="-233.7653" y2="846.0884" gradientTransform="matrix(0.9231,0,0,0.9231,238.7795,-776.5242)">
<stop offset="0" style="stop-color:rgb(38.823529%,38.823529%,38.823529%);stop-opacity:1;"/>
<stop offset="1" style="stop-color:rgb(39.215686%,39.215686%,39.215686%);stop-opacity:1;"/>
</linearGradient>
<linearGradient id="linear2" gradientUnits="userSpaceOnUse" x1="-250.0168" y1="846.0884" x2="-241.3503" y2="846.0884" gradientTransform="matrix(0.9231,0,0,0.9231,238.7795,-776.5242)">
<stop offset="0" style="stop-color:rgb(59.607843%,59.607843%,59.607843%);stop-opacity:1;"/>
<stop offset="1" style="stop-color:rgb(60%,60%,60%);stop-opacity:1;"/>
</linearGradient>
<linearGradient id="linear3" gradientUnits="userSpaceOnUse" x1="-257.5979" y1="846.0884" x2="-250.0148" y2="846.0884" gradientTransform="matrix(0.9231,0,0,0.9231,238.7795,-776.5242)">
<stop offset="0" style="stop-color:rgb(80.784314%,80.784314%,80.784314%);stop-opacity:1;"/>
<stop offset="1" style="stop-color:rgb(81.568627%,81.568627%,81.568627%);stop-opacity:1;"/>
</linearGradient>
<linearGradient id="linear4" gradientUnits="userSpaceOnUse" x1="-345.786" y1="2308.242" x2="-326.2639" y2="2303.6361" gradientTransform="matrix(0.234618,-0.234618,0.234618,0.234618,-455.8256,-604.8951)">
<stop offset="0" style="stop-color:rgb(66.27451%,66.27451%,66.27451%);stop-opacity:1;"/>
<stop offset="1" style="stop-color:rgb(54.901961%,54.901961%,54.901961%);stop-opacity:1;"/>
</linearGradient>
<linearGradient id="linear5" gradientUnits="userSpaceOnUse" x1="1297.044" y1="665.3325" x2="1316.5661" y2="660.7266" gradientTransform="matrix(0.2346,0.2346,0.2346,-0.2346,-455.8556,-139.7033)">
<stop offset="0" style="stop-color:rgb(89.803922%,89.803922%,89.803922%);stop-opacity:1;"/>
<stop offset="1" style="stop-color:rgb(80.784314%,80.784314%,80.784314%);stop-opacity:1;"/>
</linearGradient>
<linearGradient id="linear6" gradientUnits="userSpaceOnUse" x1="917.5879" y1="-874.7803" x2="936.594" y2="-879.2644" gradientTransform="matrix(0.3318,0,0,-0.3318,-290.2276,-274.024)">
<stop offset="0" style="stop-color:rgb(89.803922%,89.803922%,89.803922%);stop-opacity:1;"/>
<stop offset="1" style="stop-color:rgb(80.784314%,80.784314%,80.784314%);stop-opacity:1;"/>
</linearGradient>
</defs>
<g id="surface1">
<path style=" stroke:none;fill-rule:nonzero;fill:url(#linear0);" d="M 23 6 L 1 6 L 1 19.925781 C 0.996094 20.207031 1.097656 20.476562 1.289062 20.679688 C 1.476562 20.878906 1.738281 20.996094 2.015625 21 L 21.984375 21 C 22.261719 20.996094 22.519531 20.878906 22.710938 20.679688 C 22.902344 20.476562 23.003906 20.207031 23 19.925781 Z M 23 6 "/>
<path style=" stroke:none;fill-rule:nonzero;fill:url(#linear1);" d="M 16 3 L 16 6 L 23 6 L 23 4.125 C 23.011719 3.839844 22.914062 3.5625 22.730469 3.347656 C 22.554688 3.140625 22.300781 3.015625 22.03125 3 Z M 16 3 "/>
<path style=" stroke:none;fill-rule:nonzero;fill:url(#linear2);" d="M 8 3 L 8 6 L 16 6 L 16 3 Z M 8 3 "/>
<path style=" stroke:none;fill-rule:nonzero;fill:url(#linear3);" d="M 1 4.125 L 1 6 L 8 6 L 8 3 L 1.96875 3 C 1.695312 3.015625 1.445312 3.140625 1.269531 3.347656 C 1.085938 3.5625 0.988281 3.839844 1 4.125 Z M 1 4.125 "/>
<path style=" stroke:none;fill-rule:nonzero;fill:url(#linear4);" d="M 3.089844 16.296875 L 7.953125 11.683594 C 8.0625 11.582031 8.226562 11.582031 8.335938 11.683594 L 9.671875 12.949219 C 9.722656 12.996094 9.75 13.0625 9.75 13.132812 C 9.75 13.199219 9.722656 13.265625 9.671875 13.3125 L 4.808594 17.921875 C 4.699219 18.023438 4.535156 18.023438 4.425781 17.921875 L 3.089844 16.65625 C 3.039062 16.613281 3.011719 16.546875 3.011719 16.476562 C 3.011719 16.410156 3.039062 16.34375 3.089844 16.296875 Z M 3.089844 16.296875 "/>
<path style=" stroke:none;fill-rule:nonzero;fill:url(#linear5);" d="M 3.078125 9.953125 L 7.941406 14.566406 C 8.050781 14.664062 8.214844 14.664062 8.324219 14.566406 L 9.660156 13.300781 C 9.710938 13.253906 9.738281 13.1875 9.738281 13.117188 C 9.738281 13.050781 9.710938 12.984375 9.660156 12.9375 L 4.796875 8.328125 C 4.6875 8.226562 4.523438 8.226562 4.414062 8.328125 L 3.078125 9.59375 C 3.027344 9.636719 3 9.703125 3 9.773438 C 3 9.839844 3.027344 9.90625 3.078125 9.953125 Z M 3.078125 9.953125 "/>
<path style=" stroke:none;fill-rule:nonzero;fill:url(#linear6);" d="M 14.253906 18 L 20.746094 18 C 20.8125 18 20.875 17.976562 20.925781 17.933594 C 20.972656 17.894531 21 17.839844 21 17.777344 L 21 16.222656 C 21 16.160156 20.972656 16.105469 20.925781 16.066406 C 20.875 16.023438 20.8125 16 20.746094 16 L 14.253906 16 C 14.1875 16 14.125 16.023438 14.074219 16.066406 C 14.027344 16.105469 14 16.160156 14 16.222656 L 14 17.777344 C 14 17.839844 14.027344 17.894531 14.074219 17.933594 C 14.125 17.976562 14.1875 18 14.253906 18 Z M 14.253906 18 "/>
</g>
</svg>
