<?xml version="1.0" encoding="UTF-8"?>
<svg xmlns="http://www.w3.org/2000/svg" xmlns:xlink="http://www.w3.org/1999/xlink" width="24px" height="24px" viewBox="0 0 24 24" version="1.1">
<defs>
<linearGradient id="linear0" gradientUnits="userSpaceOnUse" x1="3.0251" y1="4.1464" x2="20.9749" y2="22.0962" >
<stop offset="0" style="stop-color:rgb(2.352941%,41.176471%,73.72549%);stop-opacity:1;"/>
<stop offset="1" style="stop-color:rgb(14.117647%,22.745098%,37.254902%);stop-opacity:1;"/>
</linearGradient>
<linearGradient id="linear1" gradientUnits="userSpaceOnUse" x1="-29.7222" y1="25.5606" x2="-29.7222" y2="23.9731" gradientTransform="matrix(3.7796,0,0,-3.7796,119.3382,97.6088)">
<stop offset="0" style="stop-color:rgb(18.823529%,85.490196%,100%);stop-opacity:1;"/>
<stop offset="1" style="stop-color:rgb(2.352941%,49.411765%,74.509804%);stop-opacity:1;"/>
</linearGradient>
<linearGradient id="linear2" gradientUnits="userSpaceOnUse" x1="12" y1="1" x2="12" y2="3" >
<stop offset="0" style="stop-color:rgb(13.333333%,73.72549%,100%);stop-opacity:1;"/>
<stop offset="1" style="stop-color:rgb(2.352941%,49.411765%,74.509804%);stop-opacity:1;"/>
</linearGradient>
<linearGradient id="linear3" gradientUnits="userSpaceOnUse" x1="-20.7416" y1="25.5606" x2="-20.7416" y2="23.9731" gradientTransform="matrix(-3.7796,0.000000000000000463,-0.000000000000000463,-3.7796,-61.3948,97.6088)">
<stop offset="0" style="stop-color:rgb(18.823529%,85.490196%,100%);stop-opacity:1;"/>
<stop offset="1" style="stop-color:rgb(2.352941%,49.411765%,74.509804%);stop-opacity:1;"/>
</linearGradient>
</defs>
<g id="surface1">
<path style=" stroke:none;fill-rule:nonzero;fill:url(#linear0);" d="M 3 5 L 21 5 C 22.105469 5 23 5.894531 23 7 L 23 18 C 23 20.761719 20.761719 23 18 23 L 6 23 C 3.238281 23 1 20.761719 1 18 L 1 7 C 1 5.894531 1.894531 5 3 5 Z M 3 5 "/>
<path style=" stroke:none;fill-rule:nonzero;fill:url(#linear1);" d="M 7.976562 1 C 7.757812 1.007812 6 1.101562 6 2.601562 L 6 6.394531 C 6 6.554688 6.0625 6.710938 6.175781 6.824219 C 6.289062 6.9375 6.445312 7 6.605469 7 L 7.394531 7 C 7.554688 7 7.710938 6.9375 7.824219 6.824219 C 7.9375 6.710938 8 6.554688 8 6.394531 L 8 1 C 8 1 7.992188 1 7.976562 1 Z M 7.976562 1 "/>
<path style=" stroke:none;fill-rule:nonzero;fill:url(#linear2);" d="M 8 1 L 16 1 L 16 3 L 8 3 Z M 8 1 "/>
<path style=" stroke:none;fill-rule:nonzero;fill:url(#linear3);" d="M 16.023438 1 C 16.242188 1.007812 18 1.101562 18 2.601562 L 18 6.394531 C 18 6.554688 17.9375 6.710938 17.824219 6.824219 C 17.710938 6.9375 17.554688 7 17.394531 7 L 16.605469 7 C 16.445312 7 16.289062 6.9375 16.175781 6.824219 C 16.0625 6.710938 16 6.554688 16 6.394531 L 16 1 C 16 1 16.007812 1 16.023438 1 Z M 16.023438 1 "/>
<path style=" stroke:none;fill-rule:nonzero;fill:rgb(94.901961%,31.372549%,13.333333%);fill-opacity:1;" d="M 8.25 11.25 L 9.75 11.25 C 10.578125 11.25 11.25 11.921875 11.25 12.75 L 11.25 14.25 C 11.25 15.078125 10.578125 15.75 9.75 15.75 L 8.25 15.75 C 7.421875 15.75 6.75 15.078125 6.75 14.25 L 6.75 12.75 C 6.75 11.921875 7.421875 11.25 8.25 11.25 Z M 8.25 11.25 "/>
<path style=" stroke:none;fill-rule:nonzero;fill:rgb(49.803922%,72.941176%,0%);fill-opacity:1;" d="M 14.25 12.75 C 13.007812 12.75 12 11.742188 12 10.5 C 12 9.257812 13.007812 8.25 14.25 8.25 C 15.492188 8.25 16.5 9.257812 16.5 10.5 C 16.5 11.742188 15.492188 12.75 14.25 12.75 Z M 14.25 12.75 "/>
<path style=" stroke:none;fill-rule:nonzero;fill:rgb(100%,72.54902%,0%);fill-opacity:1;" d="M 15.542969 13.589844 L 12.316406 15.546875 C 12.121094 15.671875 12 15.890625 12 16.125 C 12 16.359375 12.121094 16.578125 12.316406 16.703125 L 15.542969 18.660156 C 15.738281 18.78125 15.988281 18.78125 16.183594 18.660156 C 16.382812 18.53125 16.503906 18.308594 16.5 18.070312 L 16.5 14.179688 C 16.503906 13.941406 16.382812 13.71875 16.183594 13.589844 C 15.988281 13.46875 15.738281 13.46875 15.542969 13.589844 Z M 15.542969 13.589844 "/>
</g>
</svg>
