<?xml version="1.0" encoding="UTF-8"?>
<svg xmlns="http://www.w3.org/2000/svg" xmlns:xlink="http://www.w3.org/1999/xlink" width="24px" height="24px" viewBox="0 0 24 24" version="1.1">
<defs>
<linearGradient id="linear0" gradientUnits="userSpaceOnUse" x1="3.0249" y1="19.7438" x2="20.9751" y2="1.7936" gradientTransform="matrix(1,0,0,-1,0,23.8898)">
<stop offset="0" style="stop-color:rgb(2.352941%,41.176471%,73.72549%);stop-opacity:1;"/>
<stop offset="1" style="stop-color:rgb(14.117647%,22.745098%,37.254902%);stop-opacity:1;"/>
</linearGradient>
<linearGradient id="linear1" gradientUnits="userSpaceOnUse" x1="-458.4731" y1="515.5418" x2="-458.4731" y2="517.1292" gradientTransform="matrix(3.7796,0,0,3.7796,1739.8449,-1947.5416)">
<stop offset="0" style="stop-color:rgb(18.823529%,85.490196%,100%);stop-opacity:1;"/>
<stop offset="1" style="stop-color:rgb(2.352941%,49.411765%,74.509804%);stop-opacity:1;"/>
</linearGradient>
<linearGradient id="linear2" gradientUnits="userSpaceOnUse" x1="12" y1="22.8898" x2="12" y2="20.8898" gradientTransform="matrix(1,0,0,-1,0,23.8898)">
<stop offset="0" style="stop-color:rgb(13.333333%,73.72549%,100%);stop-opacity:1;"/>
<stop offset="1" style="stop-color:rgb(2.352941%,49.411765%,74.509804%);stop-opacity:1;"/>
</linearGradient>
<linearGradient id="linear3" gradientUnits="userSpaceOnUse" x1="-757.9907" y1="515.5418" x2="-757.9907" y2="517.1292" gradientTransform="matrix(-3.7796,0,0,3.7796,-2847.9015,-1947.5416)">
<stop offset="0" style="stop-color:rgb(18.823529%,85.490196%,100%);stop-opacity:1;"/>
<stop offset="1" style="stop-color:rgb(2.352941%,49.411765%,74.509804%);stop-opacity:1;"/>
</linearGradient>
</defs>
<g id="surface1">
<path style=" stroke:none;fill-rule:nonzero;fill:url(#linear0);" d="M 3 5 L 21 5 C 21.53125 5 22.039062 5.210938 22.414062 5.585938 C 22.789062 5.960938 23 6.46875 23 7 L 23 18 C 23 20.761719 20.761719 23 18 23 L 6 23 C 3.238281 23 1 20.761719 1 18 L 1 7 C 1 6.46875 1.210938 5.960938 1.585938 5.585938 C 1.960938 5.210938 2.46875 5 3 5 Z M 3 5 "/>
<path style=" stroke:none;fill-rule:nonzero;fill:url(#linear1);" d="M 7.976562 1 C 7.757812 1.007812 6 1.101562 6 2.601562 L 6 6.394531 C 6 6.554688 6.0625 6.710938 6.175781 6.824219 C 6.289062 6.9375 6.445312 7 6.605469 7 L 7.394531 7 C 7.554688 7 7.710938 6.9375 7.824219 6.824219 C 7.9375 6.710938 8 6.554688 8 6.394531 L 8 1 Z M 7.976562 1 "/>
<path style=" stroke:none;fill-rule:nonzero;fill:url(#linear2);" d="M 8 1 L 16 1 L 16 3 L 8 3 Z M 8 1 "/>
<path style=" stroke:none;fill-rule:nonzero;fill:url(#linear3);" d="M 16.023438 1 C 16.242188 1.007812 18 1.101562 18 2.601562 L 18 6.394531 C 18 6.554688 17.9375 6.710938 17.824219 6.824219 C 17.710938 6.9375 17.554688 7 17.394531 7 L 16.605469 7 C 16.445312 7 16.289062 6.9375 16.175781 6.824219 C 16.0625 6.710938 16 6.554688 16 6.394531 L 16 1 Z M 16.023438 1 "/>
<path style=" stroke:none;fill-rule:nonzero;fill:rgb(94.509804%,31.764706%,10.588235%);fill-opacity:1;" d="M 11 11 C 11 12.105469 10.105469 13 9 13 C 7.894531 13 7 12.105469 7 11 C 7 9.894531 7.894531 9 9 9 C 10.105469 9 11 9.894531 11 11 Z M 11 11 "/>
<path style=" stroke:none;fill-rule:nonzero;fill:rgb(50.196078%,80%,15.686275%);fill-opacity:1;" d="M 17 11 C 17 12.105469 16.105469 13 15 13 C 13.894531 13 13 12.105469 13 11 C 13 9.894531 13.894531 9 15 9 C 16.105469 9 17 9.894531 17 11 Z M 17 11 "/>
<path style=" stroke:none;fill-rule:nonzero;fill:rgb(0%,67.843137%,93.72549%);fill-opacity:1;" d="M 11 17 C 11 18.105469 10.105469 19 9 19 C 7.894531 19 7 18.105469 7 17 C 7 15.894531 7.894531 15 9 15 C 10.105469 15 11 15.894531 11 17 Z M 11 17 "/>
<path style=" stroke:none;fill-rule:nonzero;fill:rgb(98.431373%,73.72549%,3.529412%);fill-opacity:1;" d="M 17 17 C 17 18.105469 16.105469 19 15 19 C 13.894531 19 13 18.105469 13 17 C 13 15.894531 13.894531 15 15 15 C 16.105469 15 17 15.894531 17 17 Z M 17 17 "/>
</g>
</svg>
