<svg height="64px" width="64px" id="Camada_1" data-name="Camada 1" xmlns="http://www.w3.org/2000/svg" xmlns:xlink="http://www.w3.org/1999/xlink" viewBox="0 0 32 32"><defs><style>.cls-1{fill:#e1e3e6;}.cls-2,.cls-3,.cls-5,.cls-6{isolation:isolate;}.cls-2,.cls-3{opacity:0.3;}.cls-2{fill:url(#Gradiente_sem_nome_2);}.cls-3{fill:url(#Gradiente_sem_nome_2-2);}.cls-4{fill:url(#Gradiente_sem_nome_3);}.cls-5,.cls-6{opacity:0.4;}.cls-5{fill:url(#Gradiente_sem_nome_5);}.cls-6{fill:url(#Gradiente_sem_nome_5-2);}.cls-7{fill:url(#Gradiente_sem_nome_284);}.cls-8{fill:url(#Gradiente_sem_nome_115);}</style><linearGradient id="Gradiente_sem_nome_2" x1="2.0938" y1="31.3175" x2="3.0378" y2="30.6769" gradientTransform="matrix(3.7796, 0, 0, -3.7796, -2.7796, 125.7269)" gradientUnits="userSpaceOnUse"><stop offset="0"/><stop offset="1" stop-opacity="0"/></linearGradient><linearGradient id="Gradiente_sem_nome_2-2" x1="11.0894" y1="31.3175" x2="12.0335" y2="30.6769" gradientTransform="translate(68.7796 125.7269) rotate(180) scale(3.7796)" xlink:href="#Gradiente_sem_nome_2"/><linearGradient id="Gradiente_sem_nome_3" x1="4.9687" y1="29.0975" x2="4.9687" y2="26.9808" gradientTransform="matrix(3.7796, 0, 0, -3.7796, -2.7796, 125.7269)" gradientUnits="userSpaceOnUse"><stop offset="0" stop-color="#636363"/><stop offset="1" stop-color="#ababab" stop-opacity="0.9961"/></linearGradient><linearGradient id="Gradiente_sem_nome_5" x1="3.1343" y1="29.9787" x2="4.396" y2="28.6447" gradientTransform="matrix(3.7796, 0, 0, -3.7796, -2.7796, 125.7269)" gradientUnits="userSpaceOnUse"><stop offset="0" stop-color="#fff" stop-opacity="0"/><stop offset="0.5003" stop-color="#fff"/><stop offset="1" stop-color="#fff" stop-opacity="0"/></linearGradient><linearGradient id="Gradiente_sem_nome_5-2" x1="12.13" y1="29.9787" x2="13.3917" y2="28.6447" gradientTransform="translate(68.7796 125.7269) rotate(180) scale(3.7796)" xlink:href="#Gradiente_sem_nome_5"/><linearGradient id="Gradiente_sem_nome_284" x1="0.4253" y1="25.5722" x2="2.9967" y2="21.1914" gradientTransform="matrix(3.7715, 0, 0, -3.8343, 9.6112, 108.6485)" gradientUnits="userSpaceOnUse"><stop offset="0" stop-color="#333"/><stop offset="1" stop-color="#2e2e2e"/></linearGradient><linearGradient id="Gradiente_sem_nome_115" x1="6.7499" y1="18.2007" x2="8.2501" y2="20.7993" gradientUnits="userSpaceOnUse"><stop offset="0" stop-color="#8dff8d"/><stop offset="1" stop-color="#12ff12"/></linearGradient></defs><path id="rect31485" class="cls-1" d="M8.9785,9.5a1.4033,1.4033,0,0,0-.957.2979L2.293,15.793,3,15.5H29l.707.293L23.9785,9.7979a1.4028,1.4028,0,0,0-.957-.2979Z"/><path id="rect31485-9" class="cls-2" d="M8.9785,9.5a1.4028,1.4028,0,0,0-.957.2979L2.293,15.793,3,15.5H29l.707.293L23.9785,9.7979a1.4028,1.4028,0,0,0-.957-.2979Z"/><path id="rect31485-9-0" class="cls-3" d="M23.0215,9.5a1.4028,1.4028,0,0,1,.957.2979L29.707,15.793,29,15.5H3l-.707.293L8.0215,9.7979A1.4028,1.4028,0,0,1,8.9785,9.5Z"/><path id="rect849" class="cls-4" d="M3,15.5H29a.9978.9978,0,0,1,1,1V23a.9978.9978,0,0,1-1,1H3a.9978.9978,0,0,1-1-1V16.5A.9978.9978,0,0,1,3,15.5Z"/><path id="rect849-5" class="cls-5" d="M3,15.5H29a.9978.9978,0,0,1,1,1V23a.9978.9978,0,0,1-1,1H3a.9978.9978,0,0,1-1-1V16.5A.9978.9978,0,0,1,3,15.5Z"/><path id="rect849-5-8" class="cls-6" d="M29,15.5H3a.9978.9978,0,0,0-1,1V23a.9978.9978,0,0,0,1,1H29a.9978.9978,0,0,0,1-1V16.5A.9978.9978,0,0,0,29,15.5Z"/><path id="rect1094" class="cls-7" d="M3,15.5V22a.9978.9978,0,0,0,1,1H28a.9978.9978,0,0,0,1-1V15.5Z"/><circle id="path30449" class="cls-8" cx="7.5" cy="19.5" r="1.5"/></svg>