<svg id="Camada_1" data-name="Camada 1" xmlns="http://www.w3.org/2000/svg" xmlns:xlink="http://www.w3.org/1999/xlink" viewBox="0 0 32 32"><defs><style>.cls-1{fill:url(#Gradiente_sem_nome_80);}.cls-2{fill:#fff;}</style><linearGradient id="Gradiente_sem_nome_80" x1="6.1005" y1="6.1005" x2="25.8995" y2="25.8995" gradientUnits="userSpaceOnUse"><stop offset="0" stop-color="#fa995c"/><stop offset="1" stop-color="#b3427c"/></linearGradient></defs><circle class="cls-1" cx="16" cy="16" r="14"/><path class="cls-2" d="M16.1644,7.64a3.52,3.52,0,1,0,3.52,3.52A3.52,3.52,0,0,0,16.1644,7.64Z"/><path class="cls-2" d="M16.1644,16.44c-6.1594.0037-6.16,3.8991-6.16,3.8991v1.584s1.1372,2.4369,6.16,2.4369,6.16-2.4369,6.16-2.4369v-1.584s0-3.9015-6.1588-3.8991Z"/><path class="cls-2" d="M23.0516,12.2807a2.112,2.112,0,1,0,2.112,2.112A2.112,2.112,0,0,0,23.0516,12.2807Z"/><path class="cls-2" d="M23.0516,17.5607c-3.6956.0022-3.696,2.34-3.696,2.34v.95s.6824,1.4621,3.696,1.4621,3.696-1.4621,3.696-1.4621V19.9s0-2.341-3.6952-2.34Z"/><path class="cls-2" d="M8.9484,12.5447a2.112,2.112,0,1,0,2.112,2.112A2.112,2.112,0,0,0,8.9484,12.5447Z"/><path class="cls-2" d="M8.9484,17.8247c-3.6957.0022-3.696,2.34-3.696,2.34v.95s.6823,1.4621,3.696,1.4621,3.696-1.4621,3.696-1.4621v-.95s0-2.341-3.6953-2.34Z"/></svg>