<?xml version="1.0" encoding="UTF-8"?>
<svg xmlns="http://www.w3.org/2000/svg" xmlns:xlink="http://www.w3.org/1999/xlink" width="24px" height="24px" viewBox="0 0 24 24" version="1.1">
<defs>
<linearGradient id="linear0" gradientUnits="userSpaceOnUse" x1="5" y1="5" x2="5" y2="8" >
<stop offset="0" style="stop-color:rgb(0%,0%,0%);stop-opacity:0;"/>
<stop offset="1" style="stop-color:rgb(0%,0%,0%);stop-opacity:0.2;"/>
</linearGradient>
<linearGradient id="linear1" gradientUnits="userSpaceOnUse" x1="2.9485" y1="4.7837" x2="22.1247" y2="23.96" >
<stop offset="0" style="stop-color:rgb(100%,84.313725%,38.039216%);stop-opacity:1;"/>
<stop offset="1" style="stop-color:rgb(96.470588%,70.980392%,1.568627%);stop-opacity:1;"/>
</linearGradient>
<linearGradient id="linear2" gradientUnits="userSpaceOnUse" x1="-17.4298" y1="24.4854" x2="-13.6128" y2="22.2816" gradientTransform="matrix(3.7796,0,0,-3.7796,70.3356,108.1085)">
<stop offset="0" style="stop-color:rgb(7.843137%,57.647059%,87.45098%);stop-opacity:1;"/>
<stop offset="1" style="stop-color:rgb(0%,38.431373%,70.588235%);stop-opacity:1;"/>
</linearGradient>
<filter id="alpha" filterUnits="objectBoundingBox" x="0%" y="0%" width="100%" height="100%">
  <feColorMatrix type="matrix" in="SourceGraphic" values="0 0 0 0 1 0 0 0 0 1 0 0 0 0 1 0 0 0 1 0"/>
</filter>
<mask id="mask0">
  <g filter="url(#alpha)">
<rect x="0" y="0" width="24" height="24" style="fill:rgb(0%,0%,0%);fill-opacity:0.301961;stroke:none;"/>
  </g>
</mask>
<linearGradient id="linear3" gradientUnits="userSpaceOnUse" x1="6.1572" y1="1.5751" x2="17.7911" y2="13.2089" >
<stop offset="0" style="stop-color:rgb(100%,100%,100%);stop-opacity:1;"/>
<stop offset="1" style="stop-color:rgb(96.470588%,70.980392%,1.568627%);stop-opacity:0;"/>
</linearGradient>
<clipPath id="clip1">
  <rect x="0" y="0" width="24" height="24"/>
</clipPath>
<g id="surface5" clip-path="url(#clip1)">
<path style=" stroke:none;fill-rule:nonzero;fill:url(#linear3);" d="M 23 5 L 10.429688 5 C 9.996094 5 9.585938 5.1875 9.300781 5.511719 L 8.074219 6.914062 C 8.027344 6.96875 7.957031 7 7.886719 7 L 1.25 7 C 0.558594 7 0 7.558594 0 8.25 L 0 9.25 C 0 8.558594 0.558594 8 1.25 8 L 7.886719 8 C 7.957031 8 8.027344 7.96875 8.074219 7.914062 L 9.300781 6.511719 C 9.585938 6.1875 9.996094 6 10.429688 6 L 23 6 C 23.550781 6 24 6.449219 24 7 L 24 6 C 24 5.449219 23.550781 5 23 5 Z M 23 5 "/>
</g>
</defs>
<g id="surface1">
<path style=" stroke:none;fill-rule:nonzero;fill:rgb(87.843137%,62.352941%,0%);fill-opacity:1;" d="M 23.0625 4 L 10.5 4 L 8.6875 1.511719 C 8.429688 1.195312 8.039062 1.007812 7.628906 1 L 1.125 1 C 0.453125 1.054688 -0.046875 1.640625 0 2.3125 L 0 8 L 24 8 L 24 5 C 24.015625 4.464844 23.597656 4.019531 23.0625 4 Z M 23.0625 4 "/>
<path style=" stroke:none;fill-rule:nonzero;fill:url(#linear0);" d="M 0 5 L 10 5 L 10 8 L 0 8 Z M 0 5 "/>
<path style=" stroke:none;fill-rule:nonzero;fill:url(#linear1);" d="M 23 5 L 10.429688 5 C 10 5 9.585938 5.1875 9.300781 5.511719 L 8.074219 6.914062 C 8.027344 6.96875 7.957031 7 7.886719 7 L 1.25 7 C 0.558594 7 0 7.558594 0 8.25 L 0 21.4375 C 0 22.300781 0.699219 23 1.5625 23 L 22.4375 23 C 23.300781 23 24 22.300781 24 21.4375 L 24 6 C 24 5.449219 23.550781 5 23 5 Z M 23 5 "/>
<path style=" stroke:none;fill-rule:nonzero;fill:url(#linear2);" d="M 6 16 C 5.476562 15.992188 4.972656 16.191406 4.597656 16.558594 C 4.222656 16.921875 4.007812 17.421875 4 17.945312 L 4 23 L 20 23 L 20 17.945312 C 19.992188 17.421875 19.777344 16.921875 19.402344 16.558594 C 19.027344 16.191406 18.523438 15.992188 18 16 Z M 6 16 "/>
<path style=" stroke:none;fill-rule:nonzero;fill:rgb(6.666667%,29.019608%,54.509804%);fill-opacity:1;" d="M 7.5 19 L 16.5 19 C 16.777344 19 17 19.222656 17 19.5 C 17 19.777344 16.777344 20 16.5 20 L 7.5 20 C 7.222656 20 7 19.777344 7 19.5 C 7 19.222656 7.222656 19 7.5 19 Z M 7.5 19 "/>
<use xlink:href="#surface5" mask="url(#mask0)"/>
</g>
</svg>
