<?xml version="1.0" encoding="UTF-8"?>
<svg xmlns="http://www.w3.org/2000/svg" xmlns:xlink="http://www.w3.org/1999/xlink" width="16px" height="16px" viewBox="0 0 16 16" version="1.1">
<defs>
<linearGradient id="linear0" gradientUnits="userSpaceOnUse" x1="-306.5724" y1="7.6676" x2="-289.2395" y2="7.6676" gradientTransform="matrix(0.9231,0,0,0.9231,282.997,1.922)">
<stop offset="0" style="stop-color:rgb(31.372549%,31.372549%,31.372549%);stop-opacity:1;"/>
<stop offset="1" style="stop-color:rgb(19.607843%,19.607843%,19.607843%);stop-opacity:1;"/>
</linearGradient>
<linearGradient id="linear1" gradientUnits="userSpaceOnUse" x1="-294.6632" y1="1.1678" x2="-289.2467" y2="1.1678" gradientTransform="matrix(0.9231,0,0,0.9231,282.997,1.922)">
<stop offset="0" style="stop-color:rgb(38.823529%,38.823529%,38.823529%);stop-opacity:1;"/>
<stop offset="1" style="stop-color:rgb(39.215686%,39.215686%,39.215686%);stop-opacity:1;"/>
</linearGradient>
<linearGradient id="linear2" gradientUnits="userSpaceOnUse" x1="-301.1648" y1="1.1678" x2="-294.665" y2="1.1678" gradientTransform="matrix(0.9231,0,0,0.9231,282.997,1.922)">
<stop offset="0" style="stop-color:rgb(59.607843%,59.607843%,59.607843%);stop-opacity:1;"/>
<stop offset="1" style="stop-color:rgb(60%,60%,60%);stop-opacity:1;"/>
</linearGradient>
<linearGradient id="linear3" gradientUnits="userSpaceOnUse" x1="-306.5795" y1="1.1678" x2="-301.163" y2="1.1678" gradientTransform="matrix(0.9231,0,0,0.9231,282.997,1.922)">
<stop offset="0" style="stop-color:rgb(80.784314%,80.784314%,80.784314%);stop-opacity:1;"/>
<stop offset="1" style="stop-color:rgb(81.568627%,81.568627%,81.568627%);stop-opacity:1;"/>
</linearGradient>
<linearGradient id="linear4" gradientUnits="userSpaceOnUse" x1="-132.2714" y1="-196.6314" x2="-119.2566" y2="-199.702" gradientTransform="matrix(0.234618,-0.234618,0.234618,0.234618,80.205,26.9254)">
<stop offset="0" style="stop-color:rgb(66.27451%,66.27451%,66.27451%);stop-opacity:1;"/>
<stop offset="1" style="stop-color:rgb(54.901961%,54.901961%,54.901961%);stop-opacity:1;"/>
</linearGradient>
<linearGradient id="linear5" gradientUnits="userSpaceOnUse" x1="-217.211" y1="-111.5638" x2="-204.1963" y2="-114.6344" gradientTransform="matrix(0.2346,0.2346,0.2346,-0.2346,80.172,30.4585)">
<stop offset="0" style="stop-color:rgb(89.803922%,89.803922%,89.803922%);stop-opacity:1;"/>
<stop offset="1" style="stop-color:rgb(80.784314%,80.784314%,80.784314%);stop-opacity:1;"/>
</linearGradient>
<linearGradient id="linear6" gradientUnits="userSpaceOnUse" x1="-255.7997" y1="-57.6569" x2="-241.9343" y2="-60.9281" gradientTransform="matrix(0.3318,0,0,-0.3318,93.9874,-8.6937)">
<stop offset="0" style="stop-color:rgb(89.803922%,89.803922%,89.803922%);stop-opacity:1;"/>
<stop offset="1" style="stop-color:rgb(80.784314%,80.784314%,80.784314%);stop-opacity:1;"/>
</linearGradient>
</defs>
<g id="surface1">
<path style=" stroke:none;fill-rule:nonzero;fill:url(#linear0);" d="M 16 4 L 0 4 L 0 13.285156 C -0.00390625 13.472656 0.0742188 13.65625 0.210938 13.785156 C 0.351562 13.921875 0.542969 14 0.738281 14 L 15.261719 14 C 15.457031 13.996094 15.648438 13.921875 15.789062 13.785156 C 15.925781 13.65625 16.003906 13.472656 16 13.285156 Z M 16 4 "/>
<path style=" stroke:none;fill-rule:nonzero;fill:url(#linear1);" d="M 11 2 L 11 4 L 16 4 L 16 2.75 C 16.015625 2.351562 15.707031 2.019531 15.308594 2 Z M 11 2 "/>
<path style=" stroke:none;fill-rule:nonzero;fill:url(#linear2);" d="M 5 2 L 5 4 L 11 4 L 11 2 Z M 5 2 "/>
<path style=" stroke:none;fill-rule:nonzero;fill:url(#linear3);" d="M 0 2.75 L 0 4 L 5 4 L 5 2 L 0.691406 2 C 0.5 2.007812 0.320312 2.09375 0.191406 2.230469 C 0.0625 2.371094 -0.0078125 2.558594 0 2.75 Z M 0 2.75 "/>
<path style=" stroke:none;fill-rule:nonzero;fill:url(#linear4);" d="M 2.058594 10.863281 L 5.300781 7.789062 C 5.375 7.722656 5.484375 7.722656 5.554688 7.789062 L 6.449219 8.632812 C 6.480469 8.664062 6.5 8.707031 6.5 8.753906 C 6.5 8.800781 6.480469 8.84375 6.449219 8.875 L 3.207031 11.949219 C 3.132812 12.015625 3.023438 12.015625 2.953125 11.949219 L 2.058594 11.105469 C 2.027344 11.074219 2.007812 11.03125 2.007812 10.984375 C 2.007812 10.941406 2.027344 10.894531 2.058594 10.867188 Z M 2.058594 10.863281 "/>
<path style=" stroke:none;fill-rule:nonzero;fill:url(#linear5);" d="M 2.050781 6.636719 L 5.292969 9.710938 C 5.367188 9.777344 5.476562 9.777344 5.546875 9.710938 L 6.441406 8.867188 C 6.472656 8.835938 6.492188 8.792969 6.492188 8.746094 C 6.492188 8.699219 6.472656 8.65625 6.441406 8.625 L 3.199219 5.550781 C 3.125 5.484375 3.015625 5.484375 2.945312 5.550781 L 2.050781 6.394531 C 2.019531 6.425781 2 6.46875 2 6.515625 C 2 6.558594 2.019531 6.605469 2.050781 6.632812 Z M 2.050781 6.636719 "/>
<path style=" stroke:none;fill-rule:nonzero;fill:url(#linear6);" d="M 9.183594 12 L 13.816406 12 C 13.867188 12 13.917969 11.976562 13.949219 11.933594 C 13.984375 11.890625 14 11.835938 14 11.777344 L 14 10.222656 C 14 10.164062 13.984375 10.109375 13.949219 10.066406 C 13.917969 10.023438 13.867188 10 13.816406 10 L 9.183594 10 C 9.132812 10 9.082031 10.023438 9.050781 10.066406 C 9.015625 10.109375 9 10.164062 9 10.222656 L 9 11.777344 C 9 11.835938 9.015625 11.890625 9.050781 11.933594 C 9.082031 11.976562 9.132812 12 9.183594 12 Z M 9.183594 12 "/>
</g>
</svg>
