<?xml version="1.0" encoding="UTF-8"?>
<svg xmlns="http://www.w3.org/2000/svg" xmlns:xlink="http://www.w3.org/1999/xlink" width="32px" height="32px" viewBox="0 0 32 32" version="1.1">
<defs>
<linearGradient id="linear0" gradientUnits="userSpaceOnUse" x1="5.5119" y1="-81.1259" x2="25.9346" y2="-59.4613" gradientTransform="matrix(1,0,0,1,0,86)">
<stop offset="0" style="stop-color:rgb(49.019608%,84.705882%,95.294118%);stop-opacity:1;"/>
<stop offset="1" style="stop-color:rgb(27.058824%,69.019608%,81.568627%);stop-opacity:1;"/>
</linearGradient>
<linearGradient id="linear1" gradientUnits="userSpaceOnUse" x1="-93.6547" y1="-192.5001" x2="28.0406" y2="-52.9246" gradientTransform="matrix(1,0,0,1,0,86)">
<stop offset="0" style="stop-color:rgb(100%,85.490196%,10.980392%);stop-opacity:1;"/>
<stop offset="1" style="stop-color:rgb(99.607843%,71.764706%,1.960784%);stop-opacity:1;"/>
</linearGradient>
<radialGradient id="radial0" gradientUnits="userSpaceOnUse" cx="17.8577" cy="-67.5346" fx="17.8577" fy="-67.5346" r="2.0988" gradientTransform="matrix(2.7273,0,0,3.0047,-27.1187,223.8503)">
<stop offset="0" style="stop-color:rgb(29.411765%,29.411765%,29.411765%);stop-opacity:1;"/>
<stop offset="0.531" style="stop-color:rgb(22.352941%,22.352941%,22.352941%);stop-opacity:1;"/>
<stop offset="1" style="stop-color:rgb(14.509804%,14.509804%,14.509804%);stop-opacity:1;"/>
</radialGradient>
<radialGradient id="radial1" gradientUnits="userSpaceOnUse" cx="21.1585" cy="26.9735" fx="21.1585" fy="26.9735" r="3.9836" >
<stop offset="0" style="stop-color:rgb(29.411765%,29.411765%,29.411765%);stop-opacity:1;"/>
<stop offset="0.531" style="stop-color:rgb(22.352941%,22.352941%,22.352941%);stop-opacity:1;"/>
<stop offset="1" style="stop-color:rgb(14.509804%,14.509804%,14.509804%);stop-opacity:1;"/>
</radialGradient>
</defs>
<g id="surface1">
<path style=" stroke:none;fill-rule:nonzero;fill:url(#linear0);" d="M 24.667969 28 L 7.332031 28 C 6.953125 27.972656 6.597656 27.796875 6.347656 27.511719 C 6.097656 27.222656 5.972656 26.847656 6 26.464844 L 6 5.535156 C 5.972656 5.152344 6.097656 4.777344 6.347656 4.488281 C 6.597656 4.203125 6.953125 4.027344 7.332031 4 L 24.667969 4 C 25.046875 4.027344 25.402344 4.203125 25.652344 4.488281 C 25.902344 4.777344 26.027344 5.152344 26 5.535156 L 26 26.464844 C 26.027344 26.847656 25.902344 27.222656 25.652344 27.511719 C 25.402344 27.796875 25.046875 27.972656 24.667969 28 Z M 24.667969 28 "/>
<path style=" stroke:none;fill-rule:nonzero;fill:rgb(1.960784%,43.921569%,57.647059%);fill-opacity:1;" d="M 5 7 L 7 7 C 7.550781 7 8 7.449219 8 8 C 8 8.550781 7.550781 9 7 9 L 5 9 C 4.449219 9 4 8.550781 4 8 C 4 7.449219 4.449219 7 5 7 Z M 5 7 "/>
<path style=" stroke:none;fill-rule:nonzero;fill:rgb(1.960784%,43.921569%,57.647059%);fill-opacity:1;" d="M 5 11 L 7 11 C 7.550781 11 8 11.449219 8 12 C 8 12.550781 7.550781 13 7 13 L 5 13 C 4.449219 13 4 12.550781 4 12 C 4 11.449219 4.449219 11 5 11 Z M 5 11 "/>
<path style=" stroke:none;fill-rule:nonzero;fill:rgb(1.960784%,43.921569%,57.647059%);fill-opacity:1;" d="M 5 15 L 7 15 C 7.550781 15 8 15.449219 8 16 C 8 16.550781 7.550781 17 7 17 L 5 17 C 4.449219 17 4 16.550781 4 16 C 4 15.449219 4.449219 15 5 15 Z M 5 15 "/>
<path style=" stroke:none;fill-rule:nonzero;fill:rgb(1.960784%,43.921569%,57.647059%);fill-opacity:1;" d="M 5 19 L 7 19 C 7.550781 19 8 19.449219 8 20 C 8 20.550781 7.550781 21 7 21 L 5 21 C 4.449219 21 4 20.550781 4 20 C 4 19.449219 4.449219 19 5 19 Z M 5 19 "/>
<path style=" stroke:none;fill-rule:nonzero;fill:rgb(1.960784%,43.921569%,57.647059%);fill-opacity:1;" d="M 5 23 L 7 23 C 7.550781 23 8 23.449219 8 24 C 8 24.550781 7.550781 25 7 25 L 5 25 C 4.449219 25 4 24.550781 4 24 C 4 23.449219 4.449219 23 5 23 Z M 5 23 "/>
<path style=" stroke:none;fill-rule:nonzero;fill:rgb(1.960784%,43.921569%,57.647059%);fill-opacity:1;" d="M 11.5 7 L 22.5 7 C 22.777344 7 23 7.222656 23 7.5 L 23 8.5 C 23 8.777344 22.777344 9 22.5 9 L 11.5 9 C 11.222656 9 11 8.777344 11 8.5 L 11 7.5 C 11 7.222656 11.222656 7 11.5 7 Z M 11.5 7 "/>
<path style=" stroke:none;fill-rule:nonzero;fill:rgb(1.960784%,43.921569%,57.647059%);fill-opacity:1;" d="M 11.5 11 L 22.5 11 C 22.777344 11 23 11.222656 23 11.5 L 23 12.5 C 23 12.777344 22.777344 13 22.5 13 L 11.5 13 C 11.222656 13 11 12.777344 11 12.5 L 11 11.5 C 11 11.222656 11.222656 11 11.5 11 Z M 11.5 11 "/>
<path style=" stroke:none;fill-rule:nonzero;fill:rgb(1.960784%,43.921569%,57.647059%);fill-opacity:1;" d="M 11.5 15 L 22.5 15 C 22.777344 15 23 15.222656 23 15.5 L 23 16.5 C 23 16.777344 22.777344 17 22.5 17 L 11.5 17 C 11.222656 17 11 16.777344 11 16.5 L 11 15.5 C 11 15.222656 11.222656 15 11.5 15 Z M 11.5 15 "/>
<path style=" stroke:none;fill-rule:nonzero;fill:rgb(1.960784%,43.921569%,57.647059%);fill-opacity:1;" d="M 11.5 19 L 22.5 19 C 22.777344 19 23 19.222656 23 19.5 L 23 20.5 C 23 20.777344 22.777344 21 22.5 21 L 11.5 21 C 11.222656 21 11 20.777344 11 20.5 L 11 19.5 C 11 19.222656 11.222656 19 11.5 19 Z M 11.5 19 "/>
<path style=" stroke:none;fill-rule:nonzero;fill:rgb(1.960784%,43.921569%,57.647059%);fill-opacity:1;" d="M 11.5 23 L 22.5 23 C 22.777344 23 23 23.222656 23 23.5 L 23 24.5 C 23 24.777344 22.777344 25 22.5 25 L 11.5 25 C 11.222656 25 11 24.777344 11 24.5 L 11 23.5 C 11 23.222656 11.222656 23 11.5 23 Z M 11.5 23 "/>
<path style=" stroke:none;fill-rule:nonzero;fill:url(#linear1);" d="M 30.863281 28.867188 L 24.113281 18.332031 C 23.980469 18.113281 23.734375 17.988281 23.480469 18 C 23.222656 18.015625 22.996094 18.167969 22.886719 18.398438 L 16.136719 28.867188 C 16.058594 28.984375 16.011719 29.125 16 29.265625 C 16.003906 29.636719 16.308594 29.9375 16.683594 29.933594 L 30.316406 29.933594 C 30.691406 29.9375 30.996094 29.640625 31 29.265625 C 30.988281 29.125 30.941406 28.984375 30.863281 28.867188 Z M 30.863281 28.867188 "/>
<path style=" stroke:none;fill-rule:nonzero;fill:url(#radial0);" d="M 24.316406 21.300781 L 24.113281 26.109375 C 24.109375 26.175781 24.078125 26.238281 24.027344 26.277344 C 23.972656 26.320312 23.90625 26.339844 23.839844 26.332031 L 23.089844 26.332031 C 22.960938 26.320312 22.855469 26.230469 22.816406 26.109375 L 22.683594 21.300781 C 22.683594 21.148438 22.800781 21.019531 22.953125 21 L 24.046875 21 C 24.125 20.996094 24.199219 21.027344 24.253906 21.085938 C 24.304688 21.144531 24.328125 21.222656 24.316406 21.300781 Z M 24.316406 21.300781 "/>
<path style=" stroke:none;fill-rule:nonzero;fill:url(#radial1);" d="M 24.5 28 C 24.5 28.550781 24.050781 29 23.5 29 C 22.949219 29 22.5 28.550781 22.5 28 C 22.5 27.449219 22.949219 27 23.5 27 C 24.050781 27 24.5 27.449219 24.5 28 Z M 24.5 28 "/>
</g>
</svg>
