<?xml version="1.0" encoding="UTF-8"?>
<svg xmlns="http://www.w3.org/2000/svg" xmlns:xlink="http://www.w3.org/1999/xlink" width="32px" height="32px" viewBox="0 0 32 32" version="1.1">
<defs>
<linearGradient id="linear0" gradientUnits="userSpaceOnUse" x1="-59.8664" y1="41.1583" x2="-64.4615" y2="46.1421" gradientTransform="matrix(4.1232,0,0,-4.1232,272.401,196.073)">
<stop offset="0" style="stop-color:rgb(56.078431%,38.431373%,73.72549%);stop-opacity:1;"/>
<stop offset="1" style="stop-color:rgb(96.862745%,56.470588%,30.588235%);stop-opacity:1;"/>
</linearGradient>
<linearGradient id="linear1" gradientUnits="userSpaceOnUse" x1="-60.3904" y1="42.2146" x2="-64.9855" y2="47.1984" gradientTransform="matrix(3.4523,0,0,-3.4523,233.4455,169.5424)">
<stop offset="0" style="stop-color:rgb(13.72549%,13.333333%,13.72549%);stop-opacity:1;"/>
<stop offset="1" style="stop-color:rgb(28.627451%,28.235294%,30.196078%);stop-opacity:1;"/>
</linearGradient>
<linearGradient id="linear2" gradientUnits="userSpaceOnUse" x1="-67.8111" y1="49.1028" x2="-72.4063" y2="54.0866" gradientTransform="matrix(1.4087,0,0,-1.4087,114.7886,88.7112)">
<stop offset="0" style="stop-color:rgb(82.352941%,82.352941%,82.352941%);stop-opacity:1;"/>
<stop offset="1" style="stop-color:rgb(100%,100%,100%);stop-opacity:1;"/>
</linearGradient>
<linearGradient id="linear3" gradientUnits="userSpaceOnUse" x1="-87.2857" y1="68.5788" x2="-91.8809" y2="73.5625" gradientTransform="matrix(0.5389,0,0,-0.5389,64.2905,54.3144)">
<stop offset="0" style="stop-color:rgb(13.72549%,13.333333%,13.72549%);stop-opacity:1;"/>
<stop offset="1" style="stop-color:rgb(28.627451%,28.235294%,30.196078%);stop-opacity:1;"/>
</linearGradient>
</defs>
<g id="surface1">
<path style=" stroke:none;fill-rule:nonzero;fill:url(#linear0);" d="M 32 16 C 32.003906 19.128906 31.085938 22.191406 29.363281 24.800781 C 29.074219 25.238281 28.769531 25.65625 28.441406 26.0625 C 27.390625 27.359375 26.144531 28.484375 24.75 29.398438 C 19.988281 32.503906 13.941406 32.855469 8.851562 30.320312 C 8.300781 30.042969 7.765625 29.734375 7.25 29.398438 C 5.835938 28.472656 4.574219 27.328125 3.519531 26.011719 C 3.191406 25.601562 2.882812 25.179688 2.597656 24.738281 C -0.542969 19.921875 -0.855469 13.792969 1.777344 8.679688 C 4.40625 3.566406 9.578125 0.261719 15.324219 0.015625 C 21.070312 -0.226562 26.503906 2.628906 29.558594 7.5 C 31.15625 10.046875 32.003906 12.992188 32 16 Z M 32 16 "/>
<path style=" stroke:none;fill-rule:nonzero;fill:url(#linear1);" d="M 16 2.605469 C 11.082031 2.601562 6.558594 5.292969 4.214844 9.617188 C 1.871094 13.941406 2.089844 19.203125 4.777344 23.320312 C 5.015625 23.6875 5.273438 24.042969 5.550781 24.382812 C 6.433594 25.488281 7.488281 26.445312 8.671875 27.21875 C 13.125 30.132812 18.878906 30.132812 23.328125 27.21875 C 24.496094 26.453125 25.539062 25.511719 26.417969 24.425781 C 26.691406 24.089844 26.949219 23.738281 27.1875 23.371094 C 30.070312 19.070312 30.171875 13.484375 27.449219 9.082031 L 24.246094 11.285156 L 22.863281 9.277344 L 25.964844 7.140625 L 28.101562 5.667969 C 27.839844 5.363281 27.632812 5.007812 27.347656 4.722656 C 26.890625 4.292969 26.40625 3.894531 25.902344 3.523438 L 23.699219 5.042969 C 21.445312 3.453125 18.757812 2.601562 16 2.605469 Z M 16 2.605469 "/>
<path style=" stroke:none;fill-rule:nonzero;fill:url(#linear2);" d="M 21.464844 16 C 21.46875 17.070312 21.15625 18.113281 20.566406 19.007812 C 20.46875 19.15625 20.363281 19.300781 20.25 19.4375 C 19.890625 19.878906 19.464844 20.265625 18.988281 20.578125 C 17.171875 21.765625 14.828125 21.765625 13.011719 20.578125 C 12.527344 20.261719 12.097656 19.871094 11.734375 19.421875 C 11.625 19.28125 11.519531 19.136719 11.421875 18.984375 C 10.144531 17.03125 10.25 14.480469 11.683594 12.636719 C 13.121094 10.792969 15.566406 10.066406 17.777344 10.824219 C 19.984375 11.585938 21.46875 13.664062 21.464844 16 Z M 21.464844 16 "/>
<path style=" stroke:none;fill-rule:nonzero;fill:url(#linear3);" d="M 18.089844 16 C 18.09375 16.410156 17.972656 16.808594 17.746094 17.152344 C 17.707031 17.207031 17.667969 17.261719 17.625 17.316406 C 17.488281 17.484375 17.324219 17.632812 17.144531 17.75 C 16.449219 18.207031 15.550781 18.207031 14.855469 17.75 C 14.671875 17.628906 14.507812 17.480469 14.367188 17.308594 C 14.324219 17.253906 14.285156 17.199219 14.25 17.140625 C 13.757812 16.394531 13.800781 15.417969 14.347656 14.710938 C 14.898438 14.007812 15.835938 13.730469 16.679688 14.019531 C 17.523438 14.3125 18.09375 15.105469 18.089844 16 Z M 18.089844 16 "/>
</g>
</svg>
