<?xml version="1.0" encoding="UTF-8" standalone="no"?>
<!-- Created with Inkscape (http://www.inkscape.org/) -->

<svg
   width="64"
   height="64"
   viewBox="0 0 16.933333 16.933334"
   version="1.1"
   id="svg5"
   inkscape:version="1.1.1 (3bf5ae0d25, 2021-09-20, custom)"
   sodipodi:docname="system-search.svg"
   xmlns:inkscape="http://www.inkscape.org/namespaces/inkscape"
   xmlns:sodipodi="http://sodipodi.sourceforge.net/DTD/sodipodi-0.dtd"
   xmlns:xlink="http://www.w3.org/1999/xlink"
   xmlns="http://www.w3.org/2000/svg"
   xmlns:svg="http://www.w3.org/2000/svg">
  <sodipodi:namedview
     id="namedview7"
     pagecolor="#ffffff"
     bordercolor="#666666"
     borderopacity="1.0"
     inkscape:pageshadow="2"
     inkscape:pageopacity="0.0"
     inkscape:pagecheckerboard="0"
     inkscape:document-units="px"
     showgrid="false"
     units="px"
     height="64px"
     showguides="false"
     inkscape:zoom="12.078125"
     inkscape:cx="32"
     inkscape:cy="32"
     inkscape:window-width="1920"
     inkscape:window-height="1009"
     inkscape:window-x="0"
     inkscape:window-y="0"
     inkscape:window-maximized="1"
     inkscape:current-layer="svg5" />
  <defs
     id="defs2">
    <linearGradient
       inkscape:collect="always"
       id="linearGradient5013">
      <stop
         style="stop-color:#ffffff;stop-opacity:1;"
         offset="0"
         id="stop5009" />
      <stop
         style="stop-color:#cceaff;stop-opacity:1"
         offset="0.37060696"
         id="stop5145" />
      <stop
         style="stop-color:#ffffff;stop-opacity:1"
         offset="1"
         id="stop5011" />
    </linearGradient>
    <linearGradient
       inkscape:collect="always"
       id="linearGradient3713">
      <stop
         style="stop-color:#70818a;stop-opacity:1"
         offset="0"
         id="stop3709" />
      <stop
         style="stop-color:#808f98;stop-opacity:1"
         offset="0.2"
         id="stop3973" />
      <stop
         style="stop-color:#8d9ba4;stop-opacity:1"
         offset="0.47"
         id="stop4103" />
      <stop
         style="stop-color:#5f707b;stop-opacity:1"
         offset="0.7372787"
         id="stop4361" />
      <stop
         style="stop-color:#5f707b;stop-opacity:1"
         offset="1"
         id="stop3711" />
    </linearGradient>
    <linearGradient
       inkscape:collect="always"
       id="linearGradient3049">
      <stop
         style="stop-color:#4c565b;stop-opacity:1"
         offset="0"
         id="stop3045" />
      <stop
         style="stop-color:#636b70;stop-opacity:1"
         offset="0.40000001"
         id="stop3277" />
      <stop
         style="stop-color:#4b546a;stop-opacity:1"
         offset="0.60000002"
         id="stop3117" />
      <stop
         style="stop-color:#606568;stop-opacity:1"
         offset="1"
         id="stop3047" />
    </linearGradient>
    <linearGradient
       inkscape:collect="always"
       id="linearGradient2353">
      <stop
         style="stop-color:#c6d0d7;stop-opacity:1;"
         offset="0"
         id="stop2349" />
      <stop
         style="stop-color:#a6afb4;stop-opacity:1"
         offset="0.40000001"
         id="stop2421" />
      <stop
         style="stop-color:#666c70;stop-opacity:1"
         offset="0.60147125"
         id="stop2551" />
      <stop
         style="stop-color:#606568;stop-opacity:1"
         offset="1"
         id="stop2351" />
    </linearGradient>
    <linearGradient
       inkscape:collect="always"
       id="linearGradient932">
      <stop
         style="stop-color:#bcc6cd;stop-opacity:1"
         offset="0"
         id="stop928" />
      <stop
         style="stop-color:#bcc5cc;stop-opacity:1"
         offset="1"
         id="stop930" />
    </linearGradient>
    <linearGradient
       inkscape:collect="always"
       xlink:href="#linearGradient932"
       id="linearGradient934"
       x1="5.8208332"
       y1="6.0854168"
       x2="15.875"
       y2="6.0854168"
       gradientUnits="userSpaceOnUse"
       gradientTransform="scale(3.7795275)" />
    <linearGradient
       inkscape:collect="always"
       xlink:href="#linearGradient2353"
       id="linearGradient2355"
       x1="10.31875"
       y1="11.90625"
       x2="11.377084"
       y2="11.90625"
       gradientUnits="userSpaceOnUse"
       gradientTransform="translate(1.125802,-9.453056)" />
    <linearGradient
       inkscape:collect="always"
       xlink:href="#linearGradient3049"
       id="linearGradient3051"
       x1="38"
       y1="72.499998"
       x2="44"
       y2="72.499998"
       gradientUnits="userSpaceOnUse"
       gradientTransform="matrix(0.18708867,0.18708867,-0.18708867,0.18708867,7.4803822,-5.8882578)" />
    <linearGradient
       inkscape:collect="always"
       xlink:href="#linearGradient3713"
       id="linearGradient3715"
       x1="10.054167"
       y1="16.139584"
       x2="11.641667"
       y2="16.139584"
       gradientUnits="userSpaceOnUse"
       gradientTransform="translate(1.125802,-9.453056)" />
    <linearGradient
       inkscape:collect="always"
       xlink:href="#linearGradient5013"
       id="linearGradient5015"
       x1="6.0854168"
       y1="1.3229163"
       x2="15.610416"
       y2="10.847917"
       gradientUnits="userSpaceOnUse" />
  </defs>
  <circle
     style="fill:url(#linearGradient5015);fill-opacity:1;stroke-width:0.79375;stroke-linecap:round;stroke-linejoin:round;opacity:1"
     id="path4927"
     cx="10.847917"
     cy="6.0854163"
     r="4.7624998" />
  <path
     id="path2749"
     style="fill:url(#linearGradient3051);fill-opacity:1;stroke-width:0.79375;stroke-linecap:round;stroke-linejoin:round"
     d="m 1.1193674,14.691496 c -0.30997859,0.309979 -0.30997859,0.812553 0,1.122532 0.3099786,0.309979 0.8125534,0.309979 1.122532,0 L 2.6160773,15.439849 1.4935457,14.317318 Z"
     sodipodi:nodetypes="cscccc" />
  <rect
     style="fill:url(#linearGradient2355);fill-opacity:1;stroke-width:0.79375;stroke-linecap:round;stroke-linejoin:round"
     id="rect1454"
     width="1.0583334"
     height="2.1166668"
     x="11.444552"
     y="1.3948606"
     transform="rotate(45)" />
  <rect
     style="fill:url(#linearGradient3715);fill-opacity:1;stroke-width:0.665335;stroke-linecap:round;stroke-linejoin:round"
     id="rect1712"
     width="1.5875"
     height="5.8208332"
     x="11.179969"
     y="3.7761109"
     transform="rotate(45)" />
  <path
     id="rect1868"
     style="fill:#4a5359;stroke-width:0.693776;stroke-linecap:round;stroke-linejoin:round"
     d="m 5.6094958,10.575545 0.7483544,0.748354 c 0.1036477,0.103648 0.103647,0.270532 0,0.374179 l -1.122532,-1.122532 c 0.103647,-0.103647 0.2705305,-0.103648 0.3741776,-10e-7 z"
     sodipodi:nodetypes="ssccs" />
  <path
     id="path846"
     style="fill:url(#linearGradient934);fill-opacity:1;stroke-width:3;stroke-linecap:round;stroke-linejoin:round"
     d="M 41 4 A 19 19 0 0 0 22 23 A 19 19 0 0 0 41 42 A 19 19 0 0 0 60 23 A 19 19 0 0 0 41 4 z M 41 6 A 17 17 0 0 1 58 23 A 17 17 0 0 1 41 40 A 17 17 0 0 1 24 23 A 17 17 0 0 1 41 6 z "
     transform="scale(0.26458334)" />
  <path
     id="path1196"
     style="fill:#677c81;fill-opacity:1;stroke-width:3;stroke-linecap:round;stroke-linejoin:round"
     d="M 41 5.5 A 17.5 17.5 0 0 0 23.5 23 A 17.5 17.5 0 0 0 41 40.5 A 17.5 17.5 0 0 0 58.5 23 A 17.5 17.5 0 0 0 41 5.5 z M 41 6 A 17 17 0 0 1 58 23 A 17 17 0 0 1 41 40 A 17 17 0 0 1 24 23 A 17 17 0 0 1 41 6 z "
     transform="scale(0.26458334)" />
</svg>
