<?xml version="1.0" encoding="UTF-8"?>
<svg xmlns="http://www.w3.org/2000/svg" xmlns:xlink="http://www.w3.org/1999/xlink" width="32px" height="32px" viewBox="0 0 32 32" version="1.1">
<defs>
<linearGradient id="linear0" gradientUnits="userSpaceOnUse" x1="17.7297" y1="15.7297" x2="30.354" y2="28.354" gradientTransform="matrix(1,0,0,1,-8,-6)">
<stop offset="0" style="stop-color:rgb(100%,100%,100%);stop-opacity:1;"/>
<stop offset="0.242" style="stop-color:rgb(94.901961%,94.901961%,94.901961%);stop-opacity:1;"/>
<stop offset="1" style="stop-color:rgb(80%,80%,80%);stop-opacity:1;"/>
</linearGradient>
<linearGradient id="linear1" gradientUnits="userSpaceOnUse" x1="18.3857" y1="16.3857" x2="28.2343" y2="26.2343" gradientTransform="matrix(1,0,0,1,-8,-6)">
<stop offset="0.1453" style="stop-color:rgb(41.960784%,44.313725%,46.27451%);stop-opacity:1;"/>
<stop offset="0.8939" style="stop-color:rgb(28.235294%,31.764706%,34.901961%);stop-opacity:1;"/>
</linearGradient>
<linearGradient id="linear2" gradientUnits="userSpaceOnUse" x1="9.1845" y1="7.2637" x2="35.1723" y2="33.2514" gradientTransform="matrix(1,0,0,1,-8,-6)">
<stop offset="0.1453" style="stop-color:rgb(54.117647%,56.862745%,59.607843%);stop-opacity:1;"/>
<stop offset="0.8939" style="stop-color:rgb(38.823529%,43.921569%,48.235294%);stop-opacity:1;"/>
</linearGradient>
</defs>
<g id="surface1">
<path style=" stroke:none;fill-rule:nonzero;fill:url(#linear0);" d="M 25 16 C 25 20.949219 20.949219 25 16 25 C 11.050781 25 7 20.949219 7 16 C 7 11.050781 11.050781 7 16 7 C 20.949219 7 25 11.050781 25 16 Z M 25 16 "/>
<path style=" stroke:none;fill-rule:nonzero;fill:url(#linear1);" d="M 22 16 C 22 19.300781 19.300781 22 16 22 C 12.699219 22 10 19.300781 10 16 C 10 12.699219 12.699219 10 16 10 C 19.300781 10 22 12.699219 22 16 Z M 22 16 "/>
<path style=" stroke:none;fill-rule:nonzero;fill:url(#linear2);" d="M 31.550781 12.300781 C 29.601562 12.300781 27.75 11.25 26.75 9.550781 C 25.800781 7.949219 25.75 5.949219 26.601562 4.300781 C 24.898438 2.800781 22.851562 1.648438 20.648438 1 C 19.601562 2.550781 17.851562 3.449219 16 3.449219 C 14.148438 3.449219 12.398438 2.550781 11.351562 1 C 9.148438 1.648438 7.148438 2.800781 5.398438 4.300781 C 6.25 5.949219 6.199219 7.949219 5.25 9.550781 C 4.25 11.25 2.449219 12.300781 0.449219 12.300781 C -0.101562 14.5 -0.199219 16.800781 0.25 19 C 2.300781 18.949219 4.199219 20 5.199219 21.75 C 6.25 23.550781 6.199219 25.800781 5 27.550781 C 6.699219 29.101562 8.699219 30.300781 10.851562 31 C 11.800781 29.101562 13.75 27.851562 15.898438 27.851562 C 18.050781 27.851562 20 29.050781 20.949219 31 C 23.148438 30.300781 25.148438 29.101562 26.800781 27.550781 C 25.648438 25.800781 25.550781 23.550781 26.601562 21.75 C 27.648438 20 29.550781 18.949219 31.550781 19 C 32.148438 16.800781 32.101562 14.5 31.550781 12.300781 Z M 16 24 C 11.601562 24 8 20.398438 8 16 C 8 11.601562 11.601562 8 16 8 C 20.398438 8 24 11.601562 24 16 C 24 20.398438 20.398438 24 16 24 Z M 16 24 "/>
</g>
</svg>
