<svg height="32px" width="32px" id="Camada_1" data-name="Camada 1" xmlns="http://www.w3.org/2000/svg" xmlns:xlink="http://www.w3.org/1999/xlink" viewBox="0 0 32 32"><defs><style>.cls-1{fill:url(#Gradiente_sem_nome_2);}.cls-2{fill:url(#Gradiente_sem_nome_47);}</style><linearGradient id="Gradiente_sem_nome_2" x1="4.5482" y1="3.5482" x2="28.4518" y2="27.4518" gradientUnits="userSpaceOnUse"><stop offset="0" stop-color="#2d2d30"/><stop offset="1" stop-color="#171617"/></linearGradient><linearGradient id="Gradiente_sem_nome_47" x1="8.3947" y1="10.2839" x2="24.6053" y2="26.4944" gradientUnits="userSpaceOnUse"><stop offset="0" stop-color="#fff"/><stop offset="1" stop-color="#d2d2d2"/></linearGradient></defs><rect class="cls-1" x="2" y="1" width="29" height="29" rx="8.7"/><path class="cls-2" d="M16.5,5A6.31,6.31,0,0,0,10,11v3H8.5833A1.54,1.54,0,0,0,7,15.5v9A1.54,1.54,0,0,0,8.5833,26H24.4167A1.54,1.54,0,0,0,26,24.5v-9A1.54,1.54,0,0,0,24.4167,14H23V11A6.31,6.31,0,0,0,16.5,5Zm0,3c1.7543,0,3.6835,1.3482,3.5,3v3H13V11C13,9.338,14.7457,8,16.5,8Z"/></svg>