<?xml version="1.0" encoding="UTF-8"?>
<svg xmlns="http://www.w3.org/2000/svg" xmlns:xlink="http://www.w3.org/1999/xlink" width="16px" height="16px" viewBox="0 0 16 16" version="1.1">
<defs>
<linearGradient id="linear0" gradientUnits="userSpaceOnUse" x1="2.3431" y1="2.3431" x2="13.6569" y2="13.6569" >
<stop offset="0" style="stop-color:rgb(9.803922%,59.607843%,87.843137%);stop-opacity:1;"/>
<stop offset="1" style="stop-color:rgb(1.568627%,48.235294%,82.745098%);stop-opacity:1;"/>
</linearGradient>
</defs>
<g id="surface1">
<path style=" stroke:none;fill-rule:nonzero;fill:url(#linear0);" d="M 16 8 C 16 12.417969 12.417969 16 8 16 C 3.582031 16 0 12.417969 0 8 C 0 3.582031 3.582031 0 8 0 C 12.417969 0 16 3.582031 16 8 Z M 16 8 "/>
<path style=" stroke:none;fill-rule:nonzero;fill:rgb(100%,100%,100%);fill-opacity:1;" d="M 5.226562 6.117188 C 5.261719 5.421875 5.570312 4.769531 6.085938 4.300781 C 6.621094 3.84375 7.308594 3.605469 8.011719 3.632812 C 8.734375 3.597656 9.449219 3.832031 10.011719 4.289062 C 10.507812 4.707031 10.785156 5.324219 10.773438 5.96875 C 10.773438 6.339844 10.683594 6.707031 10.511719 7.035156 C 10.253906 7.457031 9.921875 7.828125 9.53125 8.125 C 9.175781 8.382812 8.875 8.707031 8.644531 9.078125 C 8.511719 9.457031 8.457031 9.859375 8.480469 10.257812 L 7.449219 10.257812 C 7.417969 9.714844 7.503906 9.171875 7.703125 8.664062 C 7.9375 8.246094 8.253906 7.875 8.628906 7.582031 C 8.957031 7.335938 9.238281 7.035156 9.472656 6.699219 C 9.578125 6.5 9.636719 6.273438 9.636719 6.046875 C 9.648438 5.628906 9.488281 5.226562 9.191406 4.9375 C 8.875 4.636719 8.457031 4.480469 8.023438 4.5 C 7.085938 4.5 6.535156 5.039062 6.371094 6.117188 Z M 8.601562 12.367188 L 7.402344 12.367188 L 7.402344 11.167969 L 8.601562 11.167969 Z M 8.601562 12.367188 "/>
</g>
</svg>
