<?xml version="1.0" encoding="UTF-8"?>
<svg xmlns="http://www.w3.org/2000/svg" xmlns:xlink="http://www.w3.org/1999/xlink" width="32px" height="32px" viewBox="0 0 32 32" version="1.1">
<defs>
<linearGradient id="linear0" gradientUnits="userSpaceOnUse" x1="2.3431" y1="2.3431" x2="13.6569" y2="13.6569" gradientTransform="matrix(2,0,0,2,0,0)">
<stop offset="0" style="stop-color:rgb(10.980392%,68.235294%,100%);stop-opacity:1;"/>
<stop offset="1" style="stop-color:rgb(0%,39.607843%,69.019608%);stop-opacity:1;"/>
</linearGradient>
</defs>
<g id="surface1">
<path style=" stroke:none;fill-rule:nonzero;fill:url(#linear0);" d="M 32 16 C 32 24.835938 24.835938 32 16 32 C 7.164062 32 0 24.835938 0 16 C 0 7.164062 7.164062 0 16 0 C 24.835938 0 32 7.164062 32 16 Z M 32 16 "/>
<path style=" stroke:none;fill-rule:nonzero;fill:rgb(100%,100%,100%);fill-opacity:1;" d="M 2.445312 17.855469 C 1.917969 17.328125 1.917969 16.472656 2.445312 15.945312 L 5.59375 12.796875 C 6.125 12.265625 6.976562 12.265625 7.503906 12.796875 L 10.65625 15.945312 C 11.179688 16.472656 11.179688 17.328125 10.65625 17.855469 C 10.125 18.382812 9.273438 18.382812 8.746094 17.855469 L 7.96875 17.078125 C 8.398438 20.265625 10.671875 22.898438 13.757812 23.785156 C 16.84375 24.671875 20.167969 23.65625 22.226562 21.183594 C 22.703125 20.609375 23.554688 20.535156 24.125 21.011719 C 24.695312 21.492188 24.773438 22.34375 24.296875 22.914062 C 21.5 26.273438 16.953125 27.613281 12.78125 26.3125 C 8.609375 25.007812 5.632812 21.320312 5.242188 16.96875 L 4.355469 17.855469 C 3.828125 18.382812 2.972656 18.382812 2.445312 17.855469 Z M 7.875 10.988281 C 7.304688 10.507812 7.226562 9.65625 7.703125 9.085938 C 10.5 5.726562 15.046875 4.386719 19.21875 5.6875 C 23.390625 6.992188 26.367188 10.679688 26.757812 15.03125 L 27.644531 14.144531 C 28.171875 13.617188 29.027344 13.617188 29.554688 14.144531 C 30.082031 14.671875 30.082031 15.527344 29.554688 16.054688 L 26.40625 19.203125 C 25.875 19.734375 25.023438 19.734375 24.496094 19.203125 L 21.34375 16.054688 C 20.820312 15.527344 20.820312 14.671875 21.34375 14.144531 C 21.875 13.617188 22.726562 13.617188 23.253906 14.144531 L 24.03125 14.921875 C 23.601562 11.734375 21.328125 9.105469 18.242188 8.21875 C 15.15625 7.328125 11.832031 8.347656 9.773438 10.8125 C 9.296875 11.390625 8.445312 11.464844 7.875 10.988281 Z M 7.875 10.988281 "/>
</g>
</svg>
