<?xml version="1.0" encoding="UTF-8"?>
<svg xmlns="http://www.w3.org/2000/svg" xmlns:xlink="http://www.w3.org/1999/xlink" width="16px" height="16px" viewBox="0 0 16 16" version="1.1">
<defs>
<linearGradient id="linear0" gradientUnits="userSpaceOnUse" x1="3.0503" y1="3.0503" x2="12.9497" y2="12.9497" >
<stop offset="0" style="stop-color:rgb(9.803922%,59.607843%,87.843137%);stop-opacity:1;"/>
<stop offset="1" style="stop-color:rgb(1.568627%,48.235294%,82.745098%);stop-opacity:1;"/>
</linearGradient>
</defs>
<g id="surface1">
<path style=" stroke:none;fill-rule:nonzero;fill:url(#linear0);" d="M 15 8 C 15 11.867188 11.867188 15 8 15 C 4.132812 15 1 11.867188 1 8 C 1 4.132812 4.132812 1 8 1 C 11.867188 1 15 4.132812 15 8 Z M 15 8 "/>
<path style=" stroke:none;fill-rule:nonzero;fill:rgb(100%,100%,100%);fill-opacity:1;" d="M 5.574219 6.351562 C 5.605469 5.742188 5.875 5.171875 6.324219 4.765625 C 6.792969 4.363281 7.394531 4.15625 8.011719 4.179688 C 8.644531 4.148438 9.265625 4.355469 9.757812 4.753906 C 10.191406 5.117188 10.4375 5.65625 10.425781 6.222656 C 10.425781 6.546875 10.347656 6.871094 10.195312 7.15625 C 9.972656 7.527344 9.679688 7.847656 9.335938 8.109375 C 9.027344 8.335938 8.765625 8.617188 8.5625 8.945312 C 8.449219 9.273438 8.398438 9.625 8.421875 9.976562 L 7.519531 9.976562 C 7.488281 9.5 7.566406 9.023438 7.738281 8.578125 C 7.945312 8.214844 8.21875 7.890625 8.550781 7.632812 C 8.835938 7.417969 9.085938 7.15625 9.285156 6.863281 C 9.382812 6.6875 9.429688 6.488281 9.429688 6.289062 C 9.441406 5.925781 9.300781 5.574219 9.039062 5.320312 C 8.765625 5.058594 8.398438 4.921875 8.019531 4.9375 C 7.199219 4.9375 6.71875 5.40625 6.574219 6.351562 Z M 8.527344 11.820312 L 7.476562 11.820312 L 7.476562 10.769531 L 8.527344 10.769531 Z M 8.527344 11.820312 "/>
</g>
</svg>
